G04 #@! TF.GenerationSoftware,KiCad,Pcbnew,8.0.3*
G04 #@! TF.CreationDate,2024-08-20T17:09:34+02:00*
G04 #@! TF.ProjectId,MDBT50Q-breakout,4d444254-3530-4512-9d62-7265616b6f75,rev?*
G04 #@! TF.SameCoordinates,Original*
G04 #@! TF.FileFunction,Soldermask,Bot*
G04 #@! TF.FilePolarity,Negative*
%FSLAX46Y46*%
G04 Gerber Fmt 4.6, Leading zero omitted, Abs format (unit mm)*
G04 Created by KiCad (PCBNEW 8.0.3) date 2024-08-20 17:09:34*
%MOMM*%
%LPD*%
G01*
G04 APERTURE LIST*
%ADD10C,0.650000*%
%ADD11O,2.304000X1.204000*%
%ADD12O,2.004000X1.204000*%
%ADD13C,1.700000*%
%ADD14O,1.700000X1.700000*%
%ADD15R,1.700000X1.700000*%
G04 APERTURE END LIST*
D10*
X106295000Y-103990000D03*
X106295000Y-98210000D03*
D11*
X105795000Y-105420000D03*
X105795000Y-96780000D03*
D12*
X109975000Y-105420000D03*
X109975000Y-96780000D03*
D13*
X83015000Y-125415000D03*
D14*
X83015000Y-122875000D03*
X83015000Y-120335000D03*
X83015000Y-117795000D03*
X83015000Y-115255000D03*
X83015000Y-112715000D03*
D13*
X70470000Y-132970000D03*
D14*
X70470000Y-135510000D03*
X70470000Y-138050000D03*
X70470000Y-140590000D03*
X70470000Y-143130000D03*
X70470000Y-145670000D03*
D13*
X106500000Y-114410000D03*
D15*
X106500000Y-111870000D03*
D13*
X57900000Y-132970000D03*
D14*
X57900000Y-135510000D03*
X57900000Y-138050000D03*
X57900000Y-140590000D03*
X57900000Y-143130000D03*
X57900000Y-145670000D03*
D13*
X101300000Y-114375000D03*
D14*
X101300000Y-111835000D03*
X101300000Y-109295000D03*
D13*
X83080000Y-132980000D03*
D14*
X83080000Y-135520000D03*
X83080000Y-138060000D03*
X83080000Y-140600000D03*
X83080000Y-143140000D03*
D13*
X57910000Y-112740000D03*
D14*
X57910000Y-115280000D03*
X57910000Y-117820000D03*
X57910000Y-120360000D03*
X57910000Y-122900000D03*
X57910000Y-125440000D03*
D13*
X70470000Y-112727500D03*
D14*
X70470000Y-115267500D03*
X70470000Y-117807500D03*
X70470000Y-120347500D03*
X70470000Y-122887500D03*
X70470000Y-125427500D03*
D13*
X96140000Y-132975000D03*
D14*
X98680000Y-132975000D03*
X101220000Y-132975000D03*
X103760000Y-132975000D03*
X106300000Y-132975000D03*
X108840000Y-132975000D03*
D13*
X108850000Y-119400000D03*
D15*
X106310000Y-119400000D03*
D14*
X103770000Y-119400000D03*
X101230000Y-119400000D03*
M02*
