G04 #@! TF.GenerationSoftware,KiCad,Pcbnew,8.0.3*
G04 #@! TF.CreationDate,2024-08-20T17:09:34+02:00*
G04 #@! TF.ProjectId,MDBT50Q-breakout,4d444254-3530-4512-9d62-7265616b6f75,rev?*
G04 #@! TF.SameCoordinates,Original*
G04 #@! TF.FileFunction,Legend,Bot*
G04 #@! TF.FilePolarity,Positive*
%FSLAX46Y46*%
G04 Gerber Fmt 4.6, Leading zero omitted, Abs format (unit mm)*
G04 Created by KiCad (PCBNEW 8.0.3) date 2024-08-20 17:09:34*
%MOMM*%
%LPD*%
G01*
G04 APERTURE LIST*
%ADD10C,0.100000*%
%ADD11C,0.650000*%
%ADD12O,2.304000X1.204000*%
%ADD13O,2.004000X1.204000*%
%ADD14C,1.700000*%
%ADD15O,1.700000X1.700000*%
%ADD16R,1.700000X1.700000*%
G04 APERTURE END LIST*
D10*
X109970401Y-144862419D02*
X109970401Y-145576704D01*
X109970401Y-145576704D02*
X110018020Y-145719561D01*
X110018020Y-145719561D02*
X110113258Y-145814800D01*
X110113258Y-145814800D02*
X110256115Y-145862419D01*
X110256115Y-145862419D02*
X110351353Y-145862419D01*
X109018020Y-145862419D02*
X109494210Y-145862419D01*
X109494210Y-145862419D02*
X109494210Y-144862419D01*
X108113258Y-145767180D02*
X108160877Y-145814800D01*
X108160877Y-145814800D02*
X108303734Y-145862419D01*
X108303734Y-145862419D02*
X108398972Y-145862419D01*
X108398972Y-145862419D02*
X108541829Y-145814800D01*
X108541829Y-145814800D02*
X108637067Y-145719561D01*
X108637067Y-145719561D02*
X108684686Y-145624323D01*
X108684686Y-145624323D02*
X108732305Y-145433847D01*
X108732305Y-145433847D02*
X108732305Y-145290990D01*
X108732305Y-145290990D02*
X108684686Y-145100514D01*
X108684686Y-145100514D02*
X108637067Y-145005276D01*
X108637067Y-145005276D02*
X108541829Y-144910038D01*
X108541829Y-144910038D02*
X108398972Y-144862419D01*
X108398972Y-144862419D02*
X108303734Y-144862419D01*
X108303734Y-144862419D02*
X108160877Y-144910038D01*
X108160877Y-144910038D02*
X108113258Y-144957657D01*
X107398972Y-144862419D02*
X107398972Y-145576704D01*
X107398972Y-145576704D02*
X107446591Y-145719561D01*
X107446591Y-145719561D02*
X107541829Y-145814800D01*
X107541829Y-145814800D02*
X107684686Y-145862419D01*
X107684686Y-145862419D02*
X107779924Y-145862419D01*
X106446591Y-145862419D02*
X106922781Y-145862419D01*
X106922781Y-145862419D02*
X106922781Y-144862419D01*
X105541829Y-145767180D02*
X105589448Y-145814800D01*
X105589448Y-145814800D02*
X105732305Y-145862419D01*
X105732305Y-145862419D02*
X105827543Y-145862419D01*
X105827543Y-145862419D02*
X105970400Y-145814800D01*
X105970400Y-145814800D02*
X106065638Y-145719561D01*
X106065638Y-145719561D02*
X106113257Y-145624323D01*
X106113257Y-145624323D02*
X106160876Y-145433847D01*
X106160876Y-145433847D02*
X106160876Y-145290990D01*
X106160876Y-145290990D02*
X106113257Y-145100514D01*
X106113257Y-145100514D02*
X106065638Y-145005276D01*
X106065638Y-145005276D02*
X105970400Y-144910038D01*
X105970400Y-144910038D02*
X105827543Y-144862419D01*
X105827543Y-144862419D02*
X105732305Y-144862419D01*
X105732305Y-144862419D02*
X105589448Y-144910038D01*
X105589448Y-144910038D02*
X105541829Y-144957657D01*
X104827543Y-144862419D02*
X104827543Y-145576704D01*
X104827543Y-145576704D02*
X104875162Y-145719561D01*
X104875162Y-145719561D02*
X104970400Y-145814800D01*
X104970400Y-145814800D02*
X105113257Y-145862419D01*
X105113257Y-145862419D02*
X105208495Y-145862419D01*
X103875162Y-145862419D02*
X104351352Y-145862419D01*
X104351352Y-145862419D02*
X104351352Y-144862419D01*
X102970400Y-145767180D02*
X103018019Y-145814800D01*
X103018019Y-145814800D02*
X103160876Y-145862419D01*
X103160876Y-145862419D02*
X103256114Y-145862419D01*
X103256114Y-145862419D02*
X103398971Y-145814800D01*
X103398971Y-145814800D02*
X103494209Y-145719561D01*
X103494209Y-145719561D02*
X103541828Y-145624323D01*
X103541828Y-145624323D02*
X103589447Y-145433847D01*
X103589447Y-145433847D02*
X103589447Y-145290990D01*
X103589447Y-145290990D02*
X103541828Y-145100514D01*
X103541828Y-145100514D02*
X103494209Y-145005276D01*
X103494209Y-145005276D02*
X103398971Y-144910038D01*
X103398971Y-144910038D02*
X103256114Y-144862419D01*
X103256114Y-144862419D02*
X103160876Y-144862419D01*
X103160876Y-144862419D02*
X103018019Y-144910038D01*
X103018019Y-144910038D02*
X102970400Y-144957657D01*
X102256114Y-144862419D02*
X102256114Y-145576704D01*
X102256114Y-145576704D02*
X102303733Y-145719561D01*
X102303733Y-145719561D02*
X102398971Y-145814800D01*
X102398971Y-145814800D02*
X102541828Y-145862419D01*
X102541828Y-145862419D02*
X102637066Y-145862419D01*
X101303733Y-145862419D02*
X101779923Y-145862419D01*
X101779923Y-145862419D02*
X101779923Y-144862419D01*
X100398971Y-145767180D02*
X100446590Y-145814800D01*
X100446590Y-145814800D02*
X100589447Y-145862419D01*
X100589447Y-145862419D02*
X100684685Y-145862419D01*
X100684685Y-145862419D02*
X100827542Y-145814800D01*
X100827542Y-145814800D02*
X100922780Y-145719561D01*
X100922780Y-145719561D02*
X100970399Y-145624323D01*
X100970399Y-145624323D02*
X101018018Y-145433847D01*
X101018018Y-145433847D02*
X101018018Y-145290990D01*
X101018018Y-145290990D02*
X100970399Y-145100514D01*
X100970399Y-145100514D02*
X100922780Y-145005276D01*
X100922780Y-145005276D02*
X100827542Y-144910038D01*
X100827542Y-144910038D02*
X100684685Y-144862419D01*
X100684685Y-144862419D02*
X100589447Y-144862419D01*
X100589447Y-144862419D02*
X100446590Y-144910038D01*
X100446590Y-144910038D02*
X100398971Y-144957657D01*
%LPC*%
D11*
X106295000Y-103990000D03*
X106295000Y-98210000D03*
D12*
X105795000Y-105420000D03*
X105795000Y-96780000D03*
D13*
X109975000Y-105420000D03*
X109975000Y-96780000D03*
D14*
X83015000Y-125415000D03*
D15*
X83015000Y-122875000D03*
X83015000Y-120335000D03*
X83015000Y-117795000D03*
X83015000Y-115255000D03*
X83015000Y-112715000D03*
D14*
X70470000Y-132970000D03*
D15*
X70470000Y-135510000D03*
X70470000Y-138050000D03*
X70470000Y-140590000D03*
X70470000Y-143130000D03*
X70470000Y-145670000D03*
D14*
X106500000Y-114410000D03*
D16*
X106500000Y-111870000D03*
D14*
X57900000Y-132970000D03*
D15*
X57900000Y-135510000D03*
X57900000Y-138050000D03*
X57900000Y-140590000D03*
X57900000Y-143130000D03*
X57900000Y-145670000D03*
D14*
X101300000Y-114375000D03*
D15*
X101300000Y-111835000D03*
X101300000Y-109295000D03*
D14*
X83080000Y-132980000D03*
D15*
X83080000Y-135520000D03*
X83080000Y-138060000D03*
X83080000Y-140600000D03*
X83080000Y-143140000D03*
D14*
X57910000Y-112740000D03*
D15*
X57910000Y-115280000D03*
X57910000Y-117820000D03*
X57910000Y-120360000D03*
X57910000Y-122900000D03*
X57910000Y-125440000D03*
D14*
X70470000Y-112727500D03*
D15*
X70470000Y-115267500D03*
X70470000Y-117807500D03*
X70470000Y-120347500D03*
X70470000Y-122887500D03*
X70470000Y-125427500D03*
D14*
X96140000Y-132975000D03*
D15*
X98680000Y-132975000D03*
X101220000Y-132975000D03*
X103760000Y-132975000D03*
X106300000Y-132975000D03*
X108840000Y-132975000D03*
D14*
X108850000Y-119400000D03*
D16*
X106310000Y-119400000D03*
D15*
X103770000Y-119400000D03*
X101230000Y-119400000D03*
%LPD*%
M02*
