G04 #@! TF.GenerationSoftware,KiCad,Pcbnew,8.0.3*
G04 #@! TF.CreationDate,2024-08-20T17:09:34+02:00*
G04 #@! TF.ProjectId,MDBT50Q-breakout,4d444254-3530-4512-9d62-7265616b6f75,rev?*
G04 #@! TF.SameCoordinates,Original*
G04 #@! TF.FileFunction,Copper,L2,Bot*
G04 #@! TF.FilePolarity,Positive*
%FSLAX46Y46*%
G04 Gerber Fmt 4.6, Leading zero omitted, Abs format (unit mm)*
G04 Created by KiCad (PCBNEW 8.0.3) date 2024-08-20 17:09:34*
%MOMM*%
%LPD*%
G01*
G04 APERTURE LIST*
G04 #@! TA.AperFunction,ComponentPad*
%ADD10O,2.100000X1.000000*%
G04 #@! TD*
G04 #@! TA.AperFunction,ComponentPad*
%ADD11O,1.800000X1.000000*%
G04 #@! TD*
G04 #@! TA.AperFunction,ComponentPad*
%ADD12C,1.700000*%
G04 #@! TD*
G04 #@! TA.AperFunction,ComponentPad*
%ADD13O,1.700000X1.700000*%
G04 #@! TD*
G04 #@! TA.AperFunction,ComponentPad*
%ADD14R,1.700000X1.700000*%
G04 #@! TD*
G04 #@! TA.AperFunction,ViaPad*
%ADD15C,0.600000*%
G04 #@! TD*
G04 #@! TA.AperFunction,ViaPad*
%ADD16C,0.350000*%
G04 #@! TD*
G04 #@! TA.AperFunction,Conductor*
%ADD17C,0.200000*%
G04 #@! TD*
G04 #@! TA.AperFunction,Conductor*
%ADD18C,0.400000*%
G04 #@! TD*
G04 #@! TA.AperFunction,Conductor*
%ADD19C,0.300000*%
G04 #@! TD*
G04 APERTURE END LIST*
D10*
X105795000Y-105420000D03*
X105795000Y-96780000D03*
D11*
X109975000Y-105420000D03*
X109975000Y-96780000D03*
D12*
X83015000Y-125415000D03*
D13*
X83015000Y-122875000D03*
X83015000Y-120335000D03*
X83015000Y-117795000D03*
X83015000Y-115255000D03*
X83015000Y-112715000D03*
D12*
X70470000Y-132970000D03*
D13*
X70470000Y-135510000D03*
X70470000Y-138050000D03*
X70470000Y-140590000D03*
X70470000Y-143130000D03*
X70470000Y-145670000D03*
D12*
X106500000Y-114410000D03*
D14*
X106500000Y-111870000D03*
D12*
X57900000Y-132970000D03*
D13*
X57900000Y-135510000D03*
X57900000Y-138050000D03*
X57900000Y-140590000D03*
X57900000Y-143130000D03*
X57900000Y-145670000D03*
D12*
X101300000Y-114375000D03*
D13*
X101300000Y-111835000D03*
X101300000Y-109295000D03*
D12*
X83080000Y-132980000D03*
D13*
X83080000Y-135520000D03*
X83080000Y-138060000D03*
X83080000Y-140600000D03*
X83080000Y-143140000D03*
D12*
X57910000Y-112740000D03*
D13*
X57910000Y-115280000D03*
X57910000Y-117820000D03*
X57910000Y-120360000D03*
X57910000Y-122900000D03*
X57910000Y-125440000D03*
D12*
X70470000Y-112727500D03*
D13*
X70470000Y-115267500D03*
X70470000Y-117807500D03*
X70470000Y-120347500D03*
X70470000Y-122887500D03*
X70470000Y-125427500D03*
D12*
X96140000Y-132975000D03*
D13*
X98680000Y-132975000D03*
X101220000Y-132975000D03*
X103760000Y-132975000D03*
X106300000Y-132975000D03*
X108840000Y-132975000D03*
D12*
X108850000Y-119400000D03*
D14*
X106310000Y-119400000D03*
D13*
X103770000Y-119400000D03*
X101230000Y-119400000D03*
D15*
X55770000Y-110910000D03*
X60890000Y-111380000D03*
X59050000Y-130320000D03*
X60170000Y-141760000D03*
X99010000Y-117510000D03*
X59750000Y-139230000D03*
X86090000Y-141540000D03*
X85270000Y-136500000D03*
X90810000Y-114840000D03*
X85200000Y-116530000D03*
X60360000Y-119100000D03*
X78170000Y-134200000D03*
X78350000Y-131480000D03*
X67230000Y-121970000D03*
X88610000Y-137190000D03*
X82930000Y-98720000D03*
X76910000Y-93140000D03*
X60430000Y-113800000D03*
X71490000Y-106390000D03*
X80510000Y-96640000D03*
X76950000Y-123180000D03*
X99960000Y-132020000D03*
X87710000Y-130690000D03*
X76780000Y-113080000D03*
X78620000Y-112870000D03*
X78160000Y-126010000D03*
X68810000Y-125270000D03*
X76900000Y-119940000D03*
X76930000Y-117770000D03*
X76960000Y-115460000D03*
X94040000Y-123860000D03*
X95660000Y-126340000D03*
X97730000Y-125310000D03*
X78030000Y-142550000D03*
X78420000Y-137930000D03*
X65340000Y-133100000D03*
X65510000Y-126360000D03*
X94200000Y-128040000D03*
X93980000Y-121690000D03*
X63940000Y-94620000D03*
X66140000Y-103900000D03*
X56590000Y-97780000D03*
X83630000Y-128850000D03*
X82530000Y-109560000D03*
X82090000Y-108180000D03*
X62550000Y-107100000D03*
D16*
X71730000Y-111100000D03*
X71716751Y-109825000D03*
D15*
X103830000Y-104780000D03*
X104050000Y-97950000D03*
X91270000Y-110360000D03*
X80570000Y-104510000D03*
X69530000Y-94690000D03*
D16*
X72180000Y-108780000D03*
X72525000Y-109430000D03*
X74660000Y-111250000D03*
X74030000Y-109580000D03*
X65880000Y-111450000D03*
X67030000Y-109730000D03*
X66493625Y-111450000D03*
X67043412Y-111465421D03*
X68153625Y-111460000D03*
X67593386Y-111459865D03*
X68703628Y-111450000D03*
X68689994Y-109730000D03*
X68130000Y-109730000D03*
X69239997Y-109730000D03*
X67579997Y-109730000D03*
X69790000Y-109730000D03*
X67689997Y-99000000D03*
X68240000Y-99000000D03*
X68799994Y-99000000D03*
X69349997Y-99000000D03*
X69900000Y-99000000D03*
D15*
X62330000Y-116450000D03*
X62190000Y-121660000D03*
X55070000Y-114400000D03*
D16*
X77670000Y-97420000D03*
X77670000Y-96620000D03*
X77670000Y-95800000D03*
X77670000Y-95010000D03*
X77670000Y-94200000D03*
X75140000Y-98020000D03*
X75090000Y-97020000D03*
X74430000Y-96220000D03*
X73850000Y-95125000D03*
X74760000Y-94610000D03*
X75360000Y-93810000D03*
X78730000Y-95340000D03*
X79530000Y-95320000D03*
D15*
X67070000Y-127520000D03*
D16*
X76720000Y-101940000D03*
D15*
X62960000Y-133960000D03*
X68830000Y-128380000D03*
X80750000Y-131350000D03*
X92540000Y-125800000D03*
X92210000Y-125071233D03*
X87260000Y-147620000D03*
X90770000Y-144370000D03*
X95870000Y-122750000D03*
D16*
X93999991Y-117325000D03*
X83725000Y-95800000D03*
X95650000Y-117325000D03*
X86975000Y-94625000D03*
X86150000Y-97000000D03*
X92899985Y-117325000D03*
X93449988Y-117325000D03*
X83725000Y-96600000D03*
X95099997Y-117325000D03*
X83725000Y-95000000D03*
X103350000Y-130125000D03*
X94549994Y-117325000D03*
X102800000Y-130125000D03*
X86150000Y-95400000D03*
X83725000Y-94200000D03*
D15*
X87560000Y-136240000D03*
D16*
X81540000Y-101890000D03*
D15*
X86050000Y-128610000D03*
D16*
X80340000Y-99620000D03*
X82720000Y-99610000D03*
X81930000Y-99610000D03*
D15*
X86040000Y-137460000D03*
D16*
X86150000Y-92200000D03*
D15*
X104450000Y-93200000D03*
X86350000Y-103425000D03*
X83175000Y-90400000D03*
X76925000Y-91425000D03*
X86375000Y-102425000D03*
D16*
X86275000Y-90325000D03*
D15*
X76925000Y-90425000D03*
X74000000Y-90400000D03*
X103325000Y-101050000D03*
X85525000Y-102550000D03*
X106600000Y-90875000D03*
X74875000Y-90400000D03*
X75900000Y-102600000D03*
X74875000Y-91400000D03*
X84450000Y-104500000D03*
X103225000Y-97450000D03*
X74675000Y-102575000D03*
D16*
X86800000Y-90325000D03*
D15*
X86675000Y-101200000D03*
X74000000Y-91400000D03*
X74675000Y-101200000D03*
X100750000Y-92200000D03*
X98175000Y-94950000D03*
D16*
X83725000Y-92600000D03*
X79930000Y-101890000D03*
X79530000Y-99620000D03*
X81130000Y-99610000D03*
X79050000Y-102740000D03*
X81051281Y-102763033D03*
X86150000Y-98600000D03*
X86150000Y-97550000D03*
X83725000Y-93400000D03*
X83725000Y-98200000D03*
X86150000Y-93800000D03*
X78730000Y-99620000D03*
X83725000Y-91800000D03*
D15*
X96250000Y-92325000D03*
D16*
X83725000Y-97400000D03*
D15*
X98925000Y-104775000D03*
X99025000Y-100575000D03*
D17*
X62770000Y-121080000D02*
X62770000Y-118831471D01*
X73656860Y-98020000D02*
X75140000Y-98020000D01*
X62770000Y-118831471D02*
X63250000Y-118351471D01*
X63250000Y-118351471D02*
X63250000Y-112730000D01*
X62190000Y-121660000D02*
X62770000Y-121080000D01*
X72600000Y-99076860D02*
X73656860Y-98020000D01*
X63250000Y-112730000D02*
X72600000Y-103380000D01*
X72600000Y-103380000D02*
X72600000Y-99076860D01*
X62410000Y-116370000D02*
X62410000Y-114418529D01*
X71990000Y-99121174D02*
X73611174Y-97500000D01*
X62410000Y-114418529D02*
X62850000Y-113978529D01*
X71990000Y-103402743D02*
X71990000Y-99121174D01*
X62850000Y-112542743D02*
X71990000Y-103402743D01*
X62850000Y-113978529D02*
X62850000Y-112542743D01*
X62330000Y-116450000D02*
X62410000Y-116370000D01*
X77590000Y-97500000D02*
X77670000Y-97420000D01*
X73611174Y-97500000D02*
X77590000Y-97500000D01*
X62330000Y-116450000D02*
X62490000Y-116290000D01*
X75090000Y-97020000D02*
X75010000Y-97100000D01*
X73445488Y-97100000D02*
X71590000Y-98955488D01*
X71590000Y-98955488D02*
X71590000Y-103237057D01*
X75010000Y-97100000D02*
X73445488Y-97100000D01*
X61030000Y-125490000D02*
X57960000Y-125490000D01*
X71590000Y-103237057D02*
X61397057Y-113430000D01*
X61397057Y-113430000D02*
X61397057Y-125122943D01*
X61397057Y-125122943D02*
X61030000Y-125490000D01*
X57960000Y-125490000D02*
X57910000Y-125440000D01*
X79050000Y-102740000D02*
X79050000Y-104991372D01*
X69160000Y-128980000D02*
X58910000Y-128980000D01*
X79050000Y-104991372D02*
X80220000Y-106161372D01*
X56260000Y-131630000D02*
X56260000Y-132870000D01*
X80220000Y-106161372D02*
X80220000Y-127348628D01*
X80220000Y-127348628D02*
X78938628Y-128630000D01*
X78938628Y-128630000D02*
X69510000Y-128630000D01*
X69510000Y-128630000D02*
X69160000Y-128980000D01*
X56360000Y-132970000D02*
X57900000Y-132970000D01*
X58910000Y-128980000D02*
X56260000Y-131630000D01*
X56260000Y-132870000D02*
X56360000Y-132970000D01*
X78730000Y-95340000D02*
X78730000Y-97860000D01*
X78730000Y-97860000D02*
X78460000Y-98130000D01*
X78460000Y-98130000D02*
X78120000Y-98130000D01*
X78120000Y-98130000D02*
X76760000Y-99490000D01*
X95660000Y-126340000D02*
X95240000Y-125920000D01*
X95240000Y-125920000D02*
X95240000Y-125060000D01*
X95240000Y-125060000D02*
X94040000Y-123860000D01*
X97375000Y-119975000D02*
X97375000Y-124955000D01*
X97375000Y-124955000D02*
X97730000Y-125310000D01*
X71716751Y-111086751D02*
X71716751Y-109825000D01*
X71730000Y-111100000D02*
X71716751Y-111086751D01*
X68153625Y-111094623D02*
X68153625Y-111460000D01*
X68703628Y-111450000D02*
X69790000Y-110363628D01*
X69790000Y-110363628D02*
X69790000Y-109730000D01*
X68153625Y-111094623D02*
X69239997Y-110008251D01*
X69239997Y-110008251D02*
X69239997Y-109730000D01*
X67593386Y-111459865D02*
X67593386Y-111089176D01*
X67593386Y-111089176D02*
X68689994Y-109992568D01*
X68689994Y-109992568D02*
X68689994Y-109730000D01*
X67043412Y-111465421D02*
X67043412Y-111073464D01*
X67043412Y-111073464D02*
X68130000Y-109986876D01*
X68130000Y-109986876D02*
X68130000Y-109730000D01*
X66493625Y-111450000D02*
X66493625Y-111057565D01*
X66493625Y-111057565D02*
X67579997Y-109971193D01*
X67579997Y-109971193D02*
X67579997Y-109730000D01*
X65880000Y-110880000D02*
X67030000Y-109730000D01*
X65880000Y-111450000D02*
X65880000Y-110880000D01*
X72090000Y-108780000D02*
X67870000Y-113000000D01*
X67870000Y-121770000D02*
X68987500Y-122887500D01*
X72180000Y-108780000D02*
X72090000Y-108780000D01*
X67870000Y-113000000D02*
X67870000Y-121770000D01*
X68987500Y-122887500D02*
X70470000Y-122887500D01*
X83725000Y-91800000D02*
X83855000Y-91670000D01*
X95595000Y-91670000D02*
X96250000Y-92325000D01*
X83855000Y-91670000D02*
X95595000Y-91670000D01*
X87430000Y-94120000D02*
X86790000Y-94120000D01*
X86635000Y-94275000D02*
X85800000Y-94275000D01*
X86790000Y-94120000D02*
X86635000Y-94275000D01*
X85800000Y-94275000D02*
X85725000Y-94200000D01*
X87430000Y-94120000D02*
X87510000Y-94200000D01*
X87510000Y-94200000D02*
X94312256Y-94200000D01*
X94312256Y-94200000D02*
X96175000Y-96062744D01*
X86150000Y-93800000D02*
X86280000Y-93670000D01*
X96575000Y-128119314D02*
X92960000Y-131734314D01*
X88200000Y-93800000D02*
X94477942Y-93800000D01*
X86280000Y-93670000D02*
X88070000Y-93670000D01*
X88070000Y-93670000D02*
X88200000Y-93800000D01*
X73960000Y-140190000D02*
X71820000Y-138050000D01*
X94477942Y-93800000D02*
X96575000Y-95897058D01*
X96575000Y-95897058D02*
X96575000Y-128119314D01*
X92960000Y-131734314D02*
X92960000Y-145050000D01*
X92020000Y-145990000D02*
X80235686Y-145990000D01*
X79620000Y-140834314D02*
X78975686Y-140190000D01*
X92960000Y-145050000D02*
X92020000Y-145990000D01*
X80235686Y-145990000D02*
X79620000Y-145374314D01*
X79620000Y-145374314D02*
X79620000Y-140834314D01*
X78975686Y-140190000D02*
X73960000Y-140190000D01*
X71820000Y-138050000D02*
X70470000Y-138050000D01*
X83725000Y-93400000D02*
X83925000Y-93200000D01*
X92450000Y-146390000D02*
X80070000Y-146390000D01*
X83925000Y-93200000D02*
X94443628Y-93200000D01*
X93360000Y-131900000D02*
X93360000Y-145480000D01*
X94443628Y-93200000D02*
X96975000Y-95731372D01*
X96975000Y-95731372D02*
X96975000Y-128285000D01*
X78810000Y-140590000D02*
X70470000Y-140590000D01*
X93360000Y-145480000D02*
X92450000Y-146390000D01*
X79220000Y-141000000D02*
X78810000Y-140590000D01*
X80070000Y-146390000D02*
X79220000Y-145540000D01*
X96975000Y-128285000D02*
X93360000Y-131900000D01*
X79220000Y-145540000D02*
X79220000Y-141000000D01*
X102800000Y-130125000D02*
X101625000Y-130125000D01*
X101625000Y-130125000D02*
X101220000Y-130530000D01*
X101220000Y-130530000D02*
X101220000Y-132975000D01*
X95870000Y-122750000D02*
X96175000Y-122445000D01*
X96175000Y-122445000D02*
X96175000Y-97200000D01*
X69530000Y-94700000D02*
X69560000Y-94670000D01*
X69530000Y-94690000D02*
X69530000Y-94700000D01*
X69540000Y-94690000D02*
X69530000Y-94690000D01*
X71980000Y-92250000D02*
X69540000Y-94690000D01*
X77750000Y-92250000D02*
X73780000Y-92250000D01*
X73780000Y-92250000D02*
X71980000Y-92250000D01*
X72525000Y-109430000D02*
X72525000Y-110985000D01*
X72525000Y-110985000D02*
X72520000Y-110990000D01*
X72342500Y-117807500D02*
X70470000Y-117807500D01*
X72520000Y-110990000D02*
X72520000Y-117630000D01*
X72520000Y-117630000D02*
X72342500Y-117807500D01*
X74030000Y-109580000D02*
X74030000Y-110620000D01*
X74030000Y-110620000D02*
X74660000Y-111250000D01*
X69790000Y-109730000D02*
X69760000Y-109730000D01*
X69760000Y-109730000D02*
X69714997Y-109775003D01*
X69826372Y-109693628D02*
X69790000Y-109730000D01*
X74760000Y-94610000D02*
X74400000Y-94250000D01*
X72901372Y-94250000D02*
X68799994Y-98351378D01*
X68799994Y-98351378D02*
X68799994Y-99000000D01*
X74400000Y-94250000D02*
X72901372Y-94250000D01*
X75360000Y-93810000D02*
X75000000Y-93450000D01*
X75000000Y-93450000D02*
X72570000Y-93450000D01*
X72570000Y-93450000D02*
X67689997Y-98330003D01*
X67689997Y-98330003D02*
X67689997Y-99000000D01*
X77670000Y-94200000D02*
X77585000Y-94285000D01*
X77585000Y-94285000D02*
X75115000Y-94285000D01*
X75115000Y-94285000D02*
X74680000Y-93850000D01*
X74680000Y-93850000D02*
X72735686Y-93850000D01*
X72735686Y-93850000D02*
X68240000Y-98345686D01*
X68240000Y-98345686D02*
X68240000Y-99000000D01*
X77670000Y-95010000D02*
X77595000Y-94935000D01*
X69380000Y-98969997D02*
X69349997Y-99000000D01*
X77595000Y-94935000D02*
X75106752Y-94935000D01*
X74563248Y-95085000D02*
X74128248Y-94650000D01*
X75106752Y-94935000D02*
X74956752Y-95085000D01*
X74956752Y-95085000D02*
X74563248Y-95085000D01*
X74128248Y-94650000D02*
X73067058Y-94650000D01*
X73067058Y-94650000D02*
X69380000Y-98337058D01*
X69380000Y-98337058D02*
X69380000Y-98969997D01*
X69936372Y-98346372D02*
X69936372Y-98963628D01*
X69936372Y-98963628D02*
X69900000Y-99000000D01*
X75556752Y-96545000D02*
X74865000Y-96545000D01*
X73970000Y-96620000D02*
X73359802Y-96620000D01*
X70955685Y-103305686D02*
X61521371Y-112740000D01*
X74050000Y-96700000D02*
X73970000Y-96620000D01*
X77670000Y-96620000D02*
X75631752Y-96620000D01*
X74710000Y-96700000D02*
X74050000Y-96700000D01*
X75631752Y-96620000D02*
X75556752Y-96545000D01*
X73359802Y-96620000D02*
X71190000Y-98789802D01*
X71190000Y-103071372D02*
X70955685Y-103305686D01*
X74865000Y-96545000D02*
X74710000Y-96700000D01*
X71190000Y-98789802D02*
X71190000Y-103071372D01*
X61521371Y-112740000D02*
X57910000Y-112740000D01*
X55070000Y-114430000D02*
X54980000Y-114340000D01*
X55070000Y-114400000D02*
X55070000Y-114430000D01*
X55040000Y-114400000D02*
X55070000Y-114400000D01*
X54850000Y-114210000D02*
X55040000Y-114400000D01*
X54850000Y-110520000D02*
X54850000Y-114210000D01*
X64090000Y-109605686D02*
X63825686Y-109870000D01*
X63825686Y-109870000D02*
X55960000Y-109870000D01*
X54850000Y-110020000D02*
X54850000Y-110520000D01*
X55960000Y-109870000D02*
X55000000Y-109870000D01*
X55000000Y-109870000D02*
X54850000Y-110020000D01*
X70390000Y-98460000D02*
X70390000Y-102740000D01*
X63660000Y-109470000D02*
X54830000Y-109470000D01*
X54450000Y-114990000D02*
X54740000Y-115280000D01*
X73288430Y-95560000D02*
X70389215Y-98459215D01*
X77670000Y-95800000D02*
X77615000Y-95745000D01*
X73490000Y-95560000D02*
X73288430Y-95560000D01*
X70389215Y-98459215D02*
X70390000Y-98460000D01*
X77615000Y-95745000D02*
X73675000Y-95745000D01*
X70390000Y-102740000D02*
X63660000Y-109470000D01*
X54830000Y-109470000D02*
X54450000Y-109850000D01*
X73675000Y-95745000D02*
X73490000Y-95560000D01*
X54450000Y-109850000D02*
X54450000Y-114990000D01*
X54740000Y-115280000D02*
X57910000Y-115280000D01*
X69822843Y-103872843D02*
X64090000Y-109605686D01*
X70790000Y-98624116D02*
X70790000Y-101120000D01*
X70790000Y-101120000D02*
X70790000Y-102905686D01*
X71377058Y-98037058D02*
X70790000Y-98624116D01*
X70790000Y-102905686D02*
X69822843Y-103872843D01*
X74430000Y-96220000D02*
X73194116Y-96220000D01*
X73194116Y-96220000D02*
X71377058Y-98037058D01*
X73232744Y-95050000D02*
X69936372Y-98346372D01*
X73775000Y-95050000D02*
X73232744Y-95050000D01*
X73850000Y-95125000D02*
X73775000Y-95050000D01*
X76720000Y-101940000D02*
X76720000Y-102628529D01*
X79420000Y-112370000D02*
X79420000Y-126260000D01*
X76148529Y-103200000D02*
X75050000Y-103200000D01*
X79420000Y-126260000D02*
X78510000Y-127170000D01*
X75050000Y-103200000D02*
X74780000Y-103470000D01*
X74780000Y-103470000D02*
X74770000Y-103470000D01*
X74770000Y-103470000D02*
X74750000Y-103490000D01*
X74750000Y-110310000D02*
X75620000Y-111180000D01*
X74750000Y-103490000D02*
X74750000Y-110310000D01*
X75620000Y-111180000D02*
X78230000Y-111180000D01*
X76720000Y-102628529D02*
X76148529Y-103200000D01*
X78230000Y-111180000D02*
X79420000Y-112370000D01*
X78510000Y-127170000D02*
X67400000Y-127170000D01*
X67400000Y-127170000D02*
X67070000Y-127500000D01*
X67070000Y-127500000D02*
X67070000Y-127520000D01*
X79530000Y-95320000D02*
X79520000Y-95330000D01*
X78300000Y-98530000D02*
X77650000Y-99180000D01*
X77840000Y-112470000D02*
X77840000Y-124790000D01*
X79520000Y-98120000D02*
X79110000Y-98530000D01*
X77650000Y-99180000D02*
X77650000Y-99630000D01*
X73410000Y-110750000D02*
X74850000Y-112190000D01*
X79110000Y-98530000D02*
X78300000Y-98530000D01*
X79520000Y-95330000D02*
X79520000Y-98120000D01*
X77650000Y-99630000D02*
X77390000Y-99890000D01*
X77390000Y-99890000D02*
X74210000Y-99890000D01*
X73410000Y-100690000D02*
X73410000Y-110750000D01*
X77560000Y-112190000D02*
X77840000Y-112470000D01*
X77202500Y-125427500D02*
X70470000Y-125427500D01*
X74210000Y-99890000D02*
X73410000Y-100690000D01*
X74850000Y-112190000D02*
X77560000Y-112190000D01*
X77840000Y-124790000D02*
X77202500Y-125427500D01*
X92210000Y-124590000D02*
X92010000Y-124390000D01*
X92010000Y-124390000D02*
X92010000Y-116267941D01*
X92210000Y-125071233D02*
X92210000Y-124590000D01*
X92010000Y-116267941D02*
X92193970Y-116083971D01*
X92193970Y-116083971D02*
X92193971Y-116083971D01*
X92850000Y-97100000D02*
X86825000Y-97100000D01*
X86375000Y-97550000D02*
X86150000Y-97550000D01*
X92410000Y-123960000D02*
X92410000Y-116433627D01*
X92410000Y-116433627D02*
X93375000Y-115468627D01*
X92880000Y-125460000D02*
X92880000Y-124430000D01*
X92540000Y-125800000D02*
X92880000Y-125460000D01*
X93375000Y-115468627D02*
X93375000Y-97625000D01*
X92880000Y-124430000D02*
X92410000Y-123960000D01*
X93375000Y-97625000D02*
X92850000Y-97100000D01*
X86825000Y-97100000D02*
X86375000Y-97550000D01*
X79820000Y-127170000D02*
X79820000Y-106327058D01*
X79820000Y-106327058D02*
X78575000Y-105082058D01*
X68830000Y-128380000D02*
X68980000Y-128230000D01*
X68980000Y-128230000D02*
X78760000Y-128230000D01*
X78760000Y-128230000D02*
X79820000Y-127170000D01*
X78575000Y-105082058D02*
X78575000Y-99775000D01*
X78575000Y-99775000D02*
X78730000Y-99620000D01*
X67050000Y-127520000D02*
X67080000Y-127490000D01*
X67070000Y-127520000D02*
X67050000Y-127520000D01*
X79130000Y-132970000D02*
X70470000Y-132970000D01*
X80750000Y-131350000D02*
X79130000Y-132970000D01*
X86050000Y-128600000D02*
X87450000Y-127200000D01*
X87450000Y-127200000D02*
X87450000Y-113161271D01*
X87450000Y-113161271D02*
X83805736Y-109517007D01*
X83805736Y-109517007D02*
X83805736Y-108385637D01*
X86050000Y-128610000D02*
X86050000Y-128600000D01*
X81510000Y-104000000D02*
X80405000Y-102895000D01*
X83805736Y-108385637D02*
X81510000Y-106089901D01*
X81510000Y-106089901D02*
X81510000Y-104000000D01*
X80405000Y-102895000D02*
X80405000Y-99685000D01*
X80405000Y-99685000D02*
X80340000Y-99620000D01*
X81065000Y-102105000D02*
X81065000Y-99675000D01*
X88250000Y-113534315D02*
X88250050Y-113534265D01*
X62960000Y-133960000D02*
X62960000Y-131790000D01*
X62960000Y-131790000D02*
X64170000Y-130580000D01*
X88250050Y-112829950D02*
X84936422Y-109516322D01*
X84605736Y-109185635D02*
X84605736Y-108054265D01*
X88250000Y-128840000D02*
X88250000Y-113534315D01*
X82544315Y-105992843D02*
X82310000Y-105758528D01*
X82310000Y-103350000D02*
X81065000Y-102105000D01*
X64170000Y-130580000D02*
X69940000Y-130580000D01*
X82310000Y-105758529D02*
X82544315Y-105992843D01*
X69940000Y-130580000D02*
X70290000Y-130230000D01*
X70290000Y-130230000D02*
X86860000Y-130230000D01*
X86860000Y-130230000D02*
X88250000Y-128840000D01*
X88250050Y-113534265D02*
X88250050Y-112829950D01*
X81065000Y-99675000D02*
X81130000Y-99610000D01*
X84936422Y-109516322D02*
X84605736Y-109185635D01*
X84605736Y-108054265D02*
X82310000Y-105758529D01*
X82310000Y-105758528D02*
X82310000Y-103350000D01*
X87260000Y-147620000D02*
X58350000Y-147620000D01*
X58350000Y-147620000D02*
X57670000Y-146940000D01*
X57670000Y-146940000D02*
X57670000Y-145900000D01*
X57670000Y-145900000D02*
X57900000Y-145670000D01*
X84205736Y-109351321D02*
X87850050Y-112995635D01*
X87850050Y-112995635D02*
X87850050Y-113120000D01*
X87850050Y-113120000D02*
X87850000Y-113120050D01*
X81910000Y-103515686D02*
X81910000Y-105924215D01*
X81910000Y-105924215D02*
X84205736Y-108219951D01*
X63440000Y-130180000D02*
X61460000Y-132160000D01*
X84205736Y-108219951D02*
X84205736Y-109351321D01*
X86694314Y-129830000D02*
X70007058Y-129830000D01*
X81051281Y-102763033D02*
X81157347Y-102763033D01*
X69657058Y-130180000D02*
X63440000Y-130180000D01*
X61460000Y-132160000D02*
X61460000Y-142480000D01*
X87850000Y-113120050D02*
X87850000Y-128674314D01*
X87850000Y-128674314D02*
X86694314Y-129830000D01*
X81157347Y-102763033D02*
X81910000Y-103515686D01*
X70007058Y-129830000D02*
X69657058Y-130180000D01*
X61460000Y-142480000D02*
X60810000Y-143130000D01*
X60810000Y-143130000D02*
X57900000Y-143130000D01*
X79930000Y-101890000D02*
X79930000Y-104740000D01*
X79930000Y-104740000D02*
X81020000Y-105830000D01*
X60280000Y-140590000D02*
X57900000Y-140590000D01*
X81020000Y-105830000D02*
X81020000Y-127680000D01*
X79270000Y-129430000D02*
X69841372Y-129430000D01*
X81020000Y-127680000D02*
X79270000Y-129430000D01*
X60820000Y-131980000D02*
X60820000Y-140050000D01*
X69841372Y-129430000D02*
X69491372Y-129780000D01*
X69491372Y-129780000D02*
X63020000Y-129780000D01*
X63020000Y-129780000D02*
X60820000Y-131980000D01*
X60820000Y-140050000D02*
X60280000Y-140590000D01*
X79530000Y-99620000D02*
X79455000Y-99695000D01*
X79104314Y-129030000D02*
X69675686Y-129030000D01*
X79455000Y-99695000D02*
X79455000Y-102086752D01*
X59410000Y-135510000D02*
X57900000Y-135510000D01*
X79530000Y-104905686D02*
X80620000Y-105995686D01*
X79455000Y-102086752D02*
X79530000Y-102161752D01*
X79530000Y-102161752D02*
X79530000Y-104905686D01*
X80620000Y-127514314D02*
X79104314Y-129030000D01*
X69675686Y-129030000D02*
X69325686Y-129380000D01*
X69325686Y-129380000D02*
X61510000Y-129380000D01*
X80620000Y-105995686D02*
X80620000Y-127514314D01*
X61510000Y-129380000D02*
X59710000Y-131180000D01*
X59710000Y-131180000D02*
X59710000Y-135210000D01*
X59710000Y-135210000D02*
X59410000Y-135510000D01*
X90700000Y-144370000D02*
X90750000Y-144320000D01*
X90770000Y-144370000D02*
X90700000Y-144370000D01*
X90770000Y-144300000D02*
X90770000Y-144370000D01*
X91610000Y-143460000D02*
X90770000Y-144300000D01*
X91610000Y-124810000D02*
X91610000Y-143460000D01*
X86150000Y-98600000D02*
X86456372Y-98600000D01*
X86456372Y-98600000D02*
X87156372Y-97900000D01*
X87156372Y-97900000D02*
X92250000Y-97900000D01*
X92250000Y-97900000D02*
X92575000Y-98225000D01*
X92575000Y-98225000D02*
X92575000Y-115125000D01*
X92575000Y-115125000D02*
X91610000Y-116090000D01*
X91610000Y-116090000D02*
X91610000Y-124810000D01*
X92975000Y-115302941D02*
X92193971Y-116083971D01*
X92193971Y-116083971D02*
X92126470Y-116151471D01*
X83725000Y-95800000D02*
X83825000Y-95900000D01*
X87915685Y-95900000D02*
X88015685Y-95800000D01*
X83825000Y-95900000D02*
X87915685Y-95900000D01*
X93634314Y-95800000D02*
X94575000Y-96740686D01*
X88015685Y-95800000D02*
X93634314Y-95800000D01*
X94124991Y-116415694D02*
X94124991Y-116425009D01*
X94575000Y-115965685D02*
X94124991Y-116415694D01*
X93999991Y-116550009D02*
X93999991Y-117325000D01*
X94124991Y-116425009D02*
X93999991Y-116550009D01*
X94575000Y-96740686D02*
X94575000Y-115965685D01*
X86975000Y-94625000D02*
X87000000Y-94600000D01*
X94146570Y-94600000D02*
X95775000Y-96228430D01*
X95775000Y-96228430D02*
X95775000Y-116740685D01*
X95650000Y-116865685D02*
X95650000Y-117325000D01*
X95775000Y-116740685D02*
X95650000Y-116865685D01*
X87000000Y-94600000D02*
X94146570Y-94600000D01*
X92899985Y-117325000D02*
X92899985Y-116509328D01*
X93775000Y-97075000D02*
X93400000Y-96700000D01*
X93400000Y-96700000D02*
X86450000Y-96700000D01*
X93775000Y-115634313D02*
X93775000Y-97075000D01*
X92899985Y-116509328D02*
X93775000Y-115634313D01*
X86450000Y-96700000D02*
X86150000Y-97000000D01*
X94175000Y-96906372D02*
X94175000Y-115799999D01*
X93568628Y-96300000D02*
X94175000Y-96906372D01*
X84025000Y-96300000D02*
X93568628Y-96300000D01*
X93449988Y-116525011D02*
X93449988Y-117325000D01*
X83725000Y-96600000D02*
X84025000Y-96300000D01*
X94175000Y-115799999D02*
X93449988Y-116525011D01*
X95375000Y-116575000D02*
X95099997Y-116850003D01*
X88375000Y-95000000D02*
X93980884Y-95000000D01*
X104800000Y-130125000D02*
X105990000Y-130125000D01*
X105990000Y-130125000D02*
X108840000Y-132975000D01*
X83725000Y-95000000D02*
X83800000Y-94925000D01*
X93980884Y-95000000D02*
X94252942Y-95272058D01*
X87450000Y-95000000D02*
X88375000Y-95000000D01*
X94252942Y-95272058D02*
X95375000Y-96394116D01*
X95375000Y-96394116D02*
X95375000Y-96700000D01*
X86603248Y-94925000D02*
X86778248Y-95100000D01*
X95099997Y-116850003D02*
X95099997Y-117325000D01*
X83800000Y-94925000D02*
X86603248Y-94925000D01*
X95375000Y-96700000D02*
X95375000Y-97575000D01*
X87350000Y-95100000D02*
X87450000Y-95000000D01*
X103350000Y-130125000D02*
X104800000Y-130125000D01*
X95375000Y-97600000D02*
X95375000Y-116575000D01*
X86778248Y-95100000D02*
X87350000Y-95100000D01*
X86150000Y-95400000D02*
X86250000Y-95500000D01*
X94549994Y-116834320D02*
X94549994Y-117325000D01*
X86250000Y-95500000D02*
X87750000Y-95500000D01*
X93800000Y-95400000D02*
X94975000Y-96575000D01*
X94975000Y-96575000D02*
X94975000Y-116409314D01*
X87850000Y-95400000D02*
X93800000Y-95400000D01*
X87750000Y-95500000D02*
X87850000Y-95400000D01*
X94975000Y-116409314D02*
X94549994Y-116834320D01*
X85800000Y-94275000D02*
X86650000Y-94275000D01*
X83725000Y-94200000D02*
X85725000Y-94200000D01*
X88650000Y-112664214D02*
X85655786Y-109670000D01*
X85336422Y-109350636D02*
X85023579Y-109037793D01*
X85336422Y-109350637D02*
X85336422Y-109350636D01*
X87560000Y-136240000D02*
X88650000Y-135150000D01*
X85023579Y-109037793D02*
X85023579Y-107906422D01*
X85023579Y-107906422D02*
X82710000Y-105592843D01*
X88650000Y-135150000D02*
X88650000Y-112664214D01*
X82710000Y-103060000D02*
X81540000Y-101890000D01*
X82710000Y-105592843D02*
X82710000Y-103060000D01*
X85655786Y-109670000D02*
X85336422Y-109350637D01*
X82720000Y-99610000D02*
X83510000Y-100400000D01*
X89010000Y-138060000D02*
X83080000Y-138060000D01*
X89450000Y-137620000D02*
X89010000Y-138060000D01*
X83510000Y-100400000D02*
X83510000Y-105261471D01*
X83510000Y-105261471D02*
X89450000Y-111201471D01*
X89450000Y-111201471D02*
X89450000Y-137620000D01*
X89050000Y-135598529D02*
X89050000Y-112498529D01*
X83110000Y-105427157D02*
X83110000Y-100790000D01*
X85736422Y-108053579D02*
X83110000Y-105427157D01*
X86040000Y-137460000D02*
X87188529Y-137460000D01*
X87188529Y-137460000D02*
X89050000Y-135598529D01*
X83110000Y-100790000D02*
X81930000Y-99610000D01*
X89050000Y-112498529D02*
X85736422Y-109184951D01*
X85736422Y-109184951D02*
X85736422Y-108053579D01*
X101720000Y-121450000D02*
X103770000Y-119400000D01*
X97775000Y-95400000D02*
X97775000Y-118325000D01*
X97775000Y-118325000D02*
X100900000Y-121450000D01*
X100900000Y-121450000D02*
X101720000Y-121450000D01*
X94575000Y-92200000D02*
X97775000Y-95400000D01*
X86150000Y-92200000D02*
X94575000Y-92200000D01*
D18*
X103875000Y-116975000D02*
X107900000Y-116975000D01*
X108850000Y-117925000D02*
X108850000Y-119400000D01*
X107900000Y-116975000D02*
X108850000Y-117925000D01*
X103300000Y-116400000D02*
X103875000Y-116975000D01*
X101300000Y-111835000D02*
X102735000Y-111835000D01*
X102735000Y-111835000D02*
X103300000Y-112400000D01*
X103300000Y-112400000D02*
X103300000Y-116400000D01*
D17*
X98175000Y-94950000D02*
X98175000Y-114850000D01*
X101230000Y-117905000D02*
X101230000Y-119400000D01*
X98175000Y-114850000D02*
X101230000Y-117905000D01*
X97375000Y-97625000D02*
X97375000Y-119975000D01*
X94075000Y-92675000D02*
X94484314Y-92675000D01*
X83800000Y-92675000D02*
X94075000Y-92675000D01*
X97375000Y-95565686D02*
X97375000Y-97625000D01*
X83725000Y-92600000D02*
X83800000Y-92675000D01*
X94484314Y-92675000D02*
X97375000Y-95565686D01*
X86365686Y-98125000D02*
X86990686Y-97500000D01*
X86990686Y-97500000D02*
X92550000Y-97500000D01*
X83800000Y-98125000D02*
X86365686Y-98125000D01*
X92550000Y-97500000D02*
X92975000Y-97925000D01*
X83725000Y-98200000D02*
X83800000Y-98125000D01*
X92975000Y-97925000D02*
X92975000Y-115302941D01*
D18*
X99025000Y-100575000D02*
X99025000Y-103850000D01*
X98925000Y-103950000D02*
X98925000Y-104775000D01*
D19*
X99025000Y-103850000D02*
X98925000Y-103950000D01*
D17*
X76760000Y-99490000D02*
X74044314Y-99490000D01*
X74044314Y-99490000D02*
X73010000Y-100524314D01*
X73010000Y-100524314D02*
X73010000Y-101690000D01*
X73010000Y-101690000D02*
X73000000Y-101700000D01*
X73000000Y-101700000D02*
X73000000Y-119930000D01*
X73000000Y-119930000D02*
X72582500Y-120347500D01*
X72582500Y-120347500D02*
X70470000Y-120347500D01*
X83725000Y-97400000D02*
X83250000Y-96925000D01*
X83250000Y-96925000D02*
X83250000Y-93500000D01*
X83250000Y-93500000D02*
X82000000Y-92250000D01*
X82000000Y-92250000D02*
X77750000Y-92250000D01*
X96175000Y-96062744D02*
X96175000Y-97200000D01*
G04 #@! TA.AperFunction,Conductor*
G36*
X79975966Y-130850185D02*
G01*
X80021721Y-130902989D01*
X80031665Y-130972147D01*
X80025969Y-130995454D01*
X79964630Y-131170750D01*
X79954837Y-131257668D01*
X79927770Y-131322082D01*
X79919298Y-131331465D01*
X78917584Y-132333181D01*
X78856261Y-132366666D01*
X78829903Y-132369500D01*
X71759091Y-132369500D01*
X71692052Y-132349815D01*
X71646711Y-132297909D01*
X71644037Y-132292175D01*
X71644034Y-132292170D01*
X71644033Y-132292169D01*
X71579564Y-132200096D01*
X71508494Y-132098597D01*
X71341402Y-131931506D01*
X71341395Y-131931501D01*
X71147834Y-131795967D01*
X71147830Y-131795965D01*
X71147828Y-131795964D01*
X70933663Y-131696097D01*
X70933659Y-131696096D01*
X70933655Y-131696094D01*
X70705413Y-131634938D01*
X70705403Y-131634936D01*
X70470001Y-131614341D01*
X70469999Y-131614341D01*
X70234596Y-131634936D01*
X70234586Y-131634938D01*
X70006344Y-131696094D01*
X70006335Y-131696098D01*
X69792171Y-131795964D01*
X69792169Y-131795965D01*
X69598597Y-131931505D01*
X69431505Y-132098597D01*
X69295965Y-132292169D01*
X69295964Y-132292171D01*
X69241441Y-132409097D01*
X69197669Y-132502967D01*
X69196098Y-132506335D01*
X69196094Y-132506344D01*
X69134938Y-132734586D01*
X69134936Y-132734596D01*
X69114341Y-132969999D01*
X69114341Y-132970000D01*
X69134936Y-133205403D01*
X69134938Y-133205413D01*
X69196094Y-133433655D01*
X69196096Y-133433659D01*
X69196097Y-133433663D01*
X69281690Y-133617217D01*
X69295965Y-133647830D01*
X69295967Y-133647834D01*
X69431501Y-133841395D01*
X69431506Y-133841402D01*
X69598597Y-134008493D01*
X69598603Y-134008498D01*
X69784158Y-134138425D01*
X69827783Y-134193002D01*
X69834977Y-134262500D01*
X69803454Y-134324855D01*
X69784158Y-134341575D01*
X69598597Y-134471505D01*
X69431505Y-134638597D01*
X69295965Y-134832169D01*
X69295964Y-134832171D01*
X69196098Y-135046335D01*
X69196094Y-135046344D01*
X69134938Y-135274586D01*
X69134936Y-135274596D01*
X69114341Y-135509999D01*
X69114341Y-135510000D01*
X69134936Y-135745403D01*
X69134938Y-135745413D01*
X69196094Y-135973655D01*
X69196096Y-135973659D01*
X69196097Y-135973663D01*
X69259906Y-136110501D01*
X69295965Y-136187830D01*
X69295967Y-136187834D01*
X69431501Y-136381395D01*
X69431506Y-136381402D01*
X69598597Y-136548493D01*
X69598603Y-136548498D01*
X69784158Y-136678425D01*
X69827783Y-136733002D01*
X69834977Y-136802500D01*
X69803454Y-136864855D01*
X69784158Y-136881575D01*
X69598597Y-137011505D01*
X69431505Y-137178597D01*
X69295965Y-137372169D01*
X69295964Y-137372171D01*
X69196098Y-137586335D01*
X69196094Y-137586344D01*
X69134938Y-137814586D01*
X69134936Y-137814596D01*
X69114341Y-138049999D01*
X69114341Y-138050000D01*
X69134936Y-138285403D01*
X69134938Y-138285413D01*
X69196094Y-138513655D01*
X69196096Y-138513659D01*
X69196097Y-138513663D01*
X69264569Y-138660501D01*
X69295965Y-138727830D01*
X69295967Y-138727834D01*
X69404281Y-138882521D01*
X69431501Y-138921396D01*
X69431506Y-138921402D01*
X69598597Y-139088493D01*
X69598603Y-139088498D01*
X69784158Y-139218425D01*
X69827783Y-139273002D01*
X69834977Y-139342500D01*
X69803454Y-139404855D01*
X69784158Y-139421575D01*
X69598597Y-139551505D01*
X69431505Y-139718597D01*
X69295965Y-139912169D01*
X69295964Y-139912171D01*
X69196098Y-140126335D01*
X69196094Y-140126344D01*
X69134938Y-140354586D01*
X69134936Y-140354596D01*
X69114341Y-140589999D01*
X69114341Y-140590000D01*
X69134936Y-140825403D01*
X69134938Y-140825413D01*
X69196094Y-141053655D01*
X69196096Y-141053659D01*
X69196097Y-141053663D01*
X69259906Y-141190501D01*
X69295965Y-141267830D01*
X69295967Y-141267834D01*
X69431501Y-141461395D01*
X69431506Y-141461402D01*
X69598597Y-141628493D01*
X69598603Y-141628498D01*
X69784158Y-141758425D01*
X69827783Y-141813002D01*
X69834977Y-141882500D01*
X69803454Y-141944855D01*
X69784158Y-141961575D01*
X69598597Y-142091505D01*
X69431505Y-142258597D01*
X69295965Y-142452169D01*
X69295964Y-142452171D01*
X69196098Y-142666335D01*
X69196094Y-142666344D01*
X69134938Y-142894586D01*
X69134936Y-142894596D01*
X69114341Y-143129999D01*
X69114341Y-143130000D01*
X69134936Y-143365403D01*
X69134938Y-143365413D01*
X69196094Y-143593655D01*
X69196096Y-143593659D01*
X69196097Y-143593663D01*
X69259906Y-143730501D01*
X69295965Y-143807830D01*
X69295967Y-143807834D01*
X69431501Y-144001395D01*
X69431506Y-144001402D01*
X69598597Y-144168493D01*
X69598603Y-144168498D01*
X69784158Y-144298425D01*
X69827783Y-144353002D01*
X69834977Y-144422500D01*
X69803454Y-144484855D01*
X69784158Y-144501575D01*
X69598597Y-144631505D01*
X69431505Y-144798597D01*
X69295965Y-144992169D01*
X69295964Y-144992171D01*
X69196098Y-145206335D01*
X69196094Y-145206344D01*
X69134938Y-145434586D01*
X69134936Y-145434596D01*
X69114341Y-145669999D01*
X69114341Y-145670000D01*
X69134936Y-145905403D01*
X69134938Y-145905413D01*
X69196094Y-146133655D01*
X69196096Y-146133659D01*
X69196097Y-146133663D01*
X69295965Y-146347830D01*
X69295967Y-146347834D01*
X69404281Y-146502521D01*
X69431505Y-146541401D01*
X69598599Y-146708495D01*
X69655733Y-146748501D01*
X69720606Y-146793925D01*
X69764230Y-146848502D01*
X69771423Y-146918001D01*
X69739901Y-146980355D01*
X69679671Y-147015769D01*
X69649482Y-147019500D01*
X58720518Y-147019500D01*
X58653479Y-146999815D01*
X58607724Y-146947011D01*
X58597780Y-146877853D01*
X58626805Y-146814297D01*
X58649394Y-146793925D01*
X58771401Y-146708495D01*
X58938495Y-146541401D01*
X59074035Y-146347830D01*
X59173903Y-146133663D01*
X59235063Y-145905408D01*
X59255659Y-145670000D01*
X59235063Y-145434592D01*
X59173903Y-145206337D01*
X59074035Y-144992171D01*
X58990075Y-144872262D01*
X58938494Y-144798597D01*
X58771402Y-144631506D01*
X58771396Y-144631501D01*
X58585842Y-144501575D01*
X58542217Y-144446998D01*
X58535023Y-144377500D01*
X58566546Y-144315145D01*
X58585842Y-144298425D01*
X58608026Y-144282891D01*
X58771401Y-144168495D01*
X58938495Y-144001401D01*
X59074035Y-143807830D01*
X59076707Y-143802097D01*
X59122878Y-143749658D01*
X59189091Y-143730500D01*
X60723331Y-143730500D01*
X60723347Y-143730501D01*
X60730943Y-143730501D01*
X60889054Y-143730501D01*
X60889057Y-143730501D01*
X61041785Y-143689577D01*
X61091904Y-143660639D01*
X61178716Y-143610520D01*
X61290520Y-143498716D01*
X61290520Y-143498714D01*
X61300728Y-143488507D01*
X61300730Y-143488504D01*
X61818506Y-142970728D01*
X61818511Y-142970724D01*
X61828714Y-142960520D01*
X61828716Y-142960520D01*
X61940520Y-142848716D01*
X61990998Y-142761284D01*
X62019577Y-142711785D01*
X62060501Y-142559057D01*
X62060501Y-142400943D01*
X62060501Y-142393348D01*
X62060500Y-142393330D01*
X62060500Y-134463476D01*
X62080185Y-134396437D01*
X62132989Y-134350682D01*
X62202147Y-134340738D01*
X62265703Y-134369763D01*
X62289493Y-134397503D01*
X62330184Y-134462262D01*
X62457738Y-134589816D01*
X62535376Y-134638599D01*
X62551290Y-134648599D01*
X62610478Y-134685789D01*
X62780745Y-134745368D01*
X62780750Y-134745369D01*
X62959996Y-134765565D01*
X62960000Y-134765565D01*
X62960004Y-134765565D01*
X63139249Y-134745369D01*
X63139252Y-134745368D01*
X63139255Y-134745368D01*
X63309522Y-134685789D01*
X63462262Y-134589816D01*
X63589816Y-134462262D01*
X63685789Y-134309522D01*
X63745368Y-134139255D01*
X63758974Y-134018498D01*
X63765565Y-133960003D01*
X63765565Y-133959996D01*
X63745369Y-133780750D01*
X63745368Y-133780745D01*
X63703412Y-133660842D01*
X63685789Y-133610478D01*
X63589816Y-133457738D01*
X63589814Y-133457736D01*
X63589813Y-133457734D01*
X63587550Y-133454896D01*
X63586659Y-133452715D01*
X63586111Y-133451842D01*
X63586264Y-133451745D01*
X63561144Y-133390209D01*
X63560500Y-133377587D01*
X63560500Y-132090097D01*
X63580185Y-132023058D01*
X63596819Y-132002416D01*
X64382416Y-131216819D01*
X64443739Y-131183334D01*
X64470097Y-131180500D01*
X69853331Y-131180500D01*
X69853347Y-131180501D01*
X69860943Y-131180501D01*
X70019054Y-131180501D01*
X70019057Y-131180501D01*
X70171785Y-131139577D01*
X70221904Y-131110639D01*
X70308716Y-131060520D01*
X70420520Y-130948716D01*
X70420521Y-130948714D01*
X70502418Y-130866816D01*
X70563740Y-130833334D01*
X70590097Y-130830500D01*
X79908927Y-130830500D01*
X79975966Y-130850185D01*
G37*
G04 #@! TD.AperFunction*
G04 #@! TA.AperFunction,Conductor*
G36*
X78562539Y-141210185D02*
G01*
X78608294Y-141262989D01*
X78619500Y-141314500D01*
X78619500Y-145453330D01*
X78619499Y-145453348D01*
X78619499Y-145619054D01*
X78619498Y-145619054D01*
X78644346Y-145711784D01*
X78660423Y-145771785D01*
X78670651Y-145789500D01*
X78739477Y-145908712D01*
X78739481Y-145908717D01*
X78858349Y-146027585D01*
X78858355Y-146027590D01*
X79638583Y-146807819D01*
X79672068Y-146869142D01*
X79667084Y-146938834D01*
X79625212Y-146994767D01*
X79559748Y-147019184D01*
X79550902Y-147019500D01*
X71290518Y-147019500D01*
X71223479Y-146999815D01*
X71177724Y-146947011D01*
X71167780Y-146877853D01*
X71196805Y-146814297D01*
X71219394Y-146793925D01*
X71341401Y-146708495D01*
X71508495Y-146541401D01*
X71644035Y-146347830D01*
X71743903Y-146133663D01*
X71805063Y-145905408D01*
X71825659Y-145670000D01*
X71805063Y-145434592D01*
X71743903Y-145206337D01*
X71644035Y-144992171D01*
X71560075Y-144872262D01*
X71508494Y-144798597D01*
X71341402Y-144631506D01*
X71341396Y-144631501D01*
X71155842Y-144501575D01*
X71112217Y-144446998D01*
X71105023Y-144377500D01*
X71136546Y-144315145D01*
X71155842Y-144298425D01*
X71178026Y-144282891D01*
X71341401Y-144168495D01*
X71508495Y-144001401D01*
X71644035Y-143807830D01*
X71743903Y-143593663D01*
X71805063Y-143365408D01*
X71825659Y-143130000D01*
X71805063Y-142894592D01*
X71746584Y-142676344D01*
X71743905Y-142666344D01*
X71743904Y-142666343D01*
X71743903Y-142666337D01*
X71644035Y-142452171D01*
X71644034Y-142452169D01*
X71508494Y-142258597D01*
X71341402Y-142091506D01*
X71341396Y-142091501D01*
X71155842Y-141961575D01*
X71112217Y-141906998D01*
X71105023Y-141837500D01*
X71136546Y-141775145D01*
X71155842Y-141758425D01*
X71327115Y-141638498D01*
X71341401Y-141628495D01*
X71508495Y-141461401D01*
X71644035Y-141267830D01*
X71646707Y-141262097D01*
X71692878Y-141209658D01*
X71759091Y-141190500D01*
X78495500Y-141190500D01*
X78562539Y-141210185D01*
G37*
G04 #@! TD.AperFunction*
G04 #@! TA.AperFunction,Conductor*
G36*
X81766942Y-92870185D02*
G01*
X81787584Y-92886819D01*
X82613181Y-93712416D01*
X82646666Y-93773739D01*
X82649500Y-93800097D01*
X82649500Y-96838330D01*
X82649499Y-96838348D01*
X82649499Y-97004054D01*
X82649498Y-97004054D01*
X82690422Y-97156783D01*
X82715663Y-97200502D01*
X82769477Y-97293712D01*
X82769481Y-97293717D01*
X82888349Y-97412585D01*
X82888355Y-97412590D01*
X83061191Y-97585426D01*
X83089452Y-97629135D01*
X83122482Y-97716226D01*
X83129838Y-97726883D01*
X83131687Y-97729562D01*
X83153568Y-97795918D01*
X83136101Y-97863569D01*
X83131687Y-97870438D01*
X83124473Y-97880890D01*
X83122482Y-97883774D01*
X83099852Y-97943443D01*
X83064312Y-98037154D01*
X83064311Y-98037157D01*
X83044539Y-98199999D01*
X83044539Y-98200000D01*
X83064311Y-98362842D01*
X83064312Y-98362845D01*
X83105418Y-98471233D01*
X83122483Y-98516228D01*
X83194457Y-98620500D01*
X83215668Y-98651229D01*
X83215670Y-98651231D01*
X83215672Y-98651233D01*
X83338451Y-98760006D01*
X83338452Y-98760006D01*
X83338454Y-98760008D01*
X83483705Y-98836242D01*
X83483707Y-98836242D01*
X83483708Y-98836243D01*
X83642978Y-98875500D01*
X83642979Y-98875500D01*
X83807022Y-98875500D01*
X83966291Y-98836243D01*
X83966291Y-98836242D01*
X83966295Y-98836242D01*
X84111546Y-98760008D01*
X84115296Y-98756685D01*
X84178527Y-98726964D01*
X84197524Y-98725500D01*
X85389558Y-98725500D01*
X85456597Y-98745185D01*
X85502352Y-98797989D01*
X85505499Y-98805528D01*
X85547482Y-98916226D01*
X85640668Y-99051229D01*
X85640670Y-99051231D01*
X85640672Y-99051233D01*
X85763451Y-99160006D01*
X85763452Y-99160006D01*
X85763454Y-99160008D01*
X85908705Y-99236242D01*
X85908707Y-99236242D01*
X85908708Y-99236243D01*
X86067978Y-99275500D01*
X86067979Y-99275500D01*
X86232022Y-99275500D01*
X86311658Y-99255871D01*
X86391295Y-99236242D01*
X86432330Y-99214704D01*
X86489956Y-99200501D01*
X86535426Y-99200501D01*
X86535429Y-99200501D01*
X86688157Y-99159577D01*
X86754482Y-99121284D01*
X86825088Y-99080520D01*
X86936892Y-98968716D01*
X86936892Y-98968714D01*
X86947096Y-98958511D01*
X86947099Y-98958506D01*
X87368788Y-98536819D01*
X87430111Y-98503334D01*
X87456469Y-98500500D01*
X91850500Y-98500500D01*
X91917539Y-98520185D01*
X91963294Y-98572989D01*
X91974500Y-98624500D01*
X91974500Y-114824902D01*
X91954815Y-114891941D01*
X91938181Y-114912583D01*
X91129481Y-115721282D01*
X91129479Y-115721285D01*
X91116559Y-115743664D01*
X91091296Y-115787421D01*
X91050423Y-115858215D01*
X91009499Y-116010943D01*
X91009499Y-116010945D01*
X91009499Y-116179046D01*
X91009500Y-116179059D01*
X91009500Y-143159902D01*
X90989815Y-143226941D01*
X90973181Y-143247583D01*
X90672576Y-143548187D01*
X90611253Y-143581672D01*
X90598787Y-143583725D01*
X90590753Y-143584630D01*
X90590744Y-143584632D01*
X90420478Y-143644210D01*
X90267737Y-143740184D01*
X90140184Y-143867737D01*
X90044211Y-144020476D01*
X89984631Y-144190745D01*
X89984630Y-144190750D01*
X89964435Y-144369996D01*
X89964435Y-144370003D01*
X89984630Y-144549249D01*
X89984631Y-144549254D01*
X90044211Y-144719523D01*
X90063300Y-144749902D01*
X90140184Y-144872262D01*
X90267738Y-144999816D01*
X90420478Y-145095789D01*
X90546876Y-145140017D01*
X90570997Y-145148458D01*
X90627773Y-145189180D01*
X90653520Y-145254133D01*
X90640064Y-145322695D01*
X90591676Y-145373097D01*
X90530042Y-145389500D01*
X80535783Y-145389500D01*
X80468744Y-145369815D01*
X80448102Y-145353181D01*
X80256819Y-145161898D01*
X80223334Y-145100575D01*
X80220500Y-145074217D01*
X80220500Y-140923374D01*
X80220501Y-140923361D01*
X80220501Y-140755258D01*
X80179576Y-140602528D01*
X80179573Y-140602523D01*
X80100524Y-140465604D01*
X80100518Y-140465596D01*
X79463276Y-139828355D01*
X79463274Y-139828352D01*
X79344403Y-139709481D01*
X79344398Y-139709477D01*
X79220506Y-139637949D01*
X79220506Y-139637948D01*
X79220503Y-139637947D01*
X79207471Y-139630423D01*
X79054743Y-139589499D01*
X78896629Y-139589499D01*
X78889033Y-139589499D01*
X78889017Y-139589500D01*
X74260097Y-139589500D01*
X74193058Y-139569815D01*
X74172416Y-139553181D01*
X72307590Y-137688355D01*
X72307588Y-137688352D01*
X72188717Y-137569481D01*
X72188709Y-137569475D01*
X72069106Y-137500423D01*
X72069106Y-137500422D01*
X72069101Y-137500421D01*
X72063058Y-137496932D01*
X72051786Y-137490423D01*
X72013603Y-137480192D01*
X71899057Y-137449499D01*
X71759090Y-137449499D01*
X71692051Y-137429814D01*
X71646708Y-137377903D01*
X71644037Y-137372176D01*
X71644034Y-137372170D01*
X71644033Y-137372169D01*
X71508495Y-137178599D01*
X71508494Y-137178597D01*
X71341402Y-137011506D01*
X71341396Y-137011501D01*
X71155842Y-136881575D01*
X71112217Y-136826998D01*
X71105023Y-136757500D01*
X71136546Y-136695145D01*
X71155842Y-136678425D01*
X71327115Y-136558498D01*
X71341401Y-136548495D01*
X71508495Y-136381401D01*
X71644035Y-136187830D01*
X71743903Y-135973663D01*
X71805063Y-135745408D01*
X71825659Y-135510000D01*
X71805063Y-135274592D01*
X71746584Y-135056344D01*
X71743905Y-135046344D01*
X71743904Y-135046343D01*
X71743903Y-135046337D01*
X71644035Y-134832171D01*
X71597398Y-134765565D01*
X71508494Y-134638597D01*
X71341402Y-134471506D01*
X71341396Y-134471501D01*
X71155842Y-134341575D01*
X71112217Y-134286998D01*
X71105023Y-134217500D01*
X71136546Y-134155145D01*
X71155842Y-134138425D01*
X71327115Y-134018498D01*
X71341401Y-134008495D01*
X71508495Y-133841401D01*
X71644035Y-133647830D01*
X71646707Y-133642097D01*
X71692878Y-133589658D01*
X71759091Y-133570500D01*
X79043331Y-133570500D01*
X79043347Y-133570501D01*
X79050943Y-133570501D01*
X79209054Y-133570501D01*
X79209057Y-133570501D01*
X79361785Y-133529577D01*
X79411904Y-133500639D01*
X79498716Y-133450520D01*
X79610520Y-133338716D01*
X79610520Y-133338714D01*
X79620728Y-133328507D01*
X79620730Y-133328504D01*
X80768535Y-132180698D01*
X80829856Y-132147215D01*
X80842311Y-132145163D01*
X80929255Y-132135368D01*
X81099522Y-132075789D01*
X81252262Y-131979816D01*
X81379816Y-131852262D01*
X81475789Y-131699522D01*
X81535368Y-131529255D01*
X81535369Y-131529249D01*
X81555565Y-131350003D01*
X81555565Y-131349996D01*
X81535369Y-131170750D01*
X81535366Y-131170737D01*
X81474032Y-130995455D01*
X81470470Y-130925676D01*
X81505198Y-130865049D01*
X81567192Y-130832821D01*
X81591073Y-130830500D01*
X86773331Y-130830500D01*
X86773347Y-130830501D01*
X86780943Y-130830501D01*
X86939054Y-130830501D01*
X86939057Y-130830501D01*
X87091785Y-130789577D01*
X87141904Y-130760639D01*
X87228716Y-130710520D01*
X87340520Y-130598716D01*
X87340520Y-130598714D01*
X87350728Y-130588507D01*
X87350729Y-130588504D01*
X87837820Y-130101414D01*
X87899142Y-130067930D01*
X87968834Y-130072914D01*
X88024767Y-130114786D01*
X88049184Y-130180250D01*
X88049500Y-130189096D01*
X88049500Y-134849902D01*
X88029815Y-134916941D01*
X88013181Y-134937583D01*
X87541465Y-135409298D01*
X87480142Y-135442783D01*
X87467668Y-135444837D01*
X87380750Y-135454630D01*
X87210478Y-135514210D01*
X87057737Y-135610184D01*
X86930184Y-135737737D01*
X86834211Y-135890476D01*
X86774631Y-136060745D01*
X86774630Y-136060750D01*
X86754435Y-136239996D01*
X86754435Y-136240003D01*
X86774630Y-136419249D01*
X86774631Y-136419254D01*
X86834211Y-136589523D01*
X86884482Y-136669528D01*
X86903482Y-136736765D01*
X86883114Y-136803600D01*
X86829846Y-136848814D01*
X86779488Y-136859500D01*
X86622412Y-136859500D01*
X86555373Y-136839815D01*
X86545097Y-136832445D01*
X86542263Y-136830185D01*
X86542262Y-136830184D01*
X86462395Y-136780000D01*
X86389523Y-136734211D01*
X86219254Y-136674631D01*
X86219249Y-136674630D01*
X86040004Y-136654435D01*
X86039996Y-136654435D01*
X85860750Y-136674630D01*
X85860745Y-136674631D01*
X85690476Y-136734211D01*
X85537737Y-136830184D01*
X85410184Y-136957737D01*
X85314210Y-137110478D01*
X85254630Y-137280750D01*
X85246898Y-137349383D01*
X85219832Y-137413797D01*
X85162237Y-137453352D01*
X85123678Y-137459500D01*
X84369091Y-137459500D01*
X84302052Y-137439815D01*
X84256711Y-137387909D01*
X84254037Y-137382175D01*
X84254034Y-137382170D01*
X84254033Y-137382169D01*
X84118495Y-137188599D01*
X84118494Y-137188597D01*
X83951402Y-137021506D01*
X83951396Y-137021501D01*
X83765842Y-136891575D01*
X83722217Y-136836998D01*
X83715023Y-136767500D01*
X83746546Y-136705145D01*
X83765842Y-136688425D01*
X83792830Y-136669528D01*
X83951401Y-136558495D01*
X84118495Y-136391401D01*
X84254035Y-136197830D01*
X84353903Y-135983663D01*
X84415063Y-135755408D01*
X84435659Y-135520000D01*
X84435152Y-135514210D01*
X84428658Y-135439980D01*
X84415063Y-135284592D01*
X84353903Y-135056337D01*
X84254035Y-134842171D01*
X84200396Y-134765565D01*
X84118494Y-134648597D01*
X83951402Y-134481506D01*
X83951396Y-134481501D01*
X83765842Y-134351575D01*
X83722217Y-134296998D01*
X83715023Y-134227500D01*
X83746546Y-134165145D01*
X83765842Y-134148425D01*
X83788026Y-134132891D01*
X83951401Y-134018495D01*
X84118495Y-133851401D01*
X84254035Y-133657830D01*
X84353903Y-133443663D01*
X84415063Y-133215408D01*
X84435659Y-132980000D01*
X84435221Y-132974999D01*
X84415063Y-132744596D01*
X84415063Y-132744592D01*
X84353903Y-132516337D01*
X84254035Y-132302171D01*
X84247033Y-132292170D01*
X84118494Y-132108597D01*
X83951402Y-131941506D01*
X83951395Y-131941501D01*
X83944261Y-131936506D01*
X83912521Y-131914281D01*
X83757834Y-131805967D01*
X83757830Y-131805965D01*
X83736383Y-131795964D01*
X83543663Y-131706097D01*
X83543659Y-131706096D01*
X83543655Y-131706094D01*
X83315413Y-131644938D01*
X83315403Y-131644936D01*
X83080001Y-131624341D01*
X83079999Y-131624341D01*
X82844596Y-131644936D01*
X82844586Y-131644938D01*
X82616344Y-131706094D01*
X82616335Y-131706098D01*
X82402171Y-131805964D01*
X82402169Y-131805965D01*
X82208597Y-131941505D01*
X82041505Y-132108597D01*
X81905965Y-132302169D01*
X81905964Y-132302171D01*
X81863583Y-132393058D01*
X81808430Y-132511335D01*
X81806098Y-132516335D01*
X81806094Y-132516344D01*
X81744938Y-132744586D01*
X81744936Y-132744596D01*
X81724341Y-132979999D01*
X81724341Y-132980000D01*
X81744936Y-133215403D01*
X81744938Y-133215413D01*
X81806094Y-133443655D01*
X81806096Y-133443659D01*
X81806097Y-133443663D01*
X81901302Y-133647830D01*
X81905965Y-133657830D01*
X81905967Y-133657834D01*
X82014281Y-133812521D01*
X82038000Y-133846396D01*
X82041501Y-133851395D01*
X82041506Y-133851402D01*
X82208597Y-134018493D01*
X82208603Y-134018498D01*
X82394158Y-134148425D01*
X82437783Y-134203002D01*
X82444977Y-134272500D01*
X82413454Y-134334855D01*
X82394158Y-134351575D01*
X82208597Y-134481505D01*
X82041505Y-134648597D01*
X81905965Y-134842169D01*
X81905964Y-134842171D01*
X81806098Y-135056335D01*
X81806094Y-135056344D01*
X81744938Y-135284586D01*
X81744936Y-135284596D01*
X81724341Y-135519999D01*
X81724341Y-135520000D01*
X81744936Y-135755403D01*
X81744938Y-135755413D01*
X81806094Y-135983655D01*
X81806096Y-135983659D01*
X81806097Y-135983663D01*
X81901302Y-136187830D01*
X81905965Y-136197830D01*
X81905967Y-136197834D01*
X82041501Y-136391395D01*
X82041506Y-136391402D01*
X82208597Y-136558493D01*
X82208603Y-136558498D01*
X82394158Y-136688425D01*
X82437783Y-136743002D01*
X82444977Y-136812500D01*
X82413454Y-136874855D01*
X82394158Y-136891575D01*
X82208597Y-137021505D01*
X82041505Y-137188597D01*
X81905965Y-137382169D01*
X81905964Y-137382171D01*
X81806098Y-137596335D01*
X81806094Y-137596344D01*
X81744938Y-137824586D01*
X81744936Y-137824596D01*
X81724341Y-138059999D01*
X81724341Y-138060000D01*
X81744936Y-138295403D01*
X81744938Y-138295413D01*
X81806094Y-138523655D01*
X81806096Y-138523659D01*
X81806097Y-138523663D01*
X81869906Y-138660501D01*
X81905965Y-138737830D01*
X81905967Y-138737834D01*
X82014281Y-138892521D01*
X82034499Y-138921396D01*
X82041501Y-138931395D01*
X82041506Y-138931402D01*
X82208597Y-139098493D01*
X82208603Y-139098498D01*
X82394158Y-139228425D01*
X82437783Y-139283002D01*
X82444977Y-139352500D01*
X82413454Y-139414855D01*
X82394158Y-139431575D01*
X82208597Y-139561505D01*
X82041505Y-139728597D01*
X81905965Y-139922169D01*
X81905964Y-139922171D01*
X81806098Y-140136335D01*
X81806094Y-140136344D01*
X81744938Y-140364586D01*
X81744936Y-140364596D01*
X81724341Y-140599999D01*
X81724341Y-140600000D01*
X81744936Y-140835403D01*
X81744938Y-140835413D01*
X81806094Y-141063655D01*
X81806096Y-141063659D01*
X81806097Y-141063663D01*
X81899045Y-141262989D01*
X81905965Y-141277830D01*
X81905967Y-141277834D01*
X82041501Y-141471395D01*
X82041506Y-141471402D01*
X82208597Y-141638493D01*
X82208603Y-141638498D01*
X82394158Y-141768425D01*
X82437783Y-141823002D01*
X82444977Y-141892500D01*
X82413454Y-141954855D01*
X82394158Y-141971575D01*
X82208597Y-142101505D01*
X82041505Y-142268597D01*
X81905965Y-142462169D01*
X81905964Y-142462171D01*
X81806098Y-142676335D01*
X81806094Y-142676344D01*
X81744938Y-142904586D01*
X81744936Y-142904596D01*
X81724341Y-143139999D01*
X81724341Y-143140000D01*
X81744936Y-143375403D01*
X81744938Y-143375413D01*
X81806094Y-143603655D01*
X81806096Y-143603659D01*
X81806097Y-143603663D01*
X81901302Y-143807830D01*
X81905965Y-143817830D01*
X81905967Y-143817834D01*
X81991874Y-143940521D01*
X82041505Y-144011401D01*
X82208599Y-144178495D01*
X82305384Y-144246265D01*
X82402165Y-144314032D01*
X82402167Y-144314033D01*
X82402170Y-144314035D01*
X82616337Y-144413903D01*
X82844592Y-144475063D01*
X83032918Y-144491539D01*
X83079999Y-144495659D01*
X83080000Y-144495659D01*
X83080001Y-144495659D01*
X83119234Y-144492226D01*
X83315408Y-144475063D01*
X83543663Y-144413903D01*
X83757830Y-144314035D01*
X83951401Y-144178495D01*
X84118495Y-144011401D01*
X84254035Y-143817830D01*
X84353903Y-143603663D01*
X84415063Y-143375408D01*
X84435659Y-143140000D01*
X84415063Y-142904592D01*
X84353903Y-142676337D01*
X84254035Y-142462171D01*
X84247033Y-142452170D01*
X84118494Y-142268597D01*
X83951402Y-142101506D01*
X83951396Y-142101501D01*
X83765842Y-141971575D01*
X83722217Y-141916998D01*
X83715023Y-141847500D01*
X83746546Y-141785145D01*
X83765842Y-141768425D01*
X83788026Y-141752891D01*
X83951401Y-141638495D01*
X84118495Y-141471401D01*
X84254035Y-141277830D01*
X84353903Y-141063663D01*
X84415063Y-140835408D01*
X84435659Y-140600000D01*
X84415063Y-140364592D01*
X84353903Y-140136337D01*
X84254035Y-139922171D01*
X84247033Y-139912170D01*
X84118494Y-139728597D01*
X83951402Y-139561506D01*
X83951396Y-139561501D01*
X83765842Y-139431575D01*
X83722217Y-139376998D01*
X83715023Y-139307500D01*
X83746546Y-139245145D01*
X83765842Y-139228425D01*
X83788026Y-139212891D01*
X83951401Y-139098495D01*
X84118495Y-138931401D01*
X84254035Y-138737830D01*
X84256707Y-138732097D01*
X84302878Y-138679658D01*
X84369091Y-138660500D01*
X88923331Y-138660500D01*
X88923347Y-138660501D01*
X88930943Y-138660501D01*
X89089054Y-138660501D01*
X89089057Y-138660501D01*
X89241785Y-138619577D01*
X89291904Y-138590639D01*
X89378716Y-138540520D01*
X89490520Y-138428716D01*
X89490520Y-138428714D01*
X89500728Y-138418507D01*
X89500730Y-138418504D01*
X89808506Y-138110728D01*
X89808511Y-138110724D01*
X89818714Y-138100520D01*
X89818716Y-138100520D01*
X89930520Y-137988716D01*
X89934164Y-137982403D01*
X89984898Y-137894531D01*
X89984899Y-137894529D01*
X90009574Y-137851790D01*
X90009575Y-137851789D01*
X90009575Y-137851787D01*
X90009577Y-137851785D01*
X90050501Y-137699057D01*
X90050501Y-137540943D01*
X90050501Y-137533348D01*
X90050500Y-137533330D01*
X90050500Y-111290531D01*
X90050501Y-111290518D01*
X90050501Y-111122415D01*
X90044495Y-111100000D01*
X90009577Y-110969687D01*
X89976630Y-110912620D01*
X89930524Y-110832761D01*
X89930518Y-110832753D01*
X84146819Y-105049054D01*
X84113334Y-104987731D01*
X84110500Y-104961373D01*
X84110500Y-100489060D01*
X84110501Y-100489047D01*
X84110501Y-100320944D01*
X84087221Y-100234063D01*
X84069577Y-100168216D01*
X84061794Y-100154735D01*
X83990524Y-100031290D01*
X83990518Y-100031282D01*
X83701844Y-99742608D01*
X83383805Y-99424570D01*
X83355545Y-99380861D01*
X83331033Y-99316228D01*
X83322518Y-99293774D01*
X83309904Y-99275500D01*
X83275925Y-99226272D01*
X83229332Y-99158771D01*
X83229329Y-99158768D01*
X83229327Y-99158766D01*
X83106548Y-99049993D01*
X82961291Y-98973756D01*
X82802022Y-98934500D01*
X82802021Y-98934500D01*
X82637979Y-98934500D01*
X82637978Y-98934500D01*
X82478708Y-98973756D01*
X82438448Y-98994886D01*
X82382624Y-99024185D01*
X82314117Y-99037910D01*
X82267376Y-99024185D01*
X82171295Y-98973758D01*
X82171294Y-98973757D01*
X82171291Y-98973756D01*
X82012022Y-98934500D01*
X82012021Y-98934500D01*
X81847979Y-98934500D01*
X81847978Y-98934500D01*
X81688707Y-98973757D01*
X81587625Y-99026809D01*
X81519117Y-99040533D01*
X81472375Y-99026809D01*
X81439357Y-99009480D01*
X81371295Y-98973758D01*
X81371292Y-98973757D01*
X81212022Y-98934500D01*
X81212021Y-98934500D01*
X81047979Y-98934500D01*
X81047978Y-98934500D01*
X80888707Y-98973757D01*
X80783098Y-99029185D01*
X80714590Y-99042910D01*
X80667850Y-99029185D01*
X80581295Y-98983758D01*
X80581294Y-98983757D01*
X80581291Y-98983756D01*
X80422022Y-98944500D01*
X80422021Y-98944500D01*
X80257979Y-98944500D01*
X80257978Y-98944500D01*
X80098706Y-98983757D01*
X79992625Y-99039433D01*
X79924117Y-99053157D01*
X79877375Y-99039433D01*
X79771291Y-98983756D01*
X79764277Y-98981096D01*
X79764741Y-98979871D01*
X79711123Y-98948649D01*
X79679337Y-98886428D01*
X79686237Y-98816900D01*
X79713497Y-98775737D01*
X80000520Y-98488716D01*
X80079577Y-98351784D01*
X80120501Y-98199057D01*
X80120501Y-98040942D01*
X80120501Y-98033347D01*
X80120500Y-98033329D01*
X80120500Y-95689687D01*
X80131769Y-95643963D01*
X80129858Y-95643238D01*
X80132516Y-95636228D01*
X80132518Y-95636226D01*
X80190688Y-95482845D01*
X80210461Y-95320000D01*
X80190688Y-95157155D01*
X80132518Y-95003774D01*
X80039332Y-94868771D01*
X80039329Y-94868768D01*
X80039327Y-94868766D01*
X79916548Y-94759993D01*
X79809398Y-94703756D01*
X79771295Y-94683758D01*
X79771294Y-94683757D01*
X79771291Y-94683756D01*
X79612022Y-94644500D01*
X79612021Y-94644500D01*
X79447979Y-94644500D01*
X79447978Y-94644500D01*
X79288706Y-94683757D01*
X79168571Y-94746809D01*
X79100063Y-94760533D01*
X79053323Y-94746809D01*
X78971295Y-94703758D01*
X78971294Y-94703757D01*
X78971291Y-94703756D01*
X78812022Y-94664500D01*
X78812021Y-94664500D01*
X78647979Y-94664500D01*
X78647978Y-94664500D01*
X78488706Y-94703757D01*
X78432339Y-94733341D01*
X78363830Y-94747065D01*
X78298777Y-94721573D01*
X78272667Y-94693988D01*
X78259866Y-94675444D01*
X78237980Y-94609090D01*
X78255443Y-94541438D01*
X78259864Y-94534558D01*
X78272518Y-94516226D01*
X78330688Y-94362845D01*
X78350461Y-94200000D01*
X78330688Y-94037155D01*
X78272518Y-93883774D01*
X78179332Y-93748771D01*
X78179329Y-93748768D01*
X78179327Y-93748766D01*
X78056548Y-93639993D01*
X77911291Y-93563756D01*
X77752022Y-93524500D01*
X77752021Y-93524500D01*
X77587979Y-93524500D01*
X77587978Y-93524500D01*
X77428708Y-93563756D01*
X77283451Y-93639993D01*
X77268415Y-93653315D01*
X77205182Y-93683037D01*
X77186188Y-93684500D01*
X76120442Y-93684500D01*
X76053403Y-93664815D01*
X76007648Y-93612011D01*
X76004500Y-93604471D01*
X75962518Y-93493774D01*
X75869332Y-93358771D01*
X75869329Y-93358768D01*
X75869327Y-93358766D01*
X75746546Y-93249992D01*
X75746544Y-93249990D01*
X75601295Y-93173757D01*
X75601292Y-93173756D01*
X75597294Y-93172771D01*
X75594419Y-93171149D01*
X75594278Y-93171096D01*
X75594286Y-93171074D01*
X75539291Y-93140056D01*
X75487590Y-93088355D01*
X75487588Y-93088352D01*
X75461417Y-93062181D01*
X75427932Y-93000858D01*
X75432916Y-92931166D01*
X75474788Y-92875233D01*
X75540252Y-92850816D01*
X75549098Y-92850500D01*
X77670943Y-92850500D01*
X81699903Y-92850500D01*
X81766942Y-92870185D01*
G37*
G04 #@! TD.AperFunction*
G04 #@! TA.AperFunction,Conductor*
G36*
X60778822Y-141042912D02*
G01*
X60834759Y-141084777D01*
X60859183Y-141150239D01*
X60859500Y-141159098D01*
X60859500Y-142179903D01*
X60839815Y-142246942D01*
X60823181Y-142267584D01*
X60597584Y-142493181D01*
X60536261Y-142526666D01*
X60509903Y-142529500D01*
X59189091Y-142529500D01*
X59122052Y-142509815D01*
X59076711Y-142457909D01*
X59074037Y-142452175D01*
X59074034Y-142452170D01*
X59074033Y-142452169D01*
X58945496Y-142268597D01*
X58938494Y-142258597D01*
X58771402Y-142091506D01*
X58771396Y-142091501D01*
X58585842Y-141961575D01*
X58542217Y-141906998D01*
X58535023Y-141837500D01*
X58566546Y-141775145D01*
X58585842Y-141758425D01*
X58757115Y-141638498D01*
X58771401Y-141628495D01*
X58938495Y-141461401D01*
X59074035Y-141267830D01*
X59076707Y-141262097D01*
X59122878Y-141209658D01*
X59189091Y-141190500D01*
X60193331Y-141190500D01*
X60193347Y-141190501D01*
X60200943Y-141190501D01*
X60359054Y-141190501D01*
X60359057Y-141190501D01*
X60511785Y-141149577D01*
X60561904Y-141120639D01*
X60648716Y-141070520D01*
X60648720Y-141070515D01*
X60655169Y-141065569D01*
X60656162Y-141066864D01*
X60709129Y-141037935D01*
X60778822Y-141042912D01*
G37*
G04 #@! TD.AperFunction*
G04 #@! TA.AperFunction,Conductor*
G36*
X60138834Y-135732914D02*
G01*
X60194767Y-135774786D01*
X60219184Y-135840251D01*
X60219500Y-135849096D01*
X60219500Y-139749903D01*
X60199815Y-139816942D01*
X60183181Y-139837584D01*
X60067584Y-139953181D01*
X60006261Y-139986666D01*
X59979903Y-139989500D01*
X59189091Y-139989500D01*
X59122052Y-139969815D01*
X59076711Y-139917909D01*
X59074037Y-139912175D01*
X59074034Y-139912170D01*
X59074033Y-139912169D01*
X58938495Y-139718599D01*
X58938494Y-139718597D01*
X58771402Y-139551506D01*
X58771396Y-139551501D01*
X58585842Y-139421575D01*
X58542217Y-139366998D01*
X58535023Y-139297500D01*
X58566546Y-139235145D01*
X58585842Y-139218425D01*
X58757115Y-139098498D01*
X58771401Y-139088495D01*
X58938495Y-138921401D01*
X59074035Y-138727830D01*
X59173903Y-138513663D01*
X59235063Y-138285408D01*
X59255659Y-138050000D01*
X59235063Y-137814592D01*
X59176584Y-137596344D01*
X59173905Y-137586344D01*
X59173904Y-137586343D01*
X59173903Y-137586337D01*
X59074035Y-137372171D01*
X59074034Y-137372169D01*
X58938494Y-137178597D01*
X58771402Y-137011506D01*
X58771396Y-137011501D01*
X58585842Y-136881575D01*
X58542217Y-136826998D01*
X58535023Y-136757500D01*
X58566546Y-136695145D01*
X58585842Y-136678425D01*
X58757115Y-136558498D01*
X58771401Y-136548495D01*
X58938495Y-136381401D01*
X59074035Y-136187830D01*
X59076707Y-136182097D01*
X59122878Y-136129658D01*
X59189091Y-136110500D01*
X59323331Y-136110500D01*
X59323347Y-136110501D01*
X59330943Y-136110501D01*
X59489054Y-136110501D01*
X59489057Y-136110501D01*
X59641785Y-136069577D01*
X59691904Y-136040639D01*
X59778716Y-135990520D01*
X59890520Y-135878716D01*
X59890521Y-135878713D01*
X60007821Y-135761412D01*
X60069142Y-135727930D01*
X60138834Y-135732914D01*
G37*
G04 #@! TD.AperFunction*
G04 #@! TA.AperFunction,Conductor*
G36*
X88768834Y-136831444D02*
G01*
X88824767Y-136873316D01*
X88849184Y-136938780D01*
X88849500Y-136947626D01*
X88849500Y-137319903D01*
X88829815Y-137386942D01*
X88813181Y-137407584D01*
X88797584Y-137423181D01*
X88736261Y-137456666D01*
X88709903Y-137459500D01*
X88337626Y-137459500D01*
X88270587Y-137439815D01*
X88224832Y-137387011D01*
X88214888Y-137317853D01*
X88243913Y-137254297D01*
X88249945Y-137247819D01*
X88637819Y-136859945D01*
X88699142Y-136826460D01*
X88768834Y-136831444D01*
G37*
G04 #@! TD.AperFunction*
G04 #@! TA.AperFunction,Conductor*
G36*
X60227942Y-129600185D02*
G01*
X60273697Y-129652989D01*
X60283641Y-129722147D01*
X60254616Y-129785703D01*
X60248586Y-129792178D01*
X59742551Y-130298213D01*
X59341286Y-130699478D01*
X59229481Y-130811282D01*
X59229479Y-130811285D01*
X59179361Y-130898094D01*
X59179359Y-130898096D01*
X59150425Y-130948209D01*
X59150424Y-130948210D01*
X59144010Y-130972147D01*
X59109499Y-131100943D01*
X59109499Y-131100945D01*
X59109499Y-131269046D01*
X59109500Y-131269059D01*
X59109500Y-131970241D01*
X59089815Y-132037280D01*
X59037011Y-132083035D01*
X58967853Y-132092979D01*
X58904297Y-132063954D01*
X58897819Y-132057923D01*
X58842312Y-132002416D01*
X58771401Y-131931505D01*
X58771397Y-131931502D01*
X58771396Y-131931501D01*
X58577834Y-131795967D01*
X58577830Y-131795965D01*
X58577828Y-131795964D01*
X58363663Y-131696097D01*
X58363659Y-131696096D01*
X58363655Y-131696094D01*
X58135413Y-131634938D01*
X58135403Y-131634936D01*
X57900001Y-131614341D01*
X57899999Y-131614341D01*
X57664596Y-131634936D01*
X57664586Y-131634938D01*
X57436344Y-131696094D01*
X57436330Y-131696099D01*
X57336933Y-131742449D01*
X57267856Y-131752941D01*
X57204072Y-131724421D01*
X57165833Y-131665944D01*
X57165279Y-131596077D01*
X57196846Y-131542388D01*
X59122416Y-129616819D01*
X59183739Y-129583334D01*
X59210097Y-129580500D01*
X60160903Y-129580500D01*
X60227942Y-129600185D01*
G37*
G04 #@! TD.AperFunction*
G04 #@! TA.AperFunction,Conductor*
G36*
X93670471Y-124573218D02*
G01*
X93690478Y-124585789D01*
X93860745Y-124645368D01*
X93947669Y-124655161D01*
X94012080Y-124682226D01*
X94021465Y-124690700D01*
X94603181Y-125272416D01*
X94636666Y-125333739D01*
X94639500Y-125360097D01*
X94639500Y-125833330D01*
X94639499Y-125833348D01*
X94639499Y-125999054D01*
X94639498Y-125999054D01*
X94639499Y-125999057D01*
X94680423Y-126151785D01*
X94680424Y-126151787D01*
X94680423Y-126151787D01*
X94697255Y-126180939D01*
X94697257Y-126180941D01*
X94697258Y-126180943D01*
X94729572Y-126236913D01*
X94759479Y-126288715D01*
X94829298Y-126358534D01*
X94862783Y-126419857D01*
X94864837Y-126432331D01*
X94874630Y-126519249D01*
X94934210Y-126689521D01*
X95000901Y-126795659D01*
X95030184Y-126842262D01*
X95157738Y-126969816D01*
X95310478Y-127065789D01*
X95480745Y-127125368D01*
X95480750Y-127125369D01*
X95659996Y-127145565D01*
X95660000Y-127145565D01*
X95660004Y-127145565D01*
X95836617Y-127125666D01*
X95905439Y-127137721D01*
X95956818Y-127185070D01*
X95974500Y-127248886D01*
X95974500Y-127819216D01*
X95954815Y-127886255D01*
X95938181Y-127906897D01*
X92479481Y-131365596D01*
X92479477Y-131365601D01*
X92441887Y-131430711D01*
X92391321Y-131478926D01*
X92322714Y-131492150D01*
X92257849Y-131466182D01*
X92217320Y-131409268D01*
X92210500Y-131368711D01*
X92210500Y-126706567D01*
X92230185Y-126639528D01*
X92282989Y-126593773D01*
X92352147Y-126583829D01*
X92359969Y-126585281D01*
X92539996Y-126605565D01*
X92540000Y-126605565D01*
X92540004Y-126605565D01*
X92719249Y-126585369D01*
X92719252Y-126585368D01*
X92719255Y-126585368D01*
X92889522Y-126525789D01*
X93042262Y-126429816D01*
X93169816Y-126302262D01*
X93265789Y-126149522D01*
X93325368Y-125979255D01*
X93335338Y-125890755D01*
X93357321Y-125836254D01*
X93356456Y-125835755D01*
X93359997Y-125829620D01*
X93360190Y-125829144D01*
X93360510Y-125828725D01*
X93360520Y-125828716D01*
X93439577Y-125691784D01*
X93480501Y-125539057D01*
X93480501Y-125380942D01*
X93480501Y-125373347D01*
X93480500Y-125373329D01*
X93480500Y-124678212D01*
X93500185Y-124611173D01*
X93552989Y-124565418D01*
X93622147Y-124555474D01*
X93670471Y-124573218D01*
G37*
G04 #@! TD.AperFunction*
G04 #@! TA.AperFunction,Conductor*
G36*
X81825703Y-107255285D02*
G01*
X81832181Y-107261317D01*
X83168917Y-108598053D01*
X83202402Y-108659376D01*
X83205236Y-108685734D01*
X83205236Y-109430337D01*
X83205235Y-109430355D01*
X83205235Y-109596061D01*
X83205234Y-109596061D01*
X83205235Y-109596064D01*
X83246159Y-109748792D01*
X83257777Y-109768914D01*
X83258950Y-109770945D01*
X83325215Y-109885721D01*
X83325217Y-109885724D01*
X83444085Y-110004592D01*
X83444091Y-110004597D01*
X86813181Y-113373687D01*
X86846666Y-113435010D01*
X86849500Y-113461368D01*
X86849500Y-126899902D01*
X86829815Y-126966941D01*
X86813181Y-126987583D01*
X86020195Y-127780568D01*
X85958872Y-127814053D01*
X85946398Y-127816107D01*
X85870750Y-127824630D01*
X85700478Y-127884210D01*
X85547737Y-127980184D01*
X85420184Y-128107737D01*
X85324211Y-128260476D01*
X85264631Y-128430745D01*
X85264630Y-128430750D01*
X85244435Y-128609996D01*
X85244435Y-128610003D01*
X85264630Y-128789249D01*
X85264631Y-128789254D01*
X85324211Y-128959523D01*
X85374482Y-129039528D01*
X85393482Y-129106765D01*
X85373114Y-129173600D01*
X85319846Y-129218814D01*
X85269488Y-129229500D01*
X80619097Y-129229500D01*
X80552058Y-129209815D01*
X80506303Y-129157011D01*
X80496359Y-129087853D01*
X80525384Y-129024297D01*
X80531416Y-129017819D01*
X80901290Y-128647945D01*
X81500520Y-128048716D01*
X81579577Y-127911784D01*
X81620501Y-127759057D01*
X81620501Y-127600942D01*
X81620501Y-127593347D01*
X81620500Y-127593329D01*
X81620500Y-126171251D01*
X81640185Y-126104212D01*
X81692989Y-126058457D01*
X81762147Y-126048513D01*
X81825703Y-126077538D01*
X81846075Y-126100128D01*
X81976500Y-126286395D01*
X81976505Y-126286401D01*
X82143599Y-126453495D01*
X82205746Y-126497011D01*
X82337165Y-126589032D01*
X82337167Y-126589033D01*
X82337170Y-126589035D01*
X82551337Y-126688903D01*
X82551343Y-126688904D01*
X82551344Y-126688905D01*
X82571016Y-126694176D01*
X82779592Y-126750063D01*
X82967918Y-126766539D01*
X83014999Y-126770659D01*
X83015000Y-126770659D01*
X83015001Y-126770659D01*
X83054234Y-126767226D01*
X83250408Y-126750063D01*
X83478663Y-126688903D01*
X83692830Y-126589035D01*
X83886401Y-126453495D01*
X84053495Y-126286401D01*
X84189035Y-126092830D01*
X84288903Y-125878663D01*
X84350063Y-125650408D01*
X84370659Y-125415000D01*
X84350063Y-125179592D01*
X84288903Y-124951337D01*
X84189035Y-124737171D01*
X84187834Y-124735455D01*
X84053494Y-124543597D01*
X83886402Y-124376506D01*
X83886396Y-124376501D01*
X83700842Y-124246575D01*
X83657217Y-124191998D01*
X83650023Y-124122500D01*
X83681546Y-124060145D01*
X83700842Y-124043425D01*
X83841767Y-123944748D01*
X83886401Y-123913495D01*
X84053495Y-123746401D01*
X84189035Y-123552830D01*
X84288903Y-123338663D01*
X84350063Y-123110408D01*
X84370659Y-122875000D01*
X84350063Y-122639592D01*
X84298022Y-122445369D01*
X84288905Y-122411344D01*
X84288904Y-122411343D01*
X84288903Y-122411337D01*
X84189035Y-122197171D01*
X84183925Y-122189872D01*
X84053494Y-122003597D01*
X83886402Y-121836506D01*
X83886396Y-121836501D01*
X83700842Y-121706575D01*
X83657217Y-121651998D01*
X83650023Y-121582500D01*
X83681546Y-121520145D01*
X83700842Y-121503425D01*
X83778980Y-121448712D01*
X83886401Y-121373495D01*
X84053495Y-121206401D01*
X84189035Y-121012830D01*
X84288903Y-120798663D01*
X84350063Y-120570408D01*
X84370659Y-120335000D01*
X84367484Y-120298716D01*
X84355504Y-120161784D01*
X84350063Y-120099592D01*
X84288903Y-119871337D01*
X84189035Y-119657171D01*
X84183925Y-119649872D01*
X84053494Y-119463597D01*
X83886402Y-119296506D01*
X83886396Y-119296501D01*
X83700842Y-119166575D01*
X83657217Y-119111998D01*
X83650023Y-119042500D01*
X83681546Y-118980145D01*
X83700842Y-118963425D01*
X83723026Y-118947891D01*
X83886401Y-118833495D01*
X84053495Y-118666401D01*
X84189035Y-118472830D01*
X84288903Y-118258663D01*
X84350063Y-118030408D01*
X84370659Y-117795000D01*
X84350063Y-117559592D01*
X84288903Y-117331337D01*
X84189035Y-117117171D01*
X84183925Y-117109872D01*
X84053494Y-116923597D01*
X83886402Y-116756506D01*
X83886396Y-116756501D01*
X83700842Y-116626575D01*
X83657217Y-116571998D01*
X83650023Y-116502500D01*
X83681546Y-116440145D01*
X83700842Y-116423425D01*
X83723026Y-116407891D01*
X83886401Y-116293495D01*
X84053495Y-116126401D01*
X84189035Y-115932830D01*
X84288903Y-115718663D01*
X84350063Y-115490408D01*
X84370659Y-115255000D01*
X84350063Y-115019592D01*
X84288903Y-114791337D01*
X84189035Y-114577171D01*
X84183925Y-114569872D01*
X84053494Y-114383597D01*
X83886402Y-114216506D01*
X83886396Y-114216501D01*
X83700842Y-114086575D01*
X83657217Y-114031998D01*
X83650023Y-113962500D01*
X83681546Y-113900145D01*
X83700842Y-113883425D01*
X83723026Y-113867891D01*
X83886401Y-113753495D01*
X84053495Y-113586401D01*
X84189035Y-113392830D01*
X84288903Y-113178663D01*
X84350063Y-112950408D01*
X84370659Y-112715000D01*
X84368485Y-112690157D01*
X84357016Y-112559060D01*
X84350063Y-112479592D01*
X84288903Y-112251337D01*
X84189035Y-112037171D01*
X84183925Y-112029872D01*
X84053494Y-111843597D01*
X83886402Y-111676506D01*
X83886395Y-111676501D01*
X83692834Y-111540967D01*
X83692830Y-111540965D01*
X83692828Y-111540964D01*
X83478663Y-111441097D01*
X83478659Y-111441096D01*
X83478655Y-111441094D01*
X83250413Y-111379938D01*
X83250403Y-111379936D01*
X83015001Y-111359341D01*
X83014999Y-111359341D01*
X82779596Y-111379936D01*
X82779586Y-111379938D01*
X82551344Y-111441094D01*
X82551335Y-111441098D01*
X82337171Y-111540964D01*
X82337169Y-111540965D01*
X82143597Y-111676505D01*
X81976505Y-111843597D01*
X81846075Y-112029872D01*
X81791498Y-112073497D01*
X81722000Y-112080691D01*
X81659645Y-112049168D01*
X81624231Y-111988938D01*
X81620500Y-111958749D01*
X81620500Y-107348998D01*
X81640185Y-107281959D01*
X81692989Y-107236204D01*
X81762147Y-107226260D01*
X81825703Y-107255285D01*
G37*
G04 #@! TD.AperFunction*
G04 #@! TA.AperFunction,Conductor*
G36*
X78645704Y-112445385D02*
G01*
X78652182Y-112451417D01*
X78783181Y-112582416D01*
X78816666Y-112643739D01*
X78819500Y-112670097D01*
X78819500Y-125959903D01*
X78799815Y-126026942D01*
X78783181Y-126047584D01*
X78297584Y-126533181D01*
X78236261Y-126566666D01*
X78209903Y-126569500D01*
X71537258Y-126569500D01*
X71470219Y-126549815D01*
X71424464Y-126497011D01*
X71414520Y-126427853D01*
X71443545Y-126364297D01*
X71449577Y-126357819D01*
X71508495Y-126298901D01*
X71644035Y-126105330D01*
X71646707Y-126099597D01*
X71692878Y-126047158D01*
X71759091Y-126028000D01*
X77115831Y-126028000D01*
X77115847Y-126028001D01*
X77123443Y-126028001D01*
X77281554Y-126028001D01*
X77281557Y-126028001D01*
X77434285Y-125987077D01*
X77486695Y-125956818D01*
X77486696Y-125956818D01*
X77571209Y-125908024D01*
X77571208Y-125908024D01*
X77571216Y-125908020D01*
X77683020Y-125796216D01*
X77683020Y-125796214D01*
X77693224Y-125786011D01*
X77693228Y-125786006D01*
X78198506Y-125280728D01*
X78198511Y-125280724D01*
X78208714Y-125270520D01*
X78208716Y-125270520D01*
X78320520Y-125158716D01*
X78388030Y-125041784D01*
X78399577Y-125021785D01*
X78440500Y-124869057D01*
X78440500Y-124710943D01*
X78440500Y-112559060D01*
X78440501Y-112559047D01*
X78440501Y-112539098D01*
X78460186Y-112472059D01*
X78512990Y-112426304D01*
X78582148Y-112416360D01*
X78645704Y-112445385D01*
G37*
G04 #@! TD.AperFunction*
G04 #@! TA.AperFunction,Conductor*
G36*
X60739595Y-113360185D02*
G01*
X60785350Y-113412989D01*
X60796556Y-113464500D01*
X60796556Y-113519046D01*
X60796557Y-113519059D01*
X60796557Y-124765500D01*
X60776872Y-124832539D01*
X60724068Y-124878294D01*
X60672557Y-124889500D01*
X59222407Y-124889500D01*
X59155368Y-124869815D01*
X59110025Y-124817906D01*
X59097550Y-124791154D01*
X59084035Y-124762171D01*
X59075285Y-124749675D01*
X58948494Y-124568597D01*
X58781402Y-124401506D01*
X58781396Y-124401501D01*
X58595842Y-124271575D01*
X58552217Y-124216998D01*
X58545023Y-124147500D01*
X58576546Y-124085145D01*
X58595842Y-124068425D01*
X58631546Y-124043425D01*
X58781401Y-123938495D01*
X58948495Y-123771401D01*
X59084035Y-123577830D01*
X59183903Y-123363663D01*
X59245063Y-123135408D01*
X59265659Y-122900000D01*
X59245063Y-122664592D01*
X59191735Y-122465565D01*
X59183905Y-122436344D01*
X59183904Y-122436343D01*
X59183903Y-122436337D01*
X59084035Y-122222171D01*
X59075283Y-122209671D01*
X58948494Y-122028597D01*
X58781402Y-121861506D01*
X58781396Y-121861501D01*
X58595842Y-121731575D01*
X58552217Y-121676998D01*
X58545023Y-121607500D01*
X58576546Y-121545145D01*
X58595842Y-121528425D01*
X58679421Y-121469902D01*
X58781401Y-121398495D01*
X58948495Y-121231401D01*
X59084035Y-121037830D01*
X59183903Y-120823663D01*
X59245063Y-120595408D01*
X59265659Y-120360000D01*
X59245063Y-120124592D01*
X59198626Y-119951285D01*
X59183905Y-119896344D01*
X59183904Y-119896343D01*
X59183903Y-119896337D01*
X59084035Y-119682171D01*
X59079301Y-119675409D01*
X58948494Y-119488597D01*
X58781402Y-119321506D01*
X58781396Y-119321501D01*
X58595842Y-119191575D01*
X58552217Y-119136998D01*
X58545023Y-119067500D01*
X58576546Y-119005145D01*
X58595842Y-118988425D01*
X58670234Y-118936335D01*
X58781401Y-118858495D01*
X58948495Y-118691401D01*
X59084035Y-118497830D01*
X59183903Y-118283663D01*
X59245063Y-118055408D01*
X59265659Y-117820000D01*
X59245063Y-117584592D01*
X59183903Y-117356337D01*
X59084035Y-117142171D01*
X59079301Y-117135409D01*
X58948494Y-116948597D01*
X58781402Y-116781506D01*
X58781396Y-116781501D01*
X58595842Y-116651575D01*
X58552217Y-116596998D01*
X58545023Y-116527500D01*
X58576546Y-116465145D01*
X58595842Y-116448425D01*
X58730373Y-116354225D01*
X58781401Y-116318495D01*
X58948495Y-116151401D01*
X59084035Y-115957830D01*
X59183903Y-115743663D01*
X59245063Y-115515408D01*
X59265659Y-115280000D01*
X59262719Y-115246402D01*
X59245784Y-115052834D01*
X59245063Y-115044592D01*
X59198626Y-114871285D01*
X59183905Y-114816344D01*
X59183904Y-114816343D01*
X59183903Y-114816337D01*
X59084035Y-114602171D01*
X59084034Y-114602169D01*
X58948494Y-114408597D01*
X58781402Y-114241506D01*
X58781396Y-114241501D01*
X58595842Y-114111575D01*
X58552217Y-114056998D01*
X58545023Y-113987500D01*
X58576546Y-113925145D01*
X58595842Y-113908425D01*
X58631546Y-113883425D01*
X58781401Y-113778495D01*
X58948495Y-113611401D01*
X59084035Y-113417830D01*
X59086707Y-113412097D01*
X59132878Y-113359658D01*
X59199091Y-113340500D01*
X60672556Y-113340500D01*
X60739595Y-113360185D01*
G37*
G04 #@! TD.AperFunction*
G04 #@! TA.AperFunction,Conductor*
G36*
X73805703Y-111995384D02*
G01*
X73812177Y-112001412D01*
X74481284Y-112670520D01*
X74481286Y-112670521D01*
X74481290Y-112670524D01*
X74558326Y-112715000D01*
X74618216Y-112749577D01*
X74770943Y-112790501D01*
X74770945Y-112790501D01*
X74936654Y-112790501D01*
X74936670Y-112790500D01*
X77115500Y-112790500D01*
X77182539Y-112810185D01*
X77228294Y-112862989D01*
X77239500Y-112914500D01*
X77239500Y-124489903D01*
X77219815Y-124556942D01*
X77203181Y-124577584D01*
X76990084Y-124790681D01*
X76928761Y-124824166D01*
X76902403Y-124827000D01*
X71759091Y-124827000D01*
X71692052Y-124807315D01*
X71646711Y-124755409D01*
X71644037Y-124749675D01*
X71644034Y-124749670D01*
X71644033Y-124749669D01*
X71528179Y-124584211D01*
X71508494Y-124556097D01*
X71341402Y-124389006D01*
X71341396Y-124389001D01*
X71155842Y-124259075D01*
X71112217Y-124204498D01*
X71105023Y-124135000D01*
X71136546Y-124072645D01*
X71155842Y-124055925D01*
X71178026Y-124040391D01*
X71341401Y-123925995D01*
X71508495Y-123758901D01*
X71644035Y-123565330D01*
X71743903Y-123351163D01*
X71805063Y-123122908D01*
X71825659Y-122887500D01*
X71805063Y-122652092D01*
X71743903Y-122423837D01*
X71644035Y-122209671D01*
X71635282Y-122197171D01*
X71508493Y-122016096D01*
X71341402Y-121849006D01*
X71341396Y-121849001D01*
X71155842Y-121719075D01*
X71112217Y-121664498D01*
X71105023Y-121595000D01*
X71136546Y-121532645D01*
X71155842Y-121515925D01*
X71221569Y-121469902D01*
X71341401Y-121385995D01*
X71508495Y-121218901D01*
X71644035Y-121025330D01*
X71646707Y-121019597D01*
X71692878Y-120967158D01*
X71759091Y-120948000D01*
X72495831Y-120948000D01*
X72495847Y-120948001D01*
X72503443Y-120948001D01*
X72661554Y-120948001D01*
X72661557Y-120948001D01*
X72814285Y-120907077D01*
X72905463Y-120854435D01*
X72951216Y-120828020D01*
X73063020Y-120716216D01*
X73063020Y-120716214D01*
X73073224Y-120706011D01*
X73073228Y-120706006D01*
X73368713Y-120410521D01*
X73368716Y-120410520D01*
X73480520Y-120298716D01*
X73530639Y-120211904D01*
X73559577Y-120161785D01*
X73600500Y-120009057D01*
X73600500Y-119850943D01*
X73600500Y-112089097D01*
X73620185Y-112022058D01*
X73672989Y-111976303D01*
X73742147Y-111966359D01*
X73805703Y-111995384D01*
G37*
G04 #@! TD.AperFunction*
G04 #@! TA.AperFunction,Conductor*
G36*
X93208691Y-117961241D02*
G01*
X93208693Y-117961242D01*
X93367967Y-118000500D01*
X93367968Y-118000500D01*
X93532008Y-118000500D01*
X93532009Y-118000500D01*
X93691283Y-117961242D01*
X93691285Y-117961240D01*
X93695313Y-117960248D01*
X93754665Y-117960248D01*
X93758694Y-117961241D01*
X93758696Y-117961242D01*
X93917970Y-118000500D01*
X93917971Y-118000500D01*
X94082011Y-118000500D01*
X94082012Y-118000500D01*
X94241286Y-117961242D01*
X94241288Y-117961240D01*
X94245316Y-117960248D01*
X94304668Y-117960248D01*
X94308697Y-117961241D01*
X94308699Y-117961242D01*
X94467973Y-118000500D01*
X94467974Y-118000500D01*
X94632014Y-118000500D01*
X94632015Y-118000500D01*
X94791289Y-117961242D01*
X94791291Y-117961240D01*
X94795319Y-117960248D01*
X94854671Y-117960248D01*
X94858700Y-117961241D01*
X94858702Y-117961242D01*
X95017976Y-118000500D01*
X95017977Y-118000500D01*
X95182017Y-118000500D01*
X95182018Y-118000500D01*
X95341292Y-117961242D01*
X95341294Y-117961240D01*
X95345322Y-117960248D01*
X95404674Y-117960248D01*
X95408703Y-117961241D01*
X95408705Y-117961242D01*
X95480176Y-117978858D01*
X95540556Y-118014015D01*
X95572344Y-118076234D01*
X95574500Y-118099255D01*
X95574500Y-121921734D01*
X95554815Y-121988773D01*
X95516472Y-122026728D01*
X95367737Y-122120184D01*
X95240184Y-122247737D01*
X95144211Y-122400476D01*
X95084631Y-122570745D01*
X95084630Y-122570750D01*
X95064435Y-122749996D01*
X95064435Y-122750003D01*
X95084630Y-122929249D01*
X95084631Y-122929254D01*
X95144211Y-123099523D01*
X95226311Y-123230184D01*
X95240184Y-123252262D01*
X95367738Y-123379816D01*
X95458080Y-123436582D01*
X95474781Y-123447076D01*
X95520478Y-123475789D01*
X95642416Y-123518457D01*
X95690745Y-123535368D01*
X95690750Y-123535369D01*
X95826467Y-123550660D01*
X95864383Y-123554932D01*
X95928797Y-123581998D01*
X95968352Y-123639593D01*
X95974500Y-123678152D01*
X95974500Y-124668416D01*
X95954815Y-124735455D01*
X95902011Y-124781210D01*
X95832853Y-124791154D01*
X95769297Y-124762129D01*
X95743113Y-124730416D01*
X95720522Y-124691287D01*
X95720521Y-124691286D01*
X95720520Y-124691284D01*
X95608716Y-124579480D01*
X95608715Y-124579479D01*
X95604385Y-124575149D01*
X95604374Y-124575139D01*
X94870700Y-123841465D01*
X94837215Y-123780142D01*
X94835163Y-123767686D01*
X94825368Y-123680745D01*
X94765789Y-123510478D01*
X94669816Y-123357738D01*
X94542262Y-123230184D01*
X94389523Y-123134211D01*
X94219254Y-123074631D01*
X94219249Y-123074630D01*
X94040004Y-123054435D01*
X94039996Y-123054435D01*
X93860750Y-123074630D01*
X93860745Y-123074631D01*
X93690476Y-123134211D01*
X93537737Y-123230184D01*
X93410184Y-123357737D01*
X93314211Y-123510476D01*
X93252332Y-123687318D01*
X93250258Y-123686592D01*
X93221281Y-123738396D01*
X93159619Y-123771253D01*
X93089982Y-123765557D01*
X93034479Y-123723117D01*
X93010732Y-123657406D01*
X93010500Y-123649824D01*
X93010500Y-118090624D01*
X93030185Y-118023585D01*
X93082989Y-117977830D01*
X93104822Y-117970227D01*
X93141280Y-117961242D01*
X93141281Y-117961241D01*
X93145311Y-117960248D01*
X93204662Y-117960248D01*
X93208691Y-117961241D01*
G37*
G04 #@! TD.AperFunction*
G04 #@! TA.AperFunction,Conductor*
G36*
X98580703Y-116105384D02*
G01*
X98587181Y-116111416D01*
X100535641Y-118059876D01*
X100569126Y-118121199D01*
X100564142Y-118190891D01*
X100522270Y-118246824D01*
X100519084Y-118249132D01*
X100358594Y-118361508D01*
X100191505Y-118528597D01*
X100055965Y-118722169D01*
X100055964Y-118722171D01*
X99956098Y-118936335D01*
X99956094Y-118936344D01*
X99894938Y-119164586D01*
X99894936Y-119164596D01*
X99883430Y-119296113D01*
X99857977Y-119361181D01*
X99801386Y-119402160D01*
X99731624Y-119406038D01*
X99672221Y-119372986D01*
X98411819Y-118112584D01*
X98378334Y-118051261D01*
X98375500Y-118024903D01*
X98375500Y-116199097D01*
X98395185Y-116132058D01*
X98447989Y-116086303D01*
X98517147Y-116076359D01*
X98580703Y-116105384D01*
G37*
G04 #@! TD.AperFunction*
G04 #@! TA.AperFunction,Conductor*
G36*
X62709313Y-110490185D02*
G01*
X62755068Y-110542989D01*
X62765012Y-110612147D01*
X62735987Y-110675703D01*
X62729955Y-110682181D01*
X61308955Y-112103181D01*
X61247632Y-112136666D01*
X61221274Y-112139500D01*
X59199091Y-112139500D01*
X59132052Y-112119815D01*
X59086711Y-112067909D01*
X59084037Y-112062175D01*
X59084034Y-112062170D01*
X59084033Y-112062169D01*
X59016947Y-111966359D01*
X58948494Y-111868597D01*
X58781402Y-111701506D01*
X58781395Y-111701501D01*
X58587834Y-111565967D01*
X58587830Y-111565965D01*
X58561024Y-111553465D01*
X58373663Y-111466097D01*
X58373659Y-111466096D01*
X58373655Y-111466094D01*
X58145413Y-111404938D01*
X58145403Y-111404936D01*
X57910001Y-111384341D01*
X57909999Y-111384341D01*
X57674596Y-111404936D01*
X57674586Y-111404938D01*
X57446344Y-111466094D01*
X57446335Y-111466098D01*
X57232171Y-111565964D01*
X57232169Y-111565965D01*
X57038597Y-111701505D01*
X56871505Y-111868597D01*
X56735965Y-112062169D01*
X56735964Y-112062171D01*
X56636098Y-112276335D01*
X56636094Y-112276344D01*
X56574938Y-112504586D01*
X56574936Y-112504596D01*
X56554341Y-112739999D01*
X56554341Y-112740000D01*
X56574936Y-112975403D01*
X56574938Y-112975413D01*
X56636094Y-113203655D01*
X56636096Y-113203659D01*
X56636097Y-113203663D01*
X56722069Y-113388029D01*
X56735965Y-113417830D01*
X56735967Y-113417834D01*
X56796020Y-113503598D01*
X56862752Y-113598901D01*
X56871501Y-113611395D01*
X56871506Y-113611402D01*
X57038597Y-113778493D01*
X57038603Y-113778498D01*
X57224158Y-113908425D01*
X57267783Y-113963002D01*
X57274977Y-114032500D01*
X57243454Y-114094855D01*
X57224158Y-114111575D01*
X57038597Y-114241505D01*
X56871506Y-114408596D01*
X56735965Y-114602170D01*
X56735962Y-114602175D01*
X56733289Y-114607909D01*
X56687115Y-114660346D01*
X56620909Y-114679500D01*
X55982829Y-114679500D01*
X55915790Y-114659815D01*
X55870035Y-114607011D01*
X55859609Y-114541616D01*
X55875565Y-114400002D01*
X55875565Y-114399996D01*
X55855369Y-114220750D01*
X55855368Y-114220745D01*
X55795788Y-114050476D01*
X55730353Y-113946337D01*
X55699816Y-113897738D01*
X55572262Y-113770184D01*
X55572260Y-113770182D01*
X55572258Y-113770181D01*
X55508527Y-113730135D01*
X55462236Y-113677800D01*
X55450500Y-113625142D01*
X55450500Y-110594500D01*
X55470185Y-110527461D01*
X55522989Y-110481706D01*
X55574500Y-110470500D01*
X55880943Y-110470500D01*
X62642274Y-110470500D01*
X62709313Y-110490185D01*
G37*
G04 #@! TD.AperFunction*
G04 #@! TA.AperFunction,Conductor*
G36*
X77893834Y-100337916D02*
G01*
X77949767Y-100379788D01*
X77974184Y-100445252D01*
X77974500Y-100454098D01*
X77974500Y-104995388D01*
X77974499Y-104995406D01*
X77974499Y-105161112D01*
X77974498Y-105161112D01*
X77974499Y-105161115D01*
X78015423Y-105313843D01*
X78015424Y-105313845D01*
X78015423Y-105313845D01*
X78030811Y-105340496D01*
X78030813Y-105340498D01*
X78030814Y-105340500D01*
X78073258Y-105414016D01*
X78094479Y-105450773D01*
X78213349Y-105569643D01*
X78213355Y-105569648D01*
X79183181Y-106539474D01*
X79216666Y-106600797D01*
X79219500Y-106627155D01*
X79219500Y-111020903D01*
X79199815Y-111087942D01*
X79147011Y-111133697D01*
X79077853Y-111143641D01*
X79014297Y-111114616D01*
X79007819Y-111108584D01*
X78717590Y-110818355D01*
X78717588Y-110818352D01*
X78598717Y-110699481D01*
X78598716Y-110699480D01*
X78498973Y-110641894D01*
X78498972Y-110641893D01*
X78461783Y-110620422D01*
X78396703Y-110602984D01*
X78309057Y-110579499D01*
X78150943Y-110579499D01*
X78143347Y-110579499D01*
X78143331Y-110579500D01*
X75920098Y-110579500D01*
X75853059Y-110559815D01*
X75832417Y-110543181D01*
X75386819Y-110097583D01*
X75353334Y-110036260D01*
X75350500Y-110009902D01*
X75350500Y-103924500D01*
X75370185Y-103857461D01*
X75422989Y-103811706D01*
X75474500Y-103800500D01*
X76061860Y-103800500D01*
X76061876Y-103800501D01*
X76069472Y-103800501D01*
X76227583Y-103800501D01*
X76227586Y-103800501D01*
X76380314Y-103759577D01*
X76451087Y-103718716D01*
X76517245Y-103680520D01*
X76629049Y-103568716D01*
X76629049Y-103568714D01*
X76639253Y-103558511D01*
X76639257Y-103558506D01*
X77078506Y-103119257D01*
X77078511Y-103119253D01*
X77088714Y-103109049D01*
X77088716Y-103109049D01*
X77200520Y-102997245D01*
X77256964Y-102899481D01*
X77279577Y-102860314D01*
X77320501Y-102707586D01*
X77320501Y-102549472D01*
X77320501Y-102541877D01*
X77320500Y-102541859D01*
X77320500Y-102284270D01*
X77328557Y-102240301D01*
X77380688Y-102102845D01*
X77400461Y-101940000D01*
X77380688Y-101777155D01*
X77322518Y-101623774D01*
X77229332Y-101488771D01*
X77229329Y-101488768D01*
X77229327Y-101488766D01*
X77106548Y-101379993D01*
X76961291Y-101303756D01*
X76802022Y-101264500D01*
X76802021Y-101264500D01*
X76637979Y-101264500D01*
X76637978Y-101264500D01*
X76478708Y-101303756D01*
X76333451Y-101379993D01*
X76210672Y-101488766D01*
X76210666Y-101488773D01*
X76117483Y-101623771D01*
X76059312Y-101777154D01*
X76059311Y-101777157D01*
X76039539Y-101939999D01*
X76039539Y-101940000D01*
X76059311Y-102102842D01*
X76059312Y-102102845D01*
X76111442Y-102240301D01*
X76119500Y-102284270D01*
X76119500Y-102328432D01*
X76099815Y-102395471D01*
X76083181Y-102416113D01*
X75936113Y-102563181D01*
X75874790Y-102596666D01*
X75848432Y-102599500D01*
X75136670Y-102599500D01*
X75136654Y-102599499D01*
X75129058Y-102599499D01*
X74970943Y-102599499D01*
X74894579Y-102619961D01*
X74818214Y-102640423D01*
X74818209Y-102640426D01*
X74681290Y-102719475D01*
X74681282Y-102719481D01*
X74436489Y-102964274D01*
X74410815Y-102983976D01*
X74401285Y-102989478D01*
X74393519Y-102997245D01*
X74381284Y-103009480D01*
X74269481Y-103121282D01*
X74269479Y-103121284D01*
X74250407Y-103154318D01*
X74242346Y-103168282D01*
X74241885Y-103169079D01*
X74191319Y-103217293D01*
X74122712Y-103230515D01*
X74057848Y-103204547D01*
X74017320Y-103147633D01*
X74010500Y-103107077D01*
X74010500Y-100990097D01*
X74030185Y-100923058D01*
X74046819Y-100902416D01*
X74422416Y-100526819D01*
X74483739Y-100493334D01*
X74510097Y-100490500D01*
X77303331Y-100490500D01*
X77303347Y-100490501D01*
X77310943Y-100490501D01*
X77469054Y-100490501D01*
X77469057Y-100490501D01*
X77621785Y-100449577D01*
X77676162Y-100418182D01*
X77758716Y-100370520D01*
X77762819Y-100366417D01*
X77824142Y-100332932D01*
X77893834Y-100337916D01*
G37*
G04 #@! TD.AperFunction*
G04 #@! TA.AperFunction,Conductor*
G36*
X72318834Y-104612914D02*
G01*
X72374767Y-104654786D01*
X72399184Y-104720250D01*
X72399500Y-104729096D01*
X72399500Y-107981225D01*
X72379815Y-108048264D01*
X72327011Y-108094019D01*
X72269522Y-108102934D01*
X72269522Y-108104500D01*
X72097978Y-108104500D01*
X71938708Y-108143756D01*
X71793451Y-108219993D01*
X71670668Y-108328769D01*
X71670667Y-108328771D01*
X71629544Y-108388347D01*
X71615192Y-108405571D01*
X71613097Y-108407665D01*
X71609480Y-108411284D01*
X71609478Y-108411286D01*
X70585311Y-109435452D01*
X70523988Y-109468937D01*
X70454296Y-109463953D01*
X70398363Y-109422081D01*
X70395580Y-109418211D01*
X70392518Y-109413776D01*
X70392518Y-109413774D01*
X70299332Y-109278771D01*
X70299329Y-109278768D01*
X70299327Y-109278766D01*
X70176548Y-109169993D01*
X70045638Y-109101286D01*
X70031295Y-109093758D01*
X70031294Y-109093757D01*
X70031291Y-109093756D01*
X69872022Y-109054500D01*
X69872021Y-109054500D01*
X69707979Y-109054500D01*
X69707978Y-109054500D01*
X69544673Y-109094751D01*
X69485323Y-109094751D01*
X69322019Y-109054500D01*
X69322018Y-109054500D01*
X69157976Y-109054500D01*
X69157975Y-109054500D01*
X68994670Y-109094751D01*
X68935320Y-109094751D01*
X68772016Y-109054500D01*
X68772015Y-109054500D01*
X68607973Y-109054500D01*
X68607972Y-109054500D01*
X68441416Y-109095553D01*
X68440733Y-109092783D01*
X68384280Y-109097121D01*
X68378602Y-109095453D01*
X68378578Y-109095553D01*
X68212022Y-109054500D01*
X68212021Y-109054500D01*
X68074096Y-109054500D01*
X68007057Y-109034815D01*
X67961302Y-108982011D01*
X67951358Y-108912853D01*
X67980383Y-108849297D01*
X67986415Y-108842819D01*
X69779598Y-107049636D01*
X72187821Y-104641413D01*
X72249142Y-104607930D01*
X72318834Y-104612914D01*
G37*
G04 #@! TD.AperFunction*
G04 #@! TA.AperFunction,Conductor*
G36*
X80735703Y-104075384D02*
G01*
X80742181Y-104081416D01*
X80873181Y-104212416D01*
X80906666Y-104273739D01*
X80909500Y-104300097D01*
X80909500Y-104570902D01*
X80889815Y-104637941D01*
X80837011Y-104683696D01*
X80767853Y-104693640D01*
X80704297Y-104664615D01*
X80697819Y-104658583D01*
X80566819Y-104527583D01*
X80533334Y-104466260D01*
X80530500Y-104439902D01*
X80530500Y-104169097D01*
X80550185Y-104102058D01*
X80602989Y-104056303D01*
X80672147Y-104046359D01*
X80735703Y-104075384D01*
G37*
G04 #@! TD.AperFunction*
G04 #@! TA.AperFunction,Conductor*
G36*
X112064837Y-90020916D02*
G01*
X112110694Y-90073631D01*
X112122000Y-90125361D01*
X112122000Y-148213038D01*
X112121220Y-148226923D01*
X112111040Y-148317264D01*
X112104862Y-148344333D01*
X112077148Y-148423537D01*
X112065100Y-148448555D01*
X112020457Y-148519604D01*
X112003144Y-148541313D01*
X111943813Y-148600644D01*
X111922104Y-148617957D01*
X111851055Y-148662600D01*
X111826037Y-148674648D01*
X111746833Y-148702362D01*
X111719764Y-148708540D01*
X111639575Y-148717576D01*
X111629421Y-148718720D01*
X111615538Y-148719500D01*
X53279462Y-148719500D01*
X53265578Y-148718720D01*
X53253053Y-148717308D01*
X53175235Y-148708540D01*
X53148166Y-148702362D01*
X53068962Y-148674648D01*
X53043944Y-148662600D01*
X52972895Y-148617957D01*
X52951186Y-148600644D01*
X52891855Y-148541313D01*
X52874542Y-148519604D01*
X52829899Y-148448555D01*
X52817851Y-148423537D01*
X52790646Y-148345789D01*
X52790136Y-148344331D01*
X52783959Y-148317263D01*
X52773780Y-148226922D01*
X52773000Y-148213038D01*
X52773000Y-115069054D01*
X53849498Y-115069054D01*
X53890423Y-115221785D01*
X53899054Y-115236735D01*
X53909600Y-115255000D01*
X53916817Y-115267500D01*
X53969479Y-115358714D01*
X53969481Y-115358717D01*
X54088349Y-115477585D01*
X54088355Y-115477590D01*
X54255139Y-115644374D01*
X54255149Y-115644385D01*
X54259479Y-115648715D01*
X54259480Y-115648716D01*
X54371284Y-115760520D01*
X54438800Y-115799500D01*
X54508215Y-115839577D01*
X54660943Y-115880501D01*
X54660946Y-115880501D01*
X54826653Y-115880501D01*
X54826669Y-115880500D01*
X56620909Y-115880500D01*
X56687948Y-115900185D01*
X56733292Y-115952097D01*
X56735965Y-115957830D01*
X56862753Y-116138902D01*
X56871501Y-116151395D01*
X56871506Y-116151402D01*
X57038597Y-116318493D01*
X57038603Y-116318498D01*
X57224158Y-116448425D01*
X57267783Y-116503002D01*
X57274977Y-116572500D01*
X57243454Y-116634855D01*
X57224158Y-116651575D01*
X57038597Y-116781505D01*
X56871505Y-116948597D01*
X56735965Y-117142169D01*
X56735964Y-117142171D01*
X56636098Y-117356335D01*
X56636094Y-117356344D01*
X56574938Y-117584586D01*
X56574936Y-117584596D01*
X56554341Y-117819999D01*
X56554341Y-117820000D01*
X56574936Y-118055403D01*
X56574938Y-118055413D01*
X56636094Y-118283655D01*
X56636096Y-118283659D01*
X56636097Y-118283663D01*
X56719609Y-118462755D01*
X56735965Y-118497830D01*
X56735967Y-118497834D01*
X56784823Y-118567607D01*
X56862752Y-118678901D01*
X56871501Y-118691395D01*
X56871506Y-118691402D01*
X57038597Y-118858493D01*
X57038603Y-118858498D01*
X57224158Y-118988425D01*
X57267783Y-119043002D01*
X57274977Y-119112500D01*
X57243454Y-119174855D01*
X57224158Y-119191575D01*
X57038597Y-119321505D01*
X56871505Y-119488597D01*
X56735965Y-119682169D01*
X56735964Y-119682171D01*
X56636098Y-119896335D01*
X56636094Y-119896344D01*
X56574938Y-120124586D01*
X56574936Y-120124596D01*
X56554341Y-120359999D01*
X56554341Y-120360000D01*
X56574936Y-120595403D01*
X56574938Y-120595413D01*
X56636094Y-120823655D01*
X56636096Y-120823659D01*
X56636097Y-120823663D01*
X56718762Y-121000939D01*
X56735965Y-121037830D01*
X56735967Y-121037834D01*
X56820847Y-121159054D01*
X56862752Y-121218901D01*
X56871501Y-121231395D01*
X56871506Y-121231402D01*
X57038597Y-121398493D01*
X57038603Y-121398498D01*
X57224158Y-121528425D01*
X57267783Y-121583002D01*
X57274977Y-121652500D01*
X57243454Y-121714855D01*
X57224158Y-121731575D01*
X57038597Y-121861505D01*
X56871505Y-122028597D01*
X56735965Y-122222169D01*
X56735964Y-122222171D01*
X56636098Y-122436335D01*
X56636094Y-122436344D01*
X56574938Y-122664586D01*
X56574936Y-122664596D01*
X56554341Y-122899999D01*
X56554341Y-122900000D01*
X56574936Y-123135403D01*
X56574938Y-123135413D01*
X56636094Y-123363655D01*
X56636096Y-123363659D01*
X56636097Y-123363663D01*
X56725583Y-123555565D01*
X56735965Y-123577830D01*
X56735967Y-123577834D01*
X56808027Y-123680745D01*
X56871401Y-123771253D01*
X56871501Y-123771395D01*
X56871506Y-123771402D01*
X57038597Y-123938493D01*
X57038603Y-123938498D01*
X57224158Y-124068425D01*
X57267783Y-124123002D01*
X57274977Y-124192500D01*
X57243454Y-124254855D01*
X57224158Y-124271575D01*
X57038597Y-124401505D01*
X56871505Y-124568597D01*
X56735965Y-124762169D01*
X56735964Y-124762171D01*
X56636098Y-124976335D01*
X56636094Y-124976344D01*
X56574938Y-125204586D01*
X56574936Y-125204596D01*
X56554341Y-125439999D01*
X56554341Y-125440000D01*
X56574936Y-125675403D01*
X56574938Y-125675413D01*
X56636094Y-125903655D01*
X56636096Y-125903659D01*
X56636097Y-125903663D01*
X56723221Y-126090500D01*
X56735965Y-126117830D01*
X56735967Y-126117834D01*
X56819348Y-126236913D01*
X56871505Y-126311401D01*
X57038599Y-126478495D01*
X57116699Y-126533181D01*
X57232165Y-126614032D01*
X57232167Y-126614033D01*
X57232170Y-126614035D01*
X57446337Y-126713903D01*
X57446343Y-126713904D01*
X57446344Y-126713905D01*
X57501285Y-126728626D01*
X57674592Y-126775063D01*
X57862918Y-126791539D01*
X57909999Y-126795659D01*
X57910000Y-126795659D01*
X57910001Y-126795659D01*
X57949234Y-126792226D01*
X58145408Y-126775063D01*
X58373663Y-126713903D01*
X58587830Y-126614035D01*
X58781401Y-126478495D01*
X58948495Y-126311401D01*
X59060258Y-126151787D01*
X59066147Y-126143377D01*
X59120724Y-126099752D01*
X59167722Y-126090500D01*
X60943331Y-126090500D01*
X60943347Y-126090501D01*
X60950943Y-126090501D01*
X61109054Y-126090501D01*
X61109057Y-126090501D01*
X61261785Y-126049577D01*
X61261787Y-126049575D01*
X61261789Y-126049575D01*
X61261790Y-126049574D01*
X61313745Y-126019578D01*
X61313746Y-126019577D01*
X61398716Y-125970520D01*
X61510520Y-125858716D01*
X61510520Y-125858714D01*
X61520724Y-125848511D01*
X61520728Y-125848506D01*
X61755563Y-125613671D01*
X61755568Y-125613667D01*
X61765771Y-125603463D01*
X61765773Y-125603463D01*
X61877577Y-125491659D01*
X61914619Y-125427500D01*
X61944492Y-125375759D01*
X61944493Y-125375757D01*
X61953534Y-125360097D01*
X61956634Y-125354728D01*
X61997558Y-125202000D01*
X61997558Y-125043886D01*
X61997558Y-125036291D01*
X61997557Y-125036273D01*
X61997557Y-122582638D01*
X62017242Y-122515599D01*
X62070046Y-122469844D01*
X62135441Y-122459418D01*
X62189997Y-122465565D01*
X62190000Y-122465565D01*
X62190004Y-122465565D01*
X62369249Y-122445369D01*
X62369252Y-122445368D01*
X62369255Y-122445368D01*
X62539522Y-122385789D01*
X62692262Y-122289816D01*
X62819816Y-122162262D01*
X62915789Y-122009522D01*
X62975368Y-121839255D01*
X62985161Y-121752329D01*
X63012226Y-121687918D01*
X63020690Y-121678543D01*
X63128506Y-121570728D01*
X63128511Y-121570724D01*
X63138714Y-121560520D01*
X63138716Y-121560520D01*
X63250520Y-121448716D01*
X63315885Y-121335500D01*
X63329577Y-121311785D01*
X63370501Y-121159057D01*
X63370501Y-121000943D01*
X63370501Y-120993348D01*
X63370500Y-120993330D01*
X63370500Y-119131568D01*
X63390185Y-119064529D01*
X63406819Y-119043887D01*
X63540178Y-118910528D01*
X63730520Y-118720187D01*
X63809577Y-118583255D01*
X63850501Y-118430528D01*
X63850501Y-118272413D01*
X63850501Y-118264818D01*
X63850500Y-118264800D01*
X63850500Y-113030096D01*
X63870185Y-112963057D01*
X63886814Y-112942420D01*
X65084689Y-111744544D01*
X65146010Y-111711061D01*
X65215702Y-111716045D01*
X65271635Y-111757917D01*
X65274418Y-111761787D01*
X65277481Y-111766225D01*
X65277482Y-111766226D01*
X65370668Y-111901229D01*
X65370670Y-111901231D01*
X65370672Y-111901233D01*
X65493451Y-112010006D01*
X65493452Y-112010006D01*
X65493454Y-112010008D01*
X65638705Y-112086242D01*
X65638707Y-112086242D01*
X65638708Y-112086243D01*
X65797978Y-112125500D01*
X65797979Y-112125500D01*
X65962022Y-112125500D01*
X66041658Y-112105871D01*
X66121295Y-112086242D01*
X66129181Y-112082102D01*
X66197688Y-112068374D01*
X66244438Y-112082100D01*
X66252330Y-112086242D01*
X66331967Y-112105871D01*
X66411603Y-112125500D01*
X66411604Y-112125500D01*
X66575648Y-112125500D01*
X66575648Y-112125499D01*
X66714990Y-112091154D01*
X66784791Y-112094222D01*
X66801805Y-112101545D01*
X66802114Y-112101662D01*
X66802116Y-112101662D01*
X66802117Y-112101663D01*
X66875762Y-112119815D01*
X66961390Y-112140921D01*
X66961391Y-112140921D01*
X67125434Y-112140921D01*
X67291991Y-112099868D01*
X67292342Y-112101292D01*
X67353640Y-112096558D01*
X67357595Y-112097463D01*
X67511362Y-112135364D01*
X67511363Y-112135365D01*
X67586037Y-112135365D01*
X67653076Y-112155050D01*
X67698831Y-112207854D01*
X67708775Y-112277012D01*
X67679750Y-112340568D01*
X67673718Y-112347046D01*
X67389481Y-112631282D01*
X67389479Y-112631285D01*
X67348778Y-112701783D01*
X67348777Y-112701785D01*
X67310423Y-112768214D01*
X67304452Y-112790500D01*
X67269499Y-112920943D01*
X67269499Y-112920945D01*
X67269499Y-113089046D01*
X67269500Y-113089059D01*
X67269500Y-121683330D01*
X67269499Y-121683348D01*
X67269499Y-121849054D01*
X67269498Y-121849054D01*
X67291328Y-121930524D01*
X67310423Y-122001785D01*
X67338549Y-122050500D01*
X67339358Y-122051900D01*
X67339359Y-122051904D01*
X67339360Y-122051904D01*
X67389479Y-122138714D01*
X67389481Y-122138717D01*
X67508349Y-122257585D01*
X67508354Y-122257589D01*
X68618784Y-123368020D01*
X68618786Y-123368021D01*
X68618790Y-123368024D01*
X68639215Y-123379816D01*
X68755716Y-123447077D01*
X68908443Y-123488001D01*
X68908445Y-123488001D01*
X69074154Y-123488001D01*
X69074170Y-123488000D01*
X69180909Y-123488000D01*
X69247948Y-123507685D01*
X69293292Y-123559597D01*
X69295965Y-123565330D01*
X69422753Y-123746402D01*
X69431501Y-123758895D01*
X69431506Y-123758902D01*
X69598597Y-123925993D01*
X69598603Y-123925998D01*
X69784158Y-124055925D01*
X69827783Y-124110502D01*
X69834977Y-124180000D01*
X69803454Y-124242355D01*
X69784158Y-124259075D01*
X69598597Y-124389005D01*
X69431505Y-124556097D01*
X69295965Y-124749669D01*
X69295964Y-124749671D01*
X69196098Y-124963835D01*
X69196094Y-124963844D01*
X69134938Y-125192086D01*
X69134936Y-125192096D01*
X69114341Y-125427499D01*
X69114341Y-125427500D01*
X69134936Y-125662903D01*
X69134938Y-125662913D01*
X69196094Y-125891155D01*
X69196096Y-125891159D01*
X69196097Y-125891163D01*
X69269966Y-126049575D01*
X69295965Y-126105330D01*
X69295967Y-126105334D01*
X69348911Y-126180945D01*
X69424373Y-126288716D01*
X69431501Y-126298895D01*
X69431506Y-126298902D01*
X69490423Y-126357819D01*
X69523908Y-126419142D01*
X69518924Y-126488834D01*
X69477052Y-126544767D01*
X69411588Y-126569184D01*
X69402742Y-126569500D01*
X67320940Y-126569500D01*
X67280019Y-126580464D01*
X67280019Y-126580465D01*
X67248047Y-126589032D01*
X67168214Y-126610423D01*
X67168209Y-126610426D01*
X67031291Y-126689475D01*
X67031276Y-126689486D01*
X67028914Y-126691848D01*
X67026435Y-126693201D01*
X67024839Y-126694426D01*
X67024647Y-126694176D01*
X66967587Y-126725325D01*
X66955129Y-126727376D01*
X66890750Y-126734630D01*
X66720478Y-126794210D01*
X66567737Y-126890184D01*
X66440184Y-127017737D01*
X66344211Y-127170476D01*
X66284631Y-127340745D01*
X66284630Y-127340750D01*
X66264435Y-127519996D01*
X66264435Y-127520003D01*
X66284630Y-127699249D01*
X66284631Y-127699254D01*
X66344211Y-127869523D01*
X66440184Y-128022262D01*
X66567737Y-128149815D01*
X66567741Y-128149818D01*
X66568834Y-128150505D01*
X66569389Y-128151132D01*
X66573184Y-128154159D01*
X66572654Y-128154823D01*
X66615127Y-128202838D01*
X66625777Y-128271891D01*
X66597403Y-128335740D01*
X66539015Y-128374114D01*
X66502865Y-128379500D01*
X58996669Y-128379500D01*
X58996653Y-128379499D01*
X58989057Y-128379499D01*
X58830943Y-128379499D01*
X58751010Y-128400917D01*
X58678216Y-128420422D01*
X58639925Y-128442530D01*
X58639924Y-128442529D01*
X58541287Y-128499477D01*
X58541282Y-128499481D01*
X55779481Y-131261282D01*
X55779479Y-131261285D01*
X55774991Y-131269059D01*
X55738962Y-131331465D01*
X55729361Y-131348094D01*
X55729359Y-131348096D01*
X55700425Y-131398209D01*
X55700424Y-131398210D01*
X55684544Y-131457472D01*
X55659499Y-131550943D01*
X55659499Y-131550945D01*
X55659499Y-131719046D01*
X55659500Y-131719059D01*
X55659500Y-132783330D01*
X55659499Y-132783348D01*
X55659499Y-132949054D01*
X55659498Y-132949054D01*
X55700423Y-133101785D01*
X55729358Y-133151900D01*
X55729359Y-133151904D01*
X55729360Y-133151904D01*
X55779480Y-133238716D01*
X55879480Y-133338716D01*
X55991284Y-133450520D01*
X55991286Y-133450521D01*
X55991290Y-133450524D01*
X56115951Y-133522496D01*
X56128216Y-133529577D01*
X56240019Y-133559534D01*
X56280942Y-133570500D01*
X56280943Y-133570500D01*
X56610909Y-133570500D01*
X56677948Y-133590185D01*
X56723292Y-133642097D01*
X56725965Y-133647830D01*
X56725966Y-133647831D01*
X56861501Y-133841395D01*
X56861506Y-133841402D01*
X57028597Y-134008493D01*
X57028603Y-134008498D01*
X57214158Y-134138425D01*
X57257783Y-134193002D01*
X57264977Y-134262500D01*
X57233454Y-134324855D01*
X57214158Y-134341575D01*
X57028597Y-134471505D01*
X56861505Y-134638597D01*
X56725965Y-134832169D01*
X56725964Y-134832171D01*
X56626098Y-135046335D01*
X56626094Y-135046344D01*
X56564938Y-135274586D01*
X56564936Y-135274596D01*
X56544341Y-135509999D01*
X56544341Y-135510000D01*
X56564936Y-135745403D01*
X56564938Y-135745413D01*
X56626094Y-135973655D01*
X56626096Y-135973659D01*
X56626097Y-135973663D01*
X56689906Y-136110501D01*
X56725965Y-136187830D01*
X56725967Y-136187834D01*
X56861501Y-136381395D01*
X56861506Y-136381402D01*
X57028597Y-136548493D01*
X57028603Y-136548498D01*
X57214158Y-136678425D01*
X57257783Y-136733002D01*
X57264977Y-136802500D01*
X57233454Y-136864855D01*
X57214158Y-136881575D01*
X57028597Y-137011505D01*
X56861505Y-137178597D01*
X56725965Y-137372169D01*
X56725964Y-137372171D01*
X56626098Y-137586335D01*
X56626094Y-137586344D01*
X56564938Y-137814586D01*
X56564936Y-137814596D01*
X56544341Y-138049999D01*
X56544341Y-138050000D01*
X56564936Y-138285403D01*
X56564938Y-138285413D01*
X56626094Y-138513655D01*
X56626096Y-138513659D01*
X56626097Y-138513663D01*
X56694569Y-138660501D01*
X56725965Y-138727830D01*
X56725967Y-138727834D01*
X56834281Y-138882521D01*
X56861501Y-138921396D01*
X56861506Y-138921402D01*
X57028597Y-139088493D01*
X57028603Y-139088498D01*
X57214158Y-139218425D01*
X57257783Y-139273002D01*
X57264977Y-139342500D01*
X57233454Y-139404855D01*
X57214158Y-139421575D01*
X57028597Y-139551505D01*
X56861505Y-139718597D01*
X56725965Y-139912169D01*
X56725964Y-139912171D01*
X56626098Y-140126335D01*
X56626094Y-140126344D01*
X56564938Y-140354586D01*
X56564936Y-140354596D01*
X56544341Y-140589999D01*
X56544341Y-140590000D01*
X56564936Y-140825403D01*
X56564938Y-140825413D01*
X56626094Y-141053655D01*
X56626096Y-141053659D01*
X56626097Y-141053663D01*
X56689906Y-141190501D01*
X56725965Y-141267830D01*
X56725967Y-141267834D01*
X56861501Y-141461395D01*
X56861506Y-141461402D01*
X57028597Y-141628493D01*
X57028603Y-141628498D01*
X57214158Y-141758425D01*
X57257783Y-141813002D01*
X57264977Y-141882500D01*
X57233454Y-141944855D01*
X57214158Y-141961575D01*
X57028597Y-142091505D01*
X56861505Y-142258597D01*
X56725965Y-142452169D01*
X56725964Y-142452171D01*
X56626098Y-142666335D01*
X56626094Y-142666344D01*
X56564938Y-142894586D01*
X56564936Y-142894596D01*
X56544341Y-143129999D01*
X56544341Y-143130000D01*
X56564936Y-143365403D01*
X56564938Y-143365413D01*
X56626094Y-143593655D01*
X56626096Y-143593659D01*
X56626097Y-143593663D01*
X56689906Y-143730501D01*
X56725965Y-143807830D01*
X56725967Y-143807834D01*
X56861501Y-144001395D01*
X56861506Y-144001402D01*
X57028597Y-144168493D01*
X57028603Y-144168498D01*
X57214158Y-144298425D01*
X57257783Y-144353002D01*
X57264977Y-144422500D01*
X57233454Y-144484855D01*
X57214158Y-144501575D01*
X57028597Y-144631505D01*
X56861505Y-144798597D01*
X56725965Y-144992169D01*
X56725964Y-144992171D01*
X56626098Y-145206335D01*
X56626094Y-145206344D01*
X56564938Y-145434586D01*
X56564936Y-145434596D01*
X56544341Y-145669999D01*
X56544341Y-145670000D01*
X56564936Y-145905403D01*
X56564938Y-145905413D01*
X56626094Y-146133655D01*
X56626096Y-146133659D01*
X56626097Y-146133663D01*
X56725965Y-146347830D01*
X56725967Y-146347834D01*
X56861501Y-146541395D01*
X56861506Y-146541402D01*
X57032427Y-146712324D01*
X57030748Y-146714002D01*
X57063888Y-146763756D01*
X57069500Y-146800637D01*
X57069500Y-146853330D01*
X57069499Y-146853348D01*
X57069499Y-147019054D01*
X57069498Y-147019054D01*
X57110423Y-147171785D01*
X57139358Y-147221900D01*
X57139359Y-147221904D01*
X57139360Y-147221904D01*
X57189479Y-147308714D01*
X57189481Y-147308717D01*
X57308349Y-147427585D01*
X57308355Y-147427590D01*
X57865139Y-147984374D01*
X57865149Y-147984385D01*
X57869479Y-147988715D01*
X57869480Y-147988716D01*
X57981284Y-148100520D01*
X58068095Y-148150639D01*
X58068097Y-148150641D01*
X58118213Y-148179576D01*
X58118215Y-148179577D01*
X58270942Y-148220500D01*
X58270943Y-148220500D01*
X86677588Y-148220500D01*
X86744627Y-148240185D01*
X86754903Y-148247555D01*
X86757736Y-148249814D01*
X86757738Y-148249816D01*
X86865079Y-148317263D01*
X86908160Y-148344333D01*
X86910478Y-148345789D01*
X87080745Y-148405368D01*
X87080750Y-148405369D01*
X87259996Y-148425565D01*
X87260000Y-148425565D01*
X87260004Y-148425565D01*
X87439249Y-148405369D01*
X87439252Y-148405368D01*
X87439255Y-148405368D01*
X87609522Y-148345789D01*
X87762262Y-148249816D01*
X87889816Y-148122262D01*
X87985789Y-147969522D01*
X88045368Y-147799255D01*
X88065565Y-147620000D01*
X88045368Y-147440745D01*
X87985789Y-147270478D01*
X87985788Y-147270475D01*
X87929235Y-147180473D01*
X87910234Y-147113236D01*
X87930601Y-147046401D01*
X87983869Y-147001186D01*
X88034228Y-146990500D01*
X92363331Y-146990500D01*
X92363347Y-146990501D01*
X92370943Y-146990501D01*
X92529054Y-146990501D01*
X92529057Y-146990501D01*
X92681785Y-146949577D01*
X92731904Y-146920639D01*
X92818716Y-146870520D01*
X92930520Y-146758716D01*
X92930520Y-146758714D01*
X92940728Y-146748507D01*
X92940730Y-146748504D01*
X93718506Y-145970728D01*
X93718511Y-145970724D01*
X93728714Y-145960520D01*
X93728716Y-145960520D01*
X93840520Y-145848716D01*
X93919577Y-145711784D01*
X93960500Y-145559057D01*
X93960500Y-132974999D01*
X94784341Y-132974999D01*
X94784341Y-132975000D01*
X94804936Y-133210403D01*
X94804938Y-133210413D01*
X94866094Y-133438655D01*
X94866096Y-133438659D01*
X94866097Y-133438663D01*
X94931740Y-133579434D01*
X94965965Y-133652830D01*
X94965967Y-133652834D01*
X95074281Y-133807521D01*
X95101505Y-133846401D01*
X95268599Y-134013495D01*
X95365384Y-134081265D01*
X95462165Y-134149032D01*
X95462167Y-134149033D01*
X95462170Y-134149035D01*
X95676337Y-134248903D01*
X95904592Y-134310063D01*
X96092918Y-134326539D01*
X96139999Y-134330659D01*
X96140000Y-134330659D01*
X96140001Y-134330659D01*
X96179234Y-134327226D01*
X96375408Y-134310063D01*
X96603663Y-134248903D01*
X96817830Y-134149035D01*
X97011401Y-134013495D01*
X97178495Y-133846401D01*
X97308425Y-133660842D01*
X97363002Y-133617217D01*
X97432500Y-133610023D01*
X97494855Y-133641546D01*
X97511575Y-133660842D01*
X97641500Y-133846395D01*
X97641505Y-133846401D01*
X97808599Y-134013495D01*
X97905384Y-134081265D01*
X98002165Y-134149032D01*
X98002167Y-134149033D01*
X98002170Y-134149035D01*
X98216337Y-134248903D01*
X98444592Y-134310063D01*
X98632918Y-134326539D01*
X98679999Y-134330659D01*
X98680000Y-134330659D01*
X98680001Y-134330659D01*
X98719234Y-134327226D01*
X98915408Y-134310063D01*
X99143663Y-134248903D01*
X99357830Y-134149035D01*
X99551401Y-134013495D01*
X99718495Y-133846401D01*
X99848425Y-133660842D01*
X99903002Y-133617217D01*
X99972500Y-133610023D01*
X100034855Y-133641546D01*
X100051575Y-133660842D01*
X100181500Y-133846395D01*
X100181505Y-133846401D01*
X100348599Y-134013495D01*
X100445384Y-134081265D01*
X100542165Y-134149032D01*
X100542167Y-134149033D01*
X100542170Y-134149035D01*
X100756337Y-134248903D01*
X100984592Y-134310063D01*
X101172918Y-134326539D01*
X101219999Y-134330659D01*
X101220000Y-134330659D01*
X101220001Y-134330659D01*
X101259234Y-134327226D01*
X101455408Y-134310063D01*
X101683663Y-134248903D01*
X101897830Y-134149035D01*
X102091401Y-134013495D01*
X102258495Y-133846401D01*
X102388425Y-133660842D01*
X102443002Y-133617217D01*
X102512500Y-133610023D01*
X102574855Y-133641546D01*
X102591575Y-133660842D01*
X102721500Y-133846395D01*
X102721505Y-133846401D01*
X102888599Y-134013495D01*
X102985384Y-134081265D01*
X103082165Y-134149032D01*
X103082167Y-134149033D01*
X103082170Y-134149035D01*
X103296337Y-134248903D01*
X103524592Y-134310063D01*
X103712918Y-134326539D01*
X103759999Y-134330659D01*
X103760000Y-134330659D01*
X103760001Y-134330659D01*
X103799234Y-134327226D01*
X103995408Y-134310063D01*
X104223663Y-134248903D01*
X104437830Y-134149035D01*
X104631401Y-134013495D01*
X104798495Y-133846401D01*
X104928425Y-133660842D01*
X104983002Y-133617217D01*
X105052500Y-133610023D01*
X105114855Y-133641546D01*
X105131575Y-133660842D01*
X105261500Y-133846395D01*
X105261505Y-133846401D01*
X105428599Y-134013495D01*
X105525384Y-134081265D01*
X105622165Y-134149032D01*
X105622167Y-134149033D01*
X105622170Y-134149035D01*
X105836337Y-134248903D01*
X106064592Y-134310063D01*
X106252918Y-134326539D01*
X106299999Y-134330659D01*
X106300000Y-134330659D01*
X106300001Y-134330659D01*
X106339234Y-134327226D01*
X106535408Y-134310063D01*
X106763663Y-134248903D01*
X106977830Y-134149035D01*
X107171401Y-134013495D01*
X107338495Y-133846401D01*
X107468425Y-133660842D01*
X107523002Y-133617217D01*
X107592500Y-133610023D01*
X107654855Y-133641546D01*
X107671575Y-133660842D01*
X107801500Y-133846395D01*
X107801505Y-133846401D01*
X107968599Y-134013495D01*
X108065384Y-134081265D01*
X108162165Y-134149032D01*
X108162167Y-134149033D01*
X108162170Y-134149035D01*
X108376337Y-134248903D01*
X108604592Y-134310063D01*
X108792918Y-134326539D01*
X108839999Y-134330659D01*
X108840000Y-134330659D01*
X108840001Y-134330659D01*
X108879234Y-134327226D01*
X109075408Y-134310063D01*
X109303663Y-134248903D01*
X109517830Y-134149035D01*
X109711401Y-134013495D01*
X109878495Y-133846401D01*
X110014035Y-133652830D01*
X110113903Y-133438663D01*
X110175063Y-133210408D01*
X110195659Y-132975000D01*
X110195221Y-132969999D01*
X110191539Y-132927918D01*
X110175063Y-132739592D01*
X110113903Y-132511337D01*
X110014035Y-132297171D01*
X110010534Y-132292170D01*
X109878494Y-132103597D01*
X109711402Y-131936506D01*
X109711395Y-131936501D01*
X109704261Y-131931506D01*
X109591090Y-131852262D01*
X109517834Y-131800967D01*
X109517830Y-131800965D01*
X109414842Y-131752941D01*
X109303663Y-131701097D01*
X109303659Y-131701096D01*
X109303655Y-131701094D01*
X109075413Y-131639938D01*
X109075403Y-131639936D01*
X108840001Y-131619341D01*
X108839999Y-131619341D01*
X108604596Y-131639936D01*
X108604586Y-131639938D01*
X108476243Y-131674327D01*
X108406393Y-131672664D01*
X108356469Y-131642233D01*
X106477590Y-129763355D01*
X106477588Y-129763352D01*
X106358717Y-129644481D01*
X106358716Y-129644480D01*
X106271904Y-129594360D01*
X106271904Y-129594359D01*
X106271900Y-129594358D01*
X106221785Y-129565423D01*
X106069057Y-129524499D01*
X105910943Y-129524499D01*
X105903347Y-129524499D01*
X105903331Y-129524500D01*
X103689958Y-129524500D01*
X103632332Y-129510296D01*
X103612904Y-129500099D01*
X103591294Y-129488757D01*
X103432022Y-129449500D01*
X103432021Y-129449500D01*
X103267979Y-129449500D01*
X103267978Y-129449500D01*
X103104675Y-129489751D01*
X103045325Y-129489751D01*
X102882022Y-129449500D01*
X102882021Y-129449500D01*
X102717979Y-129449500D01*
X102717978Y-129449500D01*
X102558705Y-129488757D01*
X102529950Y-129503849D01*
X102517667Y-129510296D01*
X102460042Y-129524500D01*
X101545940Y-129524500D01*
X101505019Y-129535464D01*
X101505019Y-129535465D01*
X101467751Y-129545451D01*
X101393214Y-129565423D01*
X101393209Y-129565426D01*
X101256290Y-129644475D01*
X101256282Y-129644481D01*
X100739481Y-130161282D01*
X100739477Y-130161287D01*
X100723423Y-130189096D01*
X100714785Y-130204058D01*
X100660423Y-130298215D01*
X100619499Y-130450943D01*
X100619499Y-130450945D01*
X100619499Y-130619046D01*
X100619500Y-130619059D01*
X100619500Y-131685908D01*
X100599815Y-131752947D01*
X100547914Y-131798286D01*
X100542173Y-131800963D01*
X100542169Y-131800965D01*
X100348597Y-131936505D01*
X100181505Y-132103597D01*
X100051575Y-132289158D01*
X99996998Y-132332783D01*
X99927500Y-132339977D01*
X99865145Y-132308454D01*
X99848425Y-132289158D01*
X99718494Y-132103597D01*
X99551402Y-131936506D01*
X99551395Y-131936501D01*
X99544261Y-131931506D01*
X99431090Y-131852262D01*
X99357834Y-131800967D01*
X99357830Y-131800965D01*
X99254842Y-131752941D01*
X99143663Y-131701097D01*
X99143659Y-131701096D01*
X99143655Y-131701094D01*
X98915413Y-131639938D01*
X98915403Y-131639936D01*
X98680001Y-131619341D01*
X98679999Y-131619341D01*
X98444596Y-131639936D01*
X98444586Y-131639938D01*
X98216344Y-131701094D01*
X98216335Y-131701098D01*
X98002171Y-131800964D01*
X98002169Y-131800965D01*
X97808597Y-131936505D01*
X97641505Y-132103597D01*
X97511575Y-132289158D01*
X97456998Y-132332783D01*
X97387500Y-132339977D01*
X97325145Y-132308454D01*
X97308425Y-132289158D01*
X97178494Y-132103597D01*
X97011402Y-131936506D01*
X97011395Y-131936501D01*
X97004261Y-131931506D01*
X96891090Y-131852262D01*
X96817834Y-131800967D01*
X96817830Y-131800965D01*
X96714842Y-131752941D01*
X96603663Y-131701097D01*
X96603659Y-131701096D01*
X96603655Y-131701094D01*
X96375413Y-131639938D01*
X96375403Y-131639936D01*
X96140001Y-131619341D01*
X96139999Y-131619341D01*
X95904596Y-131639936D01*
X95904586Y-131639938D01*
X95676344Y-131701094D01*
X95676335Y-131701098D01*
X95462171Y-131800964D01*
X95462169Y-131800965D01*
X95268597Y-131936505D01*
X95101505Y-132103597D01*
X94965965Y-132297169D01*
X94965964Y-132297171D01*
X94889991Y-132460097D01*
X94868430Y-132506335D01*
X94866098Y-132511335D01*
X94866094Y-132511344D01*
X94804938Y-132739586D01*
X94804936Y-132739596D01*
X94784341Y-132974999D01*
X93960500Y-132974999D01*
X93960500Y-132200096D01*
X93980185Y-132133057D01*
X93996814Y-132112420D01*
X97333506Y-128775727D01*
X97333511Y-128775724D01*
X97343714Y-128765520D01*
X97343716Y-128765520D01*
X97455520Y-128653716D01*
X97510057Y-128559255D01*
X97534577Y-128516785D01*
X97575501Y-128364057D01*
X97575501Y-128205943D01*
X97575501Y-128198348D01*
X97575500Y-128198330D01*
X97575500Y-126236913D01*
X97595185Y-126169874D01*
X97647989Y-126124119D01*
X97713384Y-126113693D01*
X97729998Y-126115565D01*
X97730000Y-126115565D01*
X97730004Y-126115565D01*
X97909249Y-126095369D01*
X97909252Y-126095368D01*
X97909255Y-126095368D01*
X98079522Y-126035789D01*
X98232262Y-125939816D01*
X98359816Y-125812262D01*
X98455789Y-125659522D01*
X98515368Y-125489255D01*
X98522326Y-125427499D01*
X98535565Y-125310003D01*
X98535565Y-125309996D01*
X98515369Y-125130750D01*
X98515368Y-125130745D01*
X98462950Y-124980943D01*
X98455789Y-124960478D01*
X98450045Y-124951337D01*
X98416582Y-124898080D01*
X98359816Y-124807738D01*
X98232262Y-124680184D01*
X98200170Y-124660019D01*
X98079521Y-124584210D01*
X98058546Y-124576871D01*
X98001770Y-124536149D01*
X97976022Y-124471197D01*
X97975500Y-124459829D01*
X97975500Y-119674097D01*
X97995185Y-119607058D01*
X98047989Y-119561303D01*
X98117147Y-119551359D01*
X98180703Y-119580384D01*
X98187181Y-119586416D01*
X100415139Y-121814374D01*
X100415149Y-121814385D01*
X100419479Y-121818715D01*
X100419480Y-121818716D01*
X100531284Y-121930520D01*
X100531286Y-121930521D01*
X100531290Y-121930524D01*
X100632182Y-121988773D01*
X100668216Y-122009577D01*
X100780019Y-122039534D01*
X100820942Y-122050500D01*
X100820943Y-122050500D01*
X101633331Y-122050500D01*
X101633347Y-122050501D01*
X101640943Y-122050501D01*
X101799054Y-122050501D01*
X101799057Y-122050501D01*
X101951785Y-122009577D01*
X102001904Y-121980639D01*
X102088716Y-121930520D01*
X102200520Y-121818716D01*
X102200520Y-121818714D01*
X102210728Y-121808507D01*
X102210730Y-121808504D01*
X103286470Y-120732763D01*
X103347791Y-120699280D01*
X103406238Y-120700670D01*
X103534592Y-120735063D01*
X103705319Y-120750000D01*
X103769999Y-120755659D01*
X103770000Y-120755659D01*
X103770001Y-120755659D01*
X103834681Y-120750000D01*
X104005408Y-120735063D01*
X104233663Y-120673903D01*
X104447830Y-120574035D01*
X104641401Y-120438495D01*
X104763717Y-120316178D01*
X104825036Y-120282696D01*
X104894728Y-120287680D01*
X104950662Y-120329551D01*
X104967577Y-120360528D01*
X105016646Y-120492088D01*
X105016649Y-120492093D01*
X105102809Y-120607187D01*
X105102812Y-120607190D01*
X105217906Y-120693350D01*
X105217913Y-120693354D01*
X105352620Y-120743596D01*
X105352627Y-120743598D01*
X105412155Y-120749999D01*
X105412172Y-120750000D01*
X106060000Y-120750000D01*
X106060000Y-119833012D01*
X106117007Y-119865925D01*
X106244174Y-119900000D01*
X106375826Y-119900000D01*
X106502993Y-119865925D01*
X106560000Y-119833012D01*
X106560000Y-120750000D01*
X107207828Y-120750000D01*
X107207844Y-120749999D01*
X107267372Y-120743598D01*
X107267379Y-120743596D01*
X107402086Y-120693354D01*
X107402093Y-120693350D01*
X107517187Y-120607190D01*
X107517190Y-120607187D01*
X107603350Y-120492093D01*
X107603354Y-120492086D01*
X107652422Y-120360529D01*
X107694293Y-120304595D01*
X107759757Y-120280178D01*
X107828030Y-120295030D01*
X107856285Y-120316181D01*
X107978599Y-120438495D01*
X108055135Y-120492086D01*
X108172165Y-120574032D01*
X108172167Y-120574033D01*
X108172170Y-120574035D01*
X108386337Y-120673903D01*
X108614592Y-120735063D01*
X108785319Y-120750000D01*
X108849999Y-120755659D01*
X108850000Y-120755659D01*
X108850001Y-120755659D01*
X108914681Y-120750000D01*
X109085408Y-120735063D01*
X109313663Y-120673903D01*
X109527830Y-120574035D01*
X109721401Y-120438495D01*
X109888495Y-120271401D01*
X110024035Y-120077830D01*
X110123903Y-119863663D01*
X110185063Y-119635408D01*
X110205659Y-119400000D01*
X110185063Y-119164592D01*
X110123903Y-118936337D01*
X110024035Y-118722171D01*
X110022647Y-118720188D01*
X109888494Y-118528597D01*
X109721404Y-118361508D01*
X109721402Y-118361506D01*
X109721401Y-118361505D01*
X109721396Y-118361501D01*
X109721393Y-118361499D01*
X109603376Y-118278861D01*
X109559751Y-118224284D01*
X109550500Y-118177287D01*
X109550500Y-117856008D01*
X109548208Y-117844485D01*
X109548207Y-117844481D01*
X109523580Y-117720672D01*
X109513023Y-117695185D01*
X109470777Y-117593192D01*
X109394112Y-117478454D01*
X108346545Y-116430887D01*
X108231807Y-116354222D01*
X108104332Y-116301421D01*
X108104322Y-116301418D01*
X107968996Y-116274500D01*
X107968994Y-116274500D01*
X107968993Y-116274500D01*
X104216519Y-116274500D01*
X104149480Y-116254815D01*
X104128838Y-116238181D01*
X104036819Y-116146162D01*
X104003334Y-116084839D01*
X104000500Y-116058481D01*
X104000500Y-114409999D01*
X105144341Y-114409999D01*
X105144341Y-114410000D01*
X105164936Y-114645403D01*
X105164938Y-114645413D01*
X105226094Y-114873655D01*
X105226096Y-114873659D01*
X105226097Y-114873663D01*
X105243481Y-114910943D01*
X105325965Y-115087830D01*
X105325967Y-115087834D01*
X105434281Y-115242521D01*
X105461505Y-115281401D01*
X105628599Y-115448495D01*
X105670144Y-115477585D01*
X105822165Y-115584032D01*
X105822167Y-115584033D01*
X105822170Y-115584035D01*
X106036337Y-115683903D01*
X106264592Y-115745063D01*
X106441274Y-115760521D01*
X106499999Y-115765659D01*
X106500000Y-115765659D01*
X106500001Y-115765659D01*
X106558726Y-115760521D01*
X106735408Y-115745063D01*
X106963663Y-115683903D01*
X107177830Y-115584035D01*
X107371401Y-115448495D01*
X107538495Y-115281401D01*
X107674035Y-115087830D01*
X107773903Y-114873663D01*
X107835063Y-114645408D01*
X107855659Y-114410000D01*
X107855536Y-114408599D01*
X107840917Y-114241501D01*
X107835063Y-114174592D01*
X107773903Y-113946337D01*
X107674035Y-113732171D01*
X107672609Y-113730135D01*
X107538496Y-113538600D01*
X107482970Y-113483074D01*
X107416179Y-113416283D01*
X107382696Y-113354963D01*
X107387680Y-113285271D01*
X107429551Y-113229337D01*
X107460529Y-113212422D01*
X107592086Y-113163354D01*
X107592093Y-113163350D01*
X107707187Y-113077190D01*
X107707190Y-113077187D01*
X107793350Y-112962093D01*
X107793354Y-112962086D01*
X107843596Y-112827379D01*
X107843598Y-112827372D01*
X107849999Y-112767844D01*
X107850000Y-112767827D01*
X107850000Y-112120000D01*
X106933012Y-112120000D01*
X106965925Y-112062993D01*
X107000000Y-111935826D01*
X107000000Y-111804174D01*
X106965925Y-111677007D01*
X106933012Y-111620000D01*
X107850000Y-111620000D01*
X107850000Y-110972172D01*
X107849999Y-110972155D01*
X107843598Y-110912627D01*
X107843596Y-110912620D01*
X107793354Y-110777913D01*
X107793350Y-110777906D01*
X107707190Y-110662812D01*
X107707187Y-110662809D01*
X107592093Y-110576649D01*
X107592086Y-110576645D01*
X107457379Y-110526403D01*
X107457372Y-110526401D01*
X107397844Y-110520000D01*
X106750000Y-110520000D01*
X106750000Y-111436988D01*
X106692993Y-111404075D01*
X106565826Y-111370000D01*
X106434174Y-111370000D01*
X106307007Y-111404075D01*
X106250000Y-111436988D01*
X106250000Y-110520000D01*
X105602155Y-110520000D01*
X105542627Y-110526401D01*
X105542620Y-110526403D01*
X105407913Y-110576645D01*
X105407906Y-110576649D01*
X105292812Y-110662809D01*
X105292809Y-110662812D01*
X105206649Y-110777906D01*
X105206645Y-110777913D01*
X105156403Y-110912620D01*
X105156401Y-110912627D01*
X105150000Y-110972155D01*
X105150000Y-111620000D01*
X106066988Y-111620000D01*
X106034075Y-111677007D01*
X106000000Y-111804174D01*
X106000000Y-111935826D01*
X106034075Y-112062993D01*
X106066988Y-112120000D01*
X105150000Y-112120000D01*
X105150000Y-112767844D01*
X105156401Y-112827372D01*
X105156403Y-112827379D01*
X105206645Y-112962086D01*
X105206649Y-112962093D01*
X105292809Y-113077187D01*
X105292812Y-113077190D01*
X105407906Y-113163350D01*
X105407913Y-113163354D01*
X105539470Y-113212421D01*
X105595403Y-113254292D01*
X105619821Y-113319756D01*
X105604970Y-113388029D01*
X105583819Y-113416284D01*
X105461503Y-113538600D01*
X105325965Y-113732169D01*
X105325964Y-113732171D01*
X105226098Y-113946335D01*
X105226094Y-113946344D01*
X105164938Y-114174586D01*
X105164936Y-114174596D01*
X105144341Y-114409999D01*
X104000500Y-114409999D01*
X104000500Y-112331007D01*
X103996105Y-112308916D01*
X103996105Y-112308912D01*
X103973581Y-112195679D01*
X103973580Y-112195672D01*
X103956754Y-112155050D01*
X103920777Y-112068192D01*
X103844112Y-111953454D01*
X103181545Y-111290887D01*
X103066807Y-111214222D01*
X102939332Y-111161421D01*
X102939322Y-111161418D01*
X102803996Y-111134500D01*
X102803994Y-111134500D01*
X102803993Y-111134500D01*
X102522711Y-111134500D01*
X102455672Y-111114815D01*
X102421136Y-111081623D01*
X102338494Y-110963597D01*
X102171402Y-110796506D01*
X102171396Y-110796501D01*
X101985842Y-110666575D01*
X101942217Y-110611998D01*
X101935023Y-110542500D01*
X101966546Y-110480145D01*
X101985842Y-110463425D01*
X102008026Y-110447891D01*
X102171401Y-110333495D01*
X102338495Y-110166401D01*
X102474035Y-109972830D01*
X102573903Y-109758663D01*
X102635063Y-109530408D01*
X102655659Y-109295000D01*
X102635063Y-109059592D01*
X102573903Y-108831337D01*
X102474035Y-108617171D01*
X102460649Y-108598053D01*
X102338494Y-108423597D01*
X102171402Y-108256506D01*
X102171395Y-108256501D01*
X101977834Y-108120967D01*
X101977830Y-108120965D01*
X101942521Y-108104500D01*
X101763663Y-108021097D01*
X101763659Y-108021096D01*
X101763655Y-108021094D01*
X101535413Y-107959938D01*
X101535403Y-107959936D01*
X101300001Y-107939341D01*
X101299999Y-107939341D01*
X101064596Y-107959936D01*
X101064586Y-107959938D01*
X100836344Y-108021094D01*
X100836335Y-108021098D01*
X100622171Y-108120964D01*
X100622169Y-108120965D01*
X100428597Y-108256505D01*
X100261505Y-108423597D01*
X100125965Y-108617169D01*
X100125964Y-108617171D01*
X100026098Y-108831335D01*
X100026094Y-108831344D01*
X99964938Y-109059586D01*
X99964936Y-109059596D01*
X99944341Y-109294999D01*
X99944341Y-109295000D01*
X99964936Y-109530403D01*
X99964938Y-109530413D01*
X100026094Y-109758655D01*
X100026096Y-109758659D01*
X100026097Y-109758663D01*
X100085346Y-109885723D01*
X100125965Y-109972830D01*
X100125967Y-109972834D01*
X100261501Y-110166395D01*
X100261506Y-110166402D01*
X100428597Y-110333493D01*
X100428603Y-110333498D01*
X100614158Y-110463425D01*
X100657783Y-110518002D01*
X100664977Y-110587500D01*
X100633454Y-110649855D01*
X100614158Y-110666575D01*
X100428597Y-110796505D01*
X100261505Y-110963597D01*
X100125965Y-111157169D01*
X100125964Y-111157171D01*
X100057913Y-111303108D01*
X100026721Y-111370000D01*
X100026098Y-111371335D01*
X100026094Y-111371344D01*
X99964938Y-111599586D01*
X99964936Y-111599596D01*
X99944341Y-111834999D01*
X99944341Y-111835000D01*
X99964936Y-112070403D01*
X99964938Y-112070413D01*
X100026094Y-112298655D01*
X100026096Y-112298659D01*
X100026097Y-112298663D01*
X100059362Y-112370000D01*
X100125965Y-112512830D01*
X100125967Y-112512834D01*
X100218572Y-112645087D01*
X100258271Y-112701783D01*
X100261501Y-112706395D01*
X100261506Y-112706402D01*
X100428597Y-112873493D01*
X100428603Y-112873498D01*
X100614158Y-113003425D01*
X100657783Y-113058002D01*
X100664977Y-113127500D01*
X100633454Y-113189855D01*
X100614158Y-113206575D01*
X100428597Y-113336505D01*
X100261505Y-113503597D01*
X100125965Y-113697169D01*
X100125964Y-113697171D01*
X100026098Y-113911335D01*
X100026094Y-113911344D01*
X99964938Y-114139586D01*
X99964936Y-114139596D01*
X99944341Y-114374999D01*
X99944341Y-114375000D01*
X99964936Y-114610403D01*
X99964938Y-114610413D01*
X100026094Y-114838655D01*
X100026096Y-114838659D01*
X100026097Y-114838663D01*
X100059800Y-114910939D01*
X100125965Y-115052830D01*
X100125967Y-115052834D01*
X100212564Y-115176506D01*
X100261505Y-115246401D01*
X100428599Y-115413495D01*
X100520129Y-115477585D01*
X100622165Y-115549032D01*
X100622167Y-115549033D01*
X100622170Y-115549035D01*
X100836337Y-115648903D01*
X101064592Y-115710063D01*
X101252918Y-115726539D01*
X101299999Y-115730659D01*
X101300000Y-115730659D01*
X101300001Y-115730659D01*
X101339234Y-115727226D01*
X101535408Y-115710063D01*
X101763663Y-115648903D01*
X101977830Y-115549035D01*
X102171401Y-115413495D01*
X102338495Y-115246401D01*
X102373925Y-115195802D01*
X102428502Y-115152177D01*
X102498000Y-115144983D01*
X102560355Y-115176506D01*
X102595769Y-115236735D01*
X102599500Y-115266925D01*
X102599500Y-116331006D01*
X102599500Y-116468994D01*
X102599500Y-116468996D01*
X102599499Y-116468996D01*
X102626418Y-116604322D01*
X102626421Y-116604332D01*
X102679222Y-116731807D01*
X102755887Y-116846545D01*
X103428454Y-117519112D01*
X103543192Y-117595777D01*
X103670667Y-117648578D01*
X103670672Y-117648580D01*
X103670676Y-117648580D01*
X103670677Y-117648581D01*
X103806003Y-117675500D01*
X103806006Y-117675500D01*
X103806007Y-117675500D01*
X107558481Y-117675500D01*
X107625520Y-117695185D01*
X107646162Y-117711819D01*
X108060698Y-118126355D01*
X108094183Y-118187678D01*
X108089199Y-118257370D01*
X108047327Y-118313303D01*
X108044142Y-118315610D01*
X107978599Y-118361504D01*
X107856284Y-118483819D01*
X107794961Y-118517303D01*
X107725269Y-118512319D01*
X107669336Y-118470447D01*
X107652421Y-118439470D01*
X107603354Y-118307913D01*
X107603350Y-118307906D01*
X107517190Y-118192812D01*
X107517187Y-118192809D01*
X107402093Y-118106649D01*
X107402086Y-118106645D01*
X107267379Y-118056403D01*
X107267372Y-118056401D01*
X107207844Y-118050000D01*
X106560000Y-118050000D01*
X106560000Y-118966988D01*
X106502993Y-118934075D01*
X106375826Y-118900000D01*
X106244174Y-118900000D01*
X106117007Y-118934075D01*
X106060000Y-118966988D01*
X106060000Y-118050000D01*
X105412155Y-118050000D01*
X105352627Y-118056401D01*
X105352620Y-118056403D01*
X105217913Y-118106645D01*
X105217906Y-118106649D01*
X105102812Y-118192809D01*
X105102809Y-118192812D01*
X105016649Y-118307906D01*
X105016645Y-118307913D01*
X104967578Y-118439470D01*
X104925707Y-118495404D01*
X104860242Y-118519821D01*
X104791969Y-118504969D01*
X104763715Y-118483819D01*
X104707054Y-118427158D01*
X104641401Y-118361505D01*
X104641397Y-118361502D01*
X104641396Y-118361501D01*
X104447834Y-118225967D01*
X104447830Y-118225965D01*
X104376727Y-118192809D01*
X104233663Y-118126097D01*
X104233659Y-118126096D01*
X104233655Y-118126094D01*
X104005413Y-118064938D01*
X104005403Y-118064936D01*
X103770001Y-118044341D01*
X103769999Y-118044341D01*
X103534596Y-118064936D01*
X103534586Y-118064938D01*
X103306344Y-118126094D01*
X103306335Y-118126098D01*
X103092171Y-118225964D01*
X103092169Y-118225965D01*
X102898597Y-118361505D01*
X102731505Y-118528597D01*
X102601575Y-118714158D01*
X102546998Y-118757783D01*
X102477500Y-118764977D01*
X102415145Y-118733454D01*
X102398425Y-118714158D01*
X102268494Y-118528597D01*
X102101402Y-118361506D01*
X102101399Y-118361504D01*
X102035856Y-118315610D01*
X101907831Y-118225965D01*
X101907826Y-118225962D01*
X101902091Y-118223288D01*
X101849653Y-118177113D01*
X101830500Y-118110908D01*
X101830500Y-117825945D01*
X101830500Y-117825943D01*
X101789577Y-117673216D01*
X101775354Y-117648580D01*
X101710524Y-117536290D01*
X101710521Y-117536286D01*
X101710520Y-117536284D01*
X101598716Y-117424480D01*
X101598715Y-117424479D01*
X101594385Y-117420149D01*
X101594374Y-117420139D01*
X98811819Y-114637584D01*
X98778334Y-114576261D01*
X98775500Y-114549903D01*
X98775500Y-105702476D01*
X98795185Y-105635437D01*
X98847989Y-105589682D01*
X98913385Y-105579256D01*
X98925000Y-105580565D01*
X98925001Y-105580564D01*
X98925002Y-105580565D01*
X98925004Y-105580565D01*
X99104249Y-105560369D01*
X99104252Y-105560368D01*
X99104255Y-105560368D01*
X99274522Y-105500789D01*
X99427262Y-105404816D01*
X99554816Y-105277262D01*
X99622213Y-105170000D01*
X104275138Y-105170000D01*
X105078012Y-105170000D01*
X105060795Y-105179940D01*
X105004940Y-105235795D01*
X104965444Y-105304204D01*
X104945000Y-105380504D01*
X104945000Y-105459496D01*
X104965444Y-105535796D01*
X105004940Y-105604205D01*
X105060795Y-105660060D01*
X105078012Y-105670000D01*
X104275138Y-105670000D01*
X104283430Y-105711690D01*
X104283430Y-105711692D01*
X104358807Y-105893671D01*
X104358814Y-105893684D01*
X104468248Y-106057462D01*
X104468251Y-106057466D01*
X104607533Y-106196748D01*
X104607537Y-106196751D01*
X104771315Y-106306185D01*
X104771328Y-106306192D01*
X104953306Y-106381569D01*
X104953318Y-106381572D01*
X105146504Y-106419999D01*
X105146508Y-106420000D01*
X105545000Y-106420000D01*
X105545000Y-105720000D01*
X106045000Y-105720000D01*
X106045000Y-106420000D01*
X106443492Y-106420000D01*
X106443495Y-106419999D01*
X106636681Y-106381572D01*
X106636693Y-106381569D01*
X106818671Y-106306192D01*
X106818684Y-106306185D01*
X106982462Y-106196751D01*
X106982466Y-106196748D01*
X107121748Y-106057466D01*
X107121751Y-106057462D01*
X107231185Y-105893684D01*
X107231192Y-105893671D01*
X107306569Y-105711692D01*
X107306569Y-105711690D01*
X107314862Y-105670000D01*
X106511988Y-105670000D01*
X106529205Y-105660060D01*
X106585060Y-105604205D01*
X106624556Y-105535796D01*
X106645000Y-105459496D01*
X106645000Y-105380504D01*
X106624556Y-105304204D01*
X106585060Y-105235795D01*
X106529205Y-105179940D01*
X106511988Y-105170000D01*
X107314862Y-105170000D01*
X108605138Y-105170000D01*
X109408012Y-105170000D01*
X109390795Y-105179940D01*
X109334940Y-105235795D01*
X109295444Y-105304204D01*
X109275000Y-105380504D01*
X109275000Y-105459496D01*
X109295444Y-105535796D01*
X109334940Y-105604205D01*
X109390795Y-105660060D01*
X109408012Y-105670000D01*
X108605138Y-105670000D01*
X108613430Y-105711690D01*
X108613430Y-105711692D01*
X108688807Y-105893671D01*
X108688814Y-105893684D01*
X108798248Y-106057462D01*
X108798251Y-106057466D01*
X108937533Y-106196748D01*
X108937537Y-106196751D01*
X109101315Y-106306185D01*
X109101328Y-106306192D01*
X109283306Y-106381569D01*
X109283318Y-106381572D01*
X109476504Y-106419999D01*
X109476508Y-106420000D01*
X109725000Y-106420000D01*
X109725000Y-105720000D01*
X110225000Y-105720000D01*
X110225000Y-106420000D01*
X110473492Y-106420000D01*
X110473495Y-106419999D01*
X110666681Y-106381572D01*
X110666693Y-106381569D01*
X110848671Y-106306192D01*
X110848684Y-106306185D01*
X111012462Y-106196751D01*
X111012466Y-106196748D01*
X111151748Y-106057466D01*
X111151751Y-106057462D01*
X111261185Y-105893684D01*
X111261192Y-105893671D01*
X111336569Y-105711692D01*
X111336569Y-105711690D01*
X111344862Y-105670000D01*
X110541988Y-105670000D01*
X110559205Y-105660060D01*
X110615060Y-105604205D01*
X110654556Y-105535796D01*
X110675000Y-105459496D01*
X110675000Y-105380504D01*
X110654556Y-105304204D01*
X110615060Y-105235795D01*
X110559205Y-105179940D01*
X110541988Y-105170000D01*
X111344862Y-105170000D01*
X111336569Y-105128309D01*
X111336569Y-105128307D01*
X111261192Y-104946328D01*
X111261185Y-104946315D01*
X111151751Y-104782537D01*
X111151748Y-104782533D01*
X111012466Y-104643251D01*
X111012462Y-104643248D01*
X110848684Y-104533814D01*
X110848671Y-104533807D01*
X110666693Y-104458430D01*
X110666681Y-104458427D01*
X110473495Y-104420000D01*
X110225000Y-104420000D01*
X110225000Y-105120000D01*
X109725000Y-105120000D01*
X109725000Y-104420000D01*
X109476504Y-104420000D01*
X109283318Y-104458427D01*
X109283306Y-104458430D01*
X109101328Y-104533807D01*
X109101315Y-104533814D01*
X108937537Y-104643248D01*
X108937533Y-104643251D01*
X108798251Y-104782533D01*
X108798248Y-104782537D01*
X108688814Y-104946315D01*
X108688807Y-104946328D01*
X108613430Y-105128307D01*
X108613430Y-105128309D01*
X108605138Y-105170000D01*
X107314862Y-105170000D01*
X107306569Y-105128309D01*
X107306569Y-105128307D01*
X107231192Y-104946328D01*
X107231185Y-104946315D01*
X107121751Y-104782537D01*
X107121748Y-104782533D01*
X106982466Y-104643251D01*
X106982462Y-104643248D01*
X106818684Y-104533814D01*
X106818672Y-104533807D01*
X106760802Y-104509838D01*
X106706398Y-104465998D01*
X106684333Y-104399704D01*
X106701612Y-104332004D01*
X106711233Y-104319627D01*
X106710559Y-104319110D01*
X106715500Y-104312669D01*
X106715505Y-104312665D01*
X106784688Y-104192836D01*
X106820500Y-104059183D01*
X106820500Y-103920817D01*
X106784688Y-103787164D01*
X106745169Y-103718715D01*
X106715507Y-103667338D01*
X106715503Y-103667333D01*
X106617666Y-103569496D01*
X106617661Y-103569492D01*
X106497838Y-103500313D01*
X106497837Y-103500312D01*
X106497836Y-103500312D01*
X106364183Y-103464500D01*
X106225817Y-103464500D01*
X106092164Y-103500312D01*
X106092161Y-103500313D01*
X105972338Y-103569492D01*
X105972333Y-103569496D01*
X105874496Y-103667333D01*
X105874492Y-103667338D01*
X105805313Y-103787161D01*
X105805312Y-103787164D01*
X105769500Y-103920817D01*
X105769500Y-104059183D01*
X105803917Y-104187627D01*
X105805312Y-104192835D01*
X105805313Y-104192838D01*
X105874492Y-104312661D01*
X105874494Y-104312664D01*
X105874495Y-104312665D01*
X105972335Y-104410505D01*
X105972336Y-104410506D01*
X105972338Y-104410507D01*
X105982996Y-104416660D01*
X106031214Y-104467225D01*
X106045000Y-104524049D01*
X106045000Y-105120000D01*
X105545000Y-105120000D01*
X105545000Y-104420000D01*
X105146504Y-104420000D01*
X104953318Y-104458427D01*
X104953306Y-104458430D01*
X104771328Y-104533807D01*
X104771315Y-104533814D01*
X104607537Y-104643248D01*
X104607533Y-104643251D01*
X104468251Y-104782533D01*
X104468248Y-104782537D01*
X104358814Y-104946315D01*
X104358807Y-104946328D01*
X104283430Y-105128307D01*
X104283430Y-105128309D01*
X104275138Y-105170000D01*
X99622213Y-105170000D01*
X99650789Y-105124522D01*
X99710368Y-104954255D01*
X99711263Y-104946315D01*
X99730565Y-104775003D01*
X99730565Y-104774996D01*
X99710369Y-104595750D01*
X99710366Y-104595737D01*
X99650790Y-104425479D01*
X99644506Y-104415478D01*
X99625500Y-104349507D01*
X99625500Y-104249769D01*
X99643746Y-104187627D01*
X99642906Y-104187178D01*
X99645064Y-104183140D01*
X99645185Y-104182730D01*
X99645721Y-104181910D01*
X99645771Y-104181816D01*
X99645775Y-104181811D01*
X99698580Y-104054328D01*
X99725137Y-103920819D01*
X99725500Y-103918995D01*
X99725500Y-101000493D01*
X99744508Y-100934519D01*
X99750787Y-100924525D01*
X99750786Y-100924525D01*
X99750789Y-100924522D01*
X99810368Y-100754255D01*
X99830565Y-100575000D01*
X99825136Y-100526819D01*
X99810369Y-100395750D01*
X99810368Y-100395745D01*
X99761294Y-100255499D01*
X99750789Y-100225478D01*
X99654816Y-100072738D01*
X99527262Y-99945184D01*
X99374523Y-99849211D01*
X99204254Y-99789631D01*
X99204249Y-99789630D01*
X99025004Y-99769435D01*
X99024996Y-99769435D01*
X98913383Y-99782010D01*
X98844561Y-99769955D01*
X98793182Y-99722606D01*
X98775500Y-99658790D01*
X98775500Y-96530000D01*
X104275138Y-96530000D01*
X105078012Y-96530000D01*
X105060795Y-96539940D01*
X105004940Y-96595795D01*
X104965444Y-96664204D01*
X104945000Y-96740504D01*
X104945000Y-96819496D01*
X104965444Y-96895796D01*
X105004940Y-96964205D01*
X105060795Y-97020060D01*
X105078012Y-97030000D01*
X104275138Y-97030000D01*
X104283430Y-97071690D01*
X104283430Y-97071692D01*
X104358807Y-97253671D01*
X104358814Y-97253684D01*
X104468248Y-97417462D01*
X104468251Y-97417466D01*
X104607533Y-97556748D01*
X104607537Y-97556751D01*
X104771315Y-97666185D01*
X104771328Y-97666192D01*
X104953306Y-97741569D01*
X104953318Y-97741572D01*
X105146504Y-97779999D01*
X105146508Y-97780000D01*
X105545000Y-97780000D01*
X105545000Y-97080000D01*
X106045000Y-97080000D01*
X106045000Y-97675950D01*
X106025315Y-97742989D01*
X105983001Y-97783337D01*
X105972335Y-97789494D01*
X105874496Y-97887333D01*
X105874492Y-97887338D01*
X105805313Y-98007161D01*
X105805312Y-98007164D01*
X105769500Y-98140817D01*
X105769500Y-98279183D01*
X105788954Y-98351784D01*
X105805312Y-98412835D01*
X105805313Y-98412838D01*
X105874492Y-98532661D01*
X105874494Y-98532664D01*
X105874495Y-98532665D01*
X105972335Y-98630505D01*
X106092164Y-98699688D01*
X106225817Y-98735500D01*
X106225819Y-98735500D01*
X106364181Y-98735500D01*
X106364183Y-98735500D01*
X106497836Y-98699688D01*
X106617665Y-98630505D01*
X106715505Y-98532665D01*
X106784688Y-98412836D01*
X106820500Y-98279183D01*
X106820500Y-98140817D01*
X106784688Y-98007164D01*
X106715505Y-97887335D01*
X106715503Y-97887333D01*
X106710559Y-97880890D01*
X106713185Y-97878874D01*
X106687088Y-97831080D01*
X106692072Y-97761388D01*
X106733944Y-97705455D01*
X106760804Y-97690160D01*
X106818674Y-97666190D01*
X106818684Y-97666185D01*
X106982462Y-97556751D01*
X106982466Y-97556748D01*
X107121748Y-97417466D01*
X107121751Y-97417462D01*
X107231185Y-97253684D01*
X107231192Y-97253671D01*
X107306569Y-97071692D01*
X107306569Y-97071690D01*
X107314862Y-97030000D01*
X106511988Y-97030000D01*
X106529205Y-97020060D01*
X106585060Y-96964205D01*
X106624556Y-96895796D01*
X106645000Y-96819496D01*
X106645000Y-96740504D01*
X106624556Y-96664204D01*
X106585060Y-96595795D01*
X106529205Y-96539940D01*
X106511988Y-96530000D01*
X107314862Y-96530000D01*
X108605138Y-96530000D01*
X109408012Y-96530000D01*
X109390795Y-96539940D01*
X109334940Y-96595795D01*
X109295444Y-96664204D01*
X109275000Y-96740504D01*
X109275000Y-96819496D01*
X109295444Y-96895796D01*
X109334940Y-96964205D01*
X109390795Y-97020060D01*
X109408012Y-97030000D01*
X108605138Y-97030000D01*
X108613430Y-97071690D01*
X108613430Y-97071692D01*
X108688807Y-97253671D01*
X108688814Y-97253684D01*
X108798248Y-97417462D01*
X108798251Y-97417466D01*
X108937533Y-97556748D01*
X108937537Y-97556751D01*
X109101315Y-97666185D01*
X109101328Y-97666192D01*
X109283306Y-97741569D01*
X109283318Y-97741572D01*
X109476504Y-97779999D01*
X109476508Y-97780000D01*
X109725000Y-97780000D01*
X109725000Y-97080000D01*
X110225000Y-97080000D01*
X110225000Y-97780000D01*
X110473492Y-97780000D01*
X110473495Y-97779999D01*
X110666681Y-97741572D01*
X110666693Y-97741569D01*
X110848671Y-97666192D01*
X110848684Y-97666185D01*
X111012462Y-97556751D01*
X111012466Y-97556748D01*
X111151748Y-97417466D01*
X111151751Y-97417462D01*
X111261185Y-97253684D01*
X111261192Y-97253671D01*
X111336569Y-97071692D01*
X111336569Y-97071690D01*
X111344862Y-97030000D01*
X110541988Y-97030000D01*
X110559205Y-97020060D01*
X110615060Y-96964205D01*
X110654556Y-96895796D01*
X110675000Y-96819496D01*
X110675000Y-96740504D01*
X110654556Y-96664204D01*
X110615060Y-96595795D01*
X110559205Y-96539940D01*
X110541988Y-96530000D01*
X111344862Y-96530000D01*
X111336569Y-96488309D01*
X111336569Y-96488307D01*
X111261192Y-96306328D01*
X111261185Y-96306315D01*
X111151751Y-96142537D01*
X111151748Y-96142533D01*
X111012466Y-96003251D01*
X111012462Y-96003248D01*
X110848684Y-95893814D01*
X110848671Y-95893807D01*
X110666693Y-95818430D01*
X110666681Y-95818427D01*
X110473495Y-95780000D01*
X110225000Y-95780000D01*
X110225000Y-96480000D01*
X109725000Y-96480000D01*
X109725000Y-95780000D01*
X109476504Y-95780000D01*
X109283318Y-95818427D01*
X109283306Y-95818430D01*
X109101328Y-95893807D01*
X109101315Y-95893814D01*
X108937537Y-96003248D01*
X108937533Y-96003251D01*
X108798251Y-96142533D01*
X108798248Y-96142537D01*
X108688814Y-96306315D01*
X108688807Y-96306328D01*
X108613430Y-96488307D01*
X108613430Y-96488309D01*
X108605138Y-96530000D01*
X107314862Y-96530000D01*
X107306569Y-96488309D01*
X107306569Y-96488307D01*
X107231192Y-96306328D01*
X107231185Y-96306315D01*
X107121751Y-96142537D01*
X107121748Y-96142533D01*
X106982466Y-96003251D01*
X106982462Y-96003248D01*
X106818684Y-95893814D01*
X106818671Y-95893807D01*
X106636693Y-95818430D01*
X106636681Y-95818427D01*
X106443495Y-95780000D01*
X106045000Y-95780000D01*
X106045000Y-96480000D01*
X105545000Y-96480000D01*
X105545000Y-95780000D01*
X105146504Y-95780000D01*
X104953318Y-95818427D01*
X104953306Y-95818430D01*
X104771328Y-95893807D01*
X104771315Y-95893814D01*
X104607537Y-96003248D01*
X104607533Y-96003251D01*
X104468251Y-96142533D01*
X104468248Y-96142537D01*
X104358814Y-96306315D01*
X104358807Y-96306328D01*
X104283430Y-96488307D01*
X104283430Y-96488309D01*
X104275138Y-96530000D01*
X98775500Y-96530000D01*
X98775500Y-95532412D01*
X98795185Y-95465373D01*
X98802555Y-95455097D01*
X98804810Y-95452267D01*
X98804816Y-95452262D01*
X98900789Y-95299522D01*
X98960368Y-95129255D01*
X98960369Y-95129249D01*
X98980565Y-94950003D01*
X98980565Y-94949996D01*
X98960369Y-94770750D01*
X98960368Y-94770745D01*
X98936928Y-94703757D01*
X98900789Y-94600478D01*
X98804816Y-94447738D01*
X98677262Y-94320184D01*
X98644783Y-94299776D01*
X98524523Y-94224211D01*
X98354254Y-94164631D01*
X98354249Y-94164630D01*
X98175004Y-94144435D01*
X98174996Y-94144435D01*
X97995750Y-94164630D01*
X97995745Y-94164631D01*
X97825476Y-94224211D01*
X97677664Y-94317089D01*
X97610428Y-94336089D01*
X97543592Y-94315721D01*
X97524011Y-94299776D01*
X96924235Y-93700000D01*
X109085000Y-93700000D01*
X111175000Y-93700000D01*
X111175000Y-91800000D01*
X109085000Y-91800000D01*
X109085000Y-93700000D01*
X96924235Y-93700000D01*
X96498682Y-93274447D01*
X96465197Y-93213124D01*
X96470181Y-93143432D01*
X96512053Y-93087499D01*
X96545409Y-93069724D01*
X96551256Y-93067677D01*
X96599522Y-93050789D01*
X96752262Y-92954816D01*
X96879816Y-92827262D01*
X96975789Y-92674522D01*
X97035368Y-92504255D01*
X97040123Y-92462053D01*
X97055565Y-92325003D01*
X97055565Y-92324996D01*
X97035369Y-92145750D01*
X97035368Y-92145745D01*
X96975788Y-91975476D01*
X96879815Y-91822737D01*
X96752262Y-91695184D01*
X96599521Y-91599210D01*
X96429249Y-91539630D01*
X96342330Y-91529837D01*
X96277916Y-91502770D01*
X96268533Y-91494298D01*
X96082590Y-91308355D01*
X96082588Y-91308352D01*
X95963717Y-91189481D01*
X95963716Y-91189480D01*
X95876904Y-91139360D01*
X95876904Y-91139359D01*
X95876900Y-91139358D01*
X95826785Y-91110423D01*
X95674057Y-91069499D01*
X95515943Y-91069499D01*
X95508347Y-91069499D01*
X95508331Y-91069500D01*
X83941670Y-91069500D01*
X83941654Y-91069499D01*
X83934058Y-91069499D01*
X83775943Y-91069499D01*
X83623216Y-91110423D01*
X83581182Y-91134690D01*
X83548865Y-91147696D01*
X83483701Y-91163759D01*
X83338455Y-91239990D01*
X83338453Y-91239992D01*
X83215672Y-91348766D01*
X83215666Y-91348773D01*
X83122483Y-91483771D01*
X83064312Y-91637154D01*
X83064311Y-91637157D01*
X83044539Y-91799999D01*
X83044539Y-91800000D01*
X83064311Y-91962842D01*
X83064312Y-91962845D01*
X83122482Y-92116226D01*
X83122483Y-92116227D01*
X83131687Y-92129562D01*
X83153568Y-92195918D01*
X83136101Y-92263569D01*
X83131687Y-92270438D01*
X83122481Y-92283774D01*
X83118998Y-92290413D01*
X83116360Y-92289028D01*
X83082421Y-92333810D01*
X83016813Y-92357838D01*
X82948629Y-92342582D01*
X82921020Y-92321785D01*
X82487590Y-91888355D01*
X82487588Y-91888352D01*
X82368717Y-91769481D01*
X82368716Y-91769480D01*
X82281904Y-91719360D01*
X82281904Y-91719359D01*
X82281900Y-91719358D01*
X82231785Y-91690423D01*
X82079057Y-91649499D01*
X81920943Y-91649499D01*
X81913347Y-91649499D01*
X81913331Y-91649500D01*
X77829057Y-91649500D01*
X73859057Y-91649500D01*
X72059057Y-91649500D01*
X71900943Y-91649500D01*
X71748215Y-91690423D01*
X71748214Y-91690423D01*
X71748212Y-91690424D01*
X71748209Y-91690425D01*
X71698096Y-91719359D01*
X71698095Y-91719360D01*
X71654689Y-91744420D01*
X71611285Y-91769479D01*
X71611282Y-91769481D01*
X71499478Y-91881286D01*
X69522735Y-93858028D01*
X69461412Y-93891513D01*
X69448938Y-93893567D01*
X69350750Y-93904630D01*
X69180478Y-93964210D01*
X69027737Y-94060184D01*
X68900184Y-94187737D01*
X68804211Y-94340476D01*
X68744631Y-94510745D01*
X68744630Y-94510750D01*
X68724435Y-94689996D01*
X68724435Y-94690003D01*
X68744630Y-94869249D01*
X68744631Y-94869254D01*
X68804211Y-95039523D01*
X68860590Y-95129249D01*
X68900184Y-95192262D01*
X69027738Y-95319816D01*
X69180478Y-95415789D01*
X69284712Y-95452262D01*
X69350745Y-95475368D01*
X69350749Y-95475369D01*
X69404625Y-95481439D01*
X69469039Y-95508505D01*
X69508594Y-95566099D01*
X69510733Y-95635936D01*
X69478423Y-95692340D01*
X67321283Y-97849481D01*
X67209478Y-97961285D01*
X67209472Y-97961293D01*
X67173492Y-98023614D01*
X67173492Y-98023616D01*
X67130420Y-98098217D01*
X67129736Y-98100769D01*
X67089496Y-98250946D01*
X67089496Y-98250948D01*
X67089496Y-98419049D01*
X67089497Y-98419062D01*
X67089497Y-98655729D01*
X67081439Y-98699700D01*
X67029309Y-98837151D01*
X67029308Y-98837157D01*
X67009536Y-98999999D01*
X67009536Y-99000000D01*
X67029308Y-99162842D01*
X67029309Y-99162845D01*
X67087479Y-99316226D01*
X67180665Y-99451229D01*
X67180667Y-99451231D01*
X67180669Y-99451233D01*
X67303448Y-99560006D01*
X67303449Y-99560006D01*
X67303451Y-99560008D01*
X67448702Y-99636242D01*
X67448704Y-99636242D01*
X67448705Y-99636243D01*
X67607975Y-99675500D01*
X67607976Y-99675500D01*
X67772017Y-99675500D01*
X67772018Y-99675500D01*
X67931292Y-99636242D01*
X67931294Y-99636240D01*
X67935322Y-99635248D01*
X67994674Y-99635248D01*
X67998703Y-99636241D01*
X67998705Y-99636242D01*
X68157979Y-99675500D01*
X68157980Y-99675500D01*
X68322022Y-99675500D01*
X68488578Y-99634447D01*
X68489263Y-99637226D01*
X68545653Y-99632865D01*
X68551390Y-99634549D01*
X68551416Y-99634447D01*
X68717972Y-99675500D01*
X68717973Y-99675500D01*
X68882014Y-99675500D01*
X68882015Y-99675500D01*
X69041289Y-99636242D01*
X69041291Y-99636240D01*
X69045319Y-99635248D01*
X69104671Y-99635248D01*
X69108700Y-99636241D01*
X69108702Y-99636242D01*
X69267976Y-99675500D01*
X69267977Y-99675500D01*
X69432017Y-99675500D01*
X69432018Y-99675500D01*
X69591292Y-99636242D01*
X69591293Y-99636241D01*
X69595323Y-99635248D01*
X69654675Y-99635248D01*
X69658702Y-99636240D01*
X69658705Y-99636242D01*
X69695176Y-99645231D01*
X69755557Y-99680388D01*
X69787344Y-99742608D01*
X69789500Y-99765628D01*
X69789500Y-102439903D01*
X69769815Y-102506942D01*
X69753181Y-102527584D01*
X63447584Y-108833181D01*
X63386261Y-108866666D01*
X63359903Y-108869500D01*
X54909057Y-108869500D01*
X54750943Y-108869500D01*
X54598215Y-108910423D01*
X54598214Y-108910423D01*
X54598212Y-108910424D01*
X54598209Y-108910425D01*
X54552596Y-108936761D01*
X54552595Y-108936762D01*
X54506939Y-108963121D01*
X54461285Y-108989479D01*
X54461282Y-108989481D01*
X53969481Y-109481282D01*
X53969479Y-109481285D01*
X53941120Y-109530406D01*
X53941119Y-109530408D01*
X53890423Y-109618214D01*
X53890423Y-109618215D01*
X53849499Y-109770943D01*
X53849499Y-109770945D01*
X53849499Y-109939046D01*
X53849500Y-109939059D01*
X53849500Y-114903330D01*
X53849499Y-114903348D01*
X53849499Y-115069054D01*
X53849498Y-115069054D01*
X52773000Y-115069054D01*
X52773000Y-90212220D01*
X52792685Y-90145181D01*
X52845489Y-90099426D01*
X52896754Y-90088220D01*
X74467278Y-90046381D01*
X74479692Y-90050000D01*
X74522500Y-90050000D01*
X86922379Y-90050000D01*
X86922500Y-90050000D01*
X111997762Y-90001361D01*
X112064837Y-90020916D01*
G37*
G04 #@! TD.AperFunction*
G04 #@! TA.AperFunction,NonConductor*
G36*
X102517667Y-130739703D02*
G01*
X102556811Y-130760248D01*
X102558705Y-130761242D01*
X102717978Y-130800500D01*
X102717979Y-130800500D01*
X102882020Y-130800500D01*
X102882021Y-130800500D01*
X103041295Y-130761242D01*
X103041298Y-130761240D01*
X103045324Y-130760248D01*
X103104676Y-130760248D01*
X103108701Y-130761240D01*
X103108705Y-130761242D01*
X103267979Y-130800500D01*
X103267980Y-130800500D01*
X103432022Y-130800500D01*
X103520324Y-130778735D01*
X103591295Y-130761242D01*
X103632332Y-130739703D01*
X103689958Y-130725500D01*
X104720943Y-130725500D01*
X105689903Y-130725500D01*
X105756942Y-130745185D01*
X105777584Y-130761819D01*
X106426333Y-131410568D01*
X106459818Y-131471891D01*
X106454834Y-131541583D01*
X106412962Y-131597516D01*
X106347498Y-131621933D01*
X106327844Y-131621777D01*
X106300001Y-131619341D01*
X106299999Y-131619341D01*
X106064596Y-131639936D01*
X106064586Y-131639938D01*
X105836344Y-131701094D01*
X105836335Y-131701098D01*
X105622171Y-131800964D01*
X105622169Y-131800965D01*
X105428597Y-131936505D01*
X105261505Y-132103597D01*
X105131575Y-132289158D01*
X105076998Y-132332783D01*
X105007500Y-132339977D01*
X104945145Y-132308454D01*
X104928425Y-132289158D01*
X104798494Y-132103597D01*
X104631402Y-131936506D01*
X104631395Y-131936501D01*
X104624261Y-131931506D01*
X104511090Y-131852262D01*
X104437834Y-131800967D01*
X104437830Y-131800965D01*
X104334842Y-131752941D01*
X104223663Y-131701097D01*
X104223659Y-131701096D01*
X104223655Y-131701094D01*
X103995413Y-131639938D01*
X103995403Y-131639936D01*
X103760001Y-131619341D01*
X103759999Y-131619341D01*
X103524596Y-131639936D01*
X103524586Y-131639938D01*
X103296344Y-131701094D01*
X103296335Y-131701098D01*
X103082171Y-131800964D01*
X103082169Y-131800965D01*
X102888597Y-131936505D01*
X102721505Y-132103597D01*
X102591575Y-132289158D01*
X102536998Y-132332783D01*
X102467500Y-132339977D01*
X102405145Y-132308454D01*
X102388425Y-132289158D01*
X102258494Y-132103597D01*
X102091402Y-131936506D01*
X102091395Y-131936501D01*
X102084261Y-131931506D01*
X101971090Y-131852262D01*
X101897831Y-131800965D01*
X101897826Y-131800962D01*
X101892091Y-131798288D01*
X101839653Y-131752113D01*
X101820500Y-131685908D01*
X101820500Y-130849500D01*
X101840185Y-130782461D01*
X101892989Y-130736706D01*
X101944500Y-130725500D01*
X102460042Y-130725500D01*
X102517667Y-130739703D01*
G37*
G04 #@! TD.AperFunction*
G04 #@! TA.AperFunction,NonConductor*
G36*
X85414642Y-96920185D02*
G01*
X85460397Y-96972989D01*
X85470699Y-97009553D01*
X85489311Y-97162842D01*
X85489313Y-97162850D01*
X85515170Y-97231030D01*
X85520537Y-97300693D01*
X85515170Y-97318970D01*
X85489313Y-97387149D01*
X85489311Y-97387158D01*
X85485877Y-97415446D01*
X85458256Y-97479624D01*
X85400322Y-97518681D01*
X85362781Y-97524500D01*
X84529461Y-97524500D01*
X84462422Y-97504815D01*
X84416667Y-97452011D01*
X84406956Y-97407373D01*
X84406365Y-97407445D01*
X84405598Y-97401131D01*
X84405461Y-97400500D01*
X84405461Y-97399999D01*
X84385688Y-97237157D01*
X84385687Y-97237151D01*
X84327518Y-97083775D01*
X84327518Y-97083774D01*
X84327515Y-97083770D01*
X84326656Y-97082132D01*
X84326387Y-97080793D01*
X84324858Y-97076760D01*
X84325528Y-97076505D01*
X84312927Y-97013624D01*
X84338415Y-96948570D01*
X84395029Y-96907622D01*
X84436449Y-96900500D01*
X85347603Y-96900500D01*
X85414642Y-96920185D01*
G37*
G04 #@! TD.AperFunction*
G04 #@! TA.AperFunction,NonConductor*
G36*
X77067942Y-98120185D02*
G01*
X77113697Y-98172989D01*
X77123641Y-98242147D01*
X77094616Y-98305703D01*
X77088584Y-98312181D01*
X76547584Y-98853181D01*
X76486261Y-98886666D01*
X76459903Y-98889500D01*
X75439946Y-98889500D01*
X75372907Y-98869815D01*
X75327152Y-98817011D01*
X75317208Y-98747853D01*
X75346233Y-98684297D01*
X75382316Y-98655706D01*
X75526546Y-98580008D01*
X75649332Y-98471229D01*
X75742518Y-98336226D01*
X75800688Y-98182845D01*
X75800687Y-98182845D01*
X75801567Y-98180528D01*
X75843746Y-98124826D01*
X75909343Y-98100769D01*
X75917509Y-98100500D01*
X77000903Y-98100500D01*
X77067942Y-98120185D01*
G37*
G04 #@! TD.AperFunction*
G04 #@! TA.AperFunction,NonConductor*
G36*
X74857667Y-98634703D02*
G01*
X74889148Y-98651226D01*
X74897680Y-98655704D01*
X74947892Y-98704289D01*
X74963866Y-98772308D01*
X74940530Y-98838166D01*
X74885294Y-98880953D01*
X74840053Y-98889500D01*
X74130983Y-98889500D01*
X74130967Y-98889499D01*
X74123371Y-98889499D01*
X73965257Y-98889499D01*
X73963297Y-98890023D01*
X73961583Y-98889983D01*
X73957202Y-98890560D01*
X73957111Y-98889876D01*
X73893450Y-98888359D01*
X73835588Y-98849195D01*
X73808086Y-98784966D01*
X73819674Y-98716064D01*
X73843524Y-98682571D01*
X73869280Y-98656815D01*
X73930602Y-98623333D01*
X73956958Y-98620500D01*
X74800042Y-98620500D01*
X74857667Y-98634703D01*
G37*
G04 #@! TD.AperFunction*
G04 #@! TA.AperFunction,NonConductor*
G36*
X81870703Y-100400384D02*
G01*
X81877181Y-100406416D01*
X82473181Y-101002416D01*
X82506666Y-101063739D01*
X82509500Y-101090097D01*
X82509500Y-101710903D01*
X82489815Y-101777942D01*
X82437011Y-101823697D01*
X82367853Y-101833641D01*
X82304297Y-101804616D01*
X82297819Y-101798584D01*
X82203807Y-101704572D01*
X82175546Y-101660862D01*
X82142518Y-101573774D01*
X82049332Y-101438771D01*
X82049329Y-101438768D01*
X82049327Y-101438766D01*
X81926546Y-101329992D01*
X81926544Y-101329990D01*
X81781298Y-101253759D01*
X81781296Y-101253758D01*
X81759822Y-101248465D01*
X81699442Y-101213307D01*
X81667655Y-101151087D01*
X81665500Y-101128069D01*
X81665500Y-100494097D01*
X81685185Y-100427058D01*
X81737989Y-100381303D01*
X81807147Y-100371359D01*
X81870703Y-100400384D01*
G37*
G04 #@! TD.AperFunction*
G04 #@! TA.AperFunction,NonConductor*
G36*
X70985932Y-110835815D02*
G01*
X71041865Y-110877687D01*
X71066282Y-110943151D01*
X71065694Y-110966943D01*
X71049539Y-111099999D01*
X71049539Y-111100000D01*
X71069311Y-111262842D01*
X71069312Y-111262848D01*
X71079311Y-111289211D01*
X71084678Y-111358874D01*
X71051531Y-111420380D01*
X70990392Y-111454202D01*
X70931276Y-111452957D01*
X70705413Y-111392438D01*
X70705403Y-111392436D01*
X70622161Y-111385153D01*
X70557093Y-111359700D01*
X70516115Y-111303108D01*
X70512238Y-111233346D01*
X70545287Y-111173946D01*
X70854920Y-110864313D01*
X70916240Y-110830831D01*
X70985932Y-110835815D01*
G37*
G04 #@! TD.AperFunction*
G04 #@! TA.AperFunction,NonConductor*
G36*
X102554342Y-112645087D02*
G01*
X102557170Y-112647827D01*
X102563181Y-112653838D01*
X102596666Y-112715161D01*
X102599500Y-112741519D01*
X102599500Y-113483074D01*
X102579815Y-113550113D01*
X102527011Y-113595868D01*
X102457853Y-113605812D01*
X102394297Y-113576787D01*
X102373926Y-113554198D01*
X102338495Y-113503598D01*
X102171402Y-113336506D01*
X102171396Y-113336501D01*
X101985842Y-113206575D01*
X101942217Y-113151998D01*
X101935023Y-113082500D01*
X101966546Y-113020145D01*
X101985842Y-113003425D01*
X102103638Y-112920943D01*
X102171401Y-112873495D01*
X102338495Y-112706401D01*
X102367915Y-112664383D01*
X102422489Y-112620761D01*
X102491987Y-112613566D01*
X102554342Y-112645087D01*
G37*
G04 #@! TD.AperFunction*
G04 #@! TA.AperFunction,NonConductor*
G36*
X81825703Y-113377538D02*
G01*
X81846075Y-113400128D01*
X81976501Y-113586396D01*
X81976506Y-113586402D01*
X82143597Y-113753493D01*
X82143603Y-113753498D01*
X82329158Y-113883425D01*
X82372783Y-113938002D01*
X82379977Y-114007500D01*
X82348454Y-114069855D01*
X82329158Y-114086575D01*
X82143597Y-114216505D01*
X81976505Y-114383597D01*
X81846075Y-114569872D01*
X81791498Y-114613497D01*
X81722000Y-114620691D01*
X81659645Y-114589168D01*
X81624231Y-114528938D01*
X81620500Y-114498749D01*
X81620500Y-113471251D01*
X81640185Y-113404212D01*
X81692989Y-113358457D01*
X81762147Y-113348513D01*
X81825703Y-113377538D01*
G37*
G04 #@! TD.AperFunction*
G04 #@! TA.AperFunction,NonConductor*
G36*
X71863365Y-113270140D02*
G01*
X71908699Y-113323305D01*
X71919500Y-113373920D01*
X71919500Y-114621079D01*
X71899815Y-114688118D01*
X71847011Y-114733873D01*
X71777853Y-114743817D01*
X71714297Y-114714792D01*
X71683118Y-114673484D01*
X71644035Y-114589671D01*
X71644034Y-114589669D01*
X71508494Y-114396097D01*
X71341402Y-114229006D01*
X71341396Y-114229001D01*
X71155842Y-114099075D01*
X71112217Y-114044498D01*
X71105023Y-113975000D01*
X71136546Y-113912645D01*
X71155842Y-113895925D01*
X71178026Y-113880391D01*
X71341401Y-113765995D01*
X71508495Y-113598901D01*
X71644035Y-113405330D01*
X71683118Y-113321515D01*
X71729290Y-113269076D01*
X71796483Y-113249924D01*
X71863365Y-113270140D01*
G37*
G04 #@! TD.AperFunction*
G04 #@! TA.AperFunction,NonConductor*
G36*
X81825703Y-115917538D02*
G01*
X81846075Y-115940128D01*
X81976501Y-116126396D01*
X81976506Y-116126402D01*
X82143597Y-116293493D01*
X82143603Y-116293498D01*
X82329158Y-116423425D01*
X82372783Y-116478002D01*
X82379977Y-116547500D01*
X82348454Y-116609855D01*
X82329158Y-116626575D01*
X82143597Y-116756505D01*
X81976505Y-116923597D01*
X81846075Y-117109872D01*
X81791498Y-117153497D01*
X81722000Y-117160691D01*
X81659645Y-117129168D01*
X81624231Y-117068938D01*
X81620500Y-117038749D01*
X81620500Y-116011251D01*
X81640185Y-115944212D01*
X81692989Y-115898457D01*
X81762147Y-115888513D01*
X81825703Y-115917538D01*
G37*
G04 #@! TD.AperFunction*
G04 #@! TA.AperFunction,NonConductor*
G36*
X71863365Y-115810140D02*
G01*
X71908699Y-115863305D01*
X71919500Y-115913920D01*
X71919500Y-117083000D01*
X71899815Y-117150039D01*
X71847011Y-117195794D01*
X71795500Y-117207000D01*
X71759091Y-117207000D01*
X71692052Y-117187315D01*
X71646711Y-117135409D01*
X71644037Y-117129675D01*
X71644034Y-117129670D01*
X71644033Y-117129669D01*
X71517248Y-116948599D01*
X71508494Y-116936097D01*
X71341402Y-116769006D01*
X71341396Y-116769001D01*
X71155842Y-116639075D01*
X71112217Y-116584498D01*
X71105023Y-116515000D01*
X71136546Y-116452645D01*
X71155842Y-116435925D01*
X71272521Y-116354225D01*
X71341401Y-116305995D01*
X71508495Y-116138901D01*
X71644035Y-115945330D01*
X71683118Y-115861515D01*
X71729290Y-115809076D01*
X71796483Y-115789924D01*
X71863365Y-115810140D01*
G37*
G04 #@! TD.AperFunction*
G04 #@! TA.AperFunction,NonConductor*
G36*
X62149166Y-117235007D02*
G01*
X62150736Y-117235364D01*
X62150745Y-117235368D01*
X62150754Y-117235369D01*
X62329996Y-117255565D01*
X62330000Y-117255565D01*
X62330003Y-117255565D01*
X62511616Y-117235102D01*
X62580438Y-117247156D01*
X62631818Y-117294505D01*
X62649500Y-117358322D01*
X62649500Y-118051372D01*
X62629815Y-118118411D01*
X62613181Y-118139053D01*
X62394214Y-118358019D01*
X62394215Y-118358020D01*
X62289477Y-118462758D01*
X62241549Y-118545774D01*
X62241549Y-118545775D01*
X62228944Y-118567607D01*
X62178376Y-118615822D01*
X62109769Y-118629044D01*
X62044904Y-118603076D01*
X62004376Y-118546161D01*
X61997557Y-118505606D01*
X61997557Y-117355894D01*
X62017242Y-117288855D01*
X62070046Y-117243100D01*
X62139204Y-117233156D01*
X62149166Y-117235007D01*
G37*
G04 #@! TD.AperFunction*
G04 #@! TA.AperFunction,NonConductor*
G36*
X81825703Y-118457538D02*
G01*
X81846075Y-118480128D01*
X81976501Y-118666396D01*
X81976506Y-118666402D01*
X82143597Y-118833493D01*
X82143603Y-118833498D01*
X82329158Y-118963425D01*
X82372783Y-119018002D01*
X82379977Y-119087500D01*
X82348454Y-119149855D01*
X82329158Y-119166575D01*
X82143597Y-119296505D01*
X81976505Y-119463597D01*
X81846075Y-119649872D01*
X81791498Y-119693497D01*
X81722000Y-119700691D01*
X81659645Y-119669168D01*
X81624231Y-119608938D01*
X81620500Y-119578749D01*
X81620500Y-118551251D01*
X81640185Y-118484212D01*
X81692989Y-118438457D01*
X81762147Y-118428513D01*
X81825703Y-118457538D01*
G37*
G04 #@! TD.AperFunction*
G04 #@! TA.AperFunction,NonConductor*
G36*
X72255847Y-118408001D02*
G01*
X72263443Y-118408001D01*
X72275500Y-118408001D01*
X72342539Y-118427686D01*
X72388294Y-118480490D01*
X72399500Y-118532001D01*
X72399500Y-119623000D01*
X72379815Y-119690039D01*
X72327011Y-119735794D01*
X72275500Y-119747000D01*
X71759091Y-119747000D01*
X71692052Y-119727315D01*
X71646711Y-119675409D01*
X71644037Y-119669675D01*
X71644034Y-119669670D01*
X71644033Y-119669669D01*
X71568155Y-119561303D01*
X71508494Y-119476097D01*
X71341402Y-119309006D01*
X71341396Y-119309001D01*
X71155842Y-119179075D01*
X71112217Y-119124498D01*
X71105023Y-119055000D01*
X71136546Y-118992645D01*
X71155842Y-118975925D01*
X71264274Y-118900000D01*
X71341401Y-118845995D01*
X71508495Y-118678901D01*
X71644035Y-118485330D01*
X71646707Y-118479597D01*
X71692878Y-118427158D01*
X71759091Y-118408000D01*
X72255831Y-118408000D01*
X72255847Y-118408001D01*
G37*
G04 #@! TD.AperFunction*
G04 #@! TA.AperFunction,NonConductor*
G36*
X69047458Y-112774288D02*
G01*
X69103392Y-112816159D01*
X69127653Y-112879661D01*
X69134936Y-112962903D01*
X69134938Y-112962913D01*
X69196094Y-113191155D01*
X69196096Y-113191159D01*
X69196097Y-113191163D01*
X69280192Y-113371505D01*
X69295965Y-113405330D01*
X69295967Y-113405334D01*
X69375590Y-113519046D01*
X69422752Y-113586401D01*
X69431501Y-113598895D01*
X69431506Y-113598902D01*
X69598597Y-113765993D01*
X69598603Y-113765998D01*
X69784158Y-113895925D01*
X69827783Y-113950502D01*
X69834977Y-114020000D01*
X69803454Y-114082355D01*
X69784158Y-114099075D01*
X69598597Y-114229005D01*
X69431505Y-114396097D01*
X69295965Y-114589669D01*
X69295964Y-114589671D01*
X69196098Y-114803835D01*
X69196094Y-114803844D01*
X69134938Y-115032086D01*
X69134936Y-115032096D01*
X69114341Y-115267499D01*
X69114341Y-115267500D01*
X69134936Y-115502903D01*
X69134938Y-115502913D01*
X69196094Y-115731155D01*
X69196096Y-115731159D01*
X69196097Y-115731163D01*
X69281318Y-115913920D01*
X69295965Y-115945330D01*
X69295967Y-115945334D01*
X69393650Y-116084839D01*
X69426713Y-116132058D01*
X69431501Y-116138895D01*
X69431506Y-116138902D01*
X69598597Y-116305993D01*
X69598603Y-116305998D01*
X69784158Y-116435925D01*
X69827783Y-116490502D01*
X69834977Y-116560000D01*
X69803454Y-116622355D01*
X69784158Y-116639075D01*
X69598597Y-116769005D01*
X69431505Y-116936097D01*
X69295965Y-117129669D01*
X69295964Y-117129671D01*
X69196098Y-117343835D01*
X69196094Y-117343844D01*
X69134938Y-117572086D01*
X69134936Y-117572096D01*
X69114341Y-117807499D01*
X69114341Y-117807500D01*
X69134936Y-118042903D01*
X69134938Y-118042913D01*
X69196094Y-118271155D01*
X69196096Y-118271159D01*
X69196097Y-118271163D01*
X69289025Y-118470447D01*
X69295965Y-118485330D01*
X69295967Y-118485334D01*
X69396595Y-118629044D01*
X69422752Y-118666401D01*
X69431501Y-118678895D01*
X69431506Y-118678902D01*
X69598597Y-118845993D01*
X69598603Y-118845998D01*
X69784158Y-118975925D01*
X69827783Y-119030502D01*
X69834977Y-119100000D01*
X69803454Y-119162355D01*
X69784158Y-119179075D01*
X69598597Y-119309005D01*
X69431505Y-119476097D01*
X69295965Y-119669669D01*
X69295964Y-119669671D01*
X69196098Y-119883835D01*
X69196094Y-119883844D01*
X69134938Y-120112086D01*
X69134936Y-120112096D01*
X69114341Y-120347499D01*
X69114341Y-120347500D01*
X69134936Y-120582903D01*
X69134938Y-120582913D01*
X69196094Y-120811155D01*
X69196096Y-120811159D01*
X69196097Y-120811163D01*
X69259906Y-120948001D01*
X69295965Y-121025330D01*
X69295967Y-121025334D01*
X69304720Y-121037834D01*
X69422752Y-121206401D01*
X69431501Y-121218895D01*
X69431506Y-121218902D01*
X69598597Y-121385993D01*
X69598603Y-121385998D01*
X69784158Y-121515925D01*
X69827783Y-121570502D01*
X69834977Y-121640000D01*
X69803454Y-121702355D01*
X69784158Y-121719075D01*
X69598597Y-121849005D01*
X69431507Y-122016096D01*
X69324281Y-122169231D01*
X69269704Y-122212856D01*
X69200206Y-122220050D01*
X69137851Y-122188527D01*
X69135025Y-122185789D01*
X68506819Y-121557583D01*
X68473334Y-121496260D01*
X68470500Y-121469902D01*
X68470500Y-113300096D01*
X68490185Y-113233057D01*
X68506815Y-113212419D01*
X68916446Y-112802787D01*
X68977767Y-112769304D01*
X69047458Y-112774288D01*
G37*
G04 #@! TD.AperFunction*
G04 #@! TA.AperFunction,NonConductor*
G36*
X81825703Y-120997538D02*
G01*
X81846075Y-121020128D01*
X81976501Y-121206396D01*
X81976506Y-121206402D01*
X82143597Y-121373493D01*
X82143603Y-121373498D01*
X82329158Y-121503425D01*
X82372783Y-121558002D01*
X82379977Y-121627500D01*
X82348454Y-121689855D01*
X82329158Y-121706575D01*
X82143597Y-121836505D01*
X81976505Y-122003597D01*
X81846075Y-122189872D01*
X81791498Y-122233497D01*
X81722000Y-122240691D01*
X81659645Y-122209168D01*
X81624231Y-122148938D01*
X81620500Y-122118749D01*
X81620500Y-121091251D01*
X81640185Y-121024212D01*
X81692989Y-120978457D01*
X81762147Y-120968513D01*
X81825703Y-120997538D01*
G37*
G04 #@! TD.AperFunction*
G04 #@! TA.AperFunction,NonConductor*
G36*
X81825703Y-123537538D02*
G01*
X81846075Y-123560128D01*
X81976501Y-123746396D01*
X81976506Y-123746402D01*
X82143597Y-123913493D01*
X82143603Y-123913498D01*
X82329158Y-124043425D01*
X82372783Y-124098002D01*
X82379977Y-124167500D01*
X82348454Y-124229855D01*
X82329158Y-124246575D01*
X82143597Y-124376505D01*
X81976505Y-124543597D01*
X81846075Y-124729872D01*
X81791498Y-124773497D01*
X81722000Y-124780691D01*
X81659645Y-124749168D01*
X81624231Y-124688938D01*
X81620500Y-124658749D01*
X81620500Y-123631251D01*
X81640185Y-123564212D01*
X81692989Y-123518457D01*
X81762147Y-123508513D01*
X81825703Y-123537538D01*
G37*
G04 #@! TD.AperFunction*
G04 #@! TA.AperFunction,NonConductor*
G36*
X68110244Y-127790185D02*
G01*
X68155999Y-127842989D01*
X68165943Y-127912147D01*
X68148198Y-127960473D01*
X68104211Y-128030476D01*
X68044630Y-128200750D01*
X68036898Y-128269383D01*
X68009832Y-128333797D01*
X67952237Y-128373352D01*
X67913678Y-128379500D01*
X67637135Y-128379500D01*
X67570096Y-128359815D01*
X67524341Y-128307011D01*
X67514397Y-128237853D01*
X67543422Y-128174297D01*
X67566852Y-128154204D01*
X67566816Y-128154159D01*
X67568087Y-128153144D01*
X67571166Y-128150505D01*
X67571598Y-128150232D01*
X67572262Y-128149816D01*
X67699816Y-128022262D01*
X67795789Y-127869522D01*
X67801379Y-127853545D01*
X67842100Y-127796770D01*
X67907053Y-127771022D01*
X67918421Y-127770500D01*
X68043205Y-127770500D01*
X68110244Y-127790185D01*
G37*
G04 #@! TD.AperFunction*
G04 #@! TA.AperFunction,NonConductor*
G36*
X62278834Y-132292915D02*
G01*
X62334767Y-132334787D01*
X62359184Y-132400251D01*
X62359500Y-132409097D01*
X62359500Y-133377587D01*
X62339815Y-133444626D01*
X62332450Y-133454896D01*
X62330184Y-133457737D01*
X62289493Y-133522496D01*
X62237158Y-133568787D01*
X62168105Y-133579434D01*
X62104257Y-133551059D01*
X62065885Y-133492669D01*
X62060500Y-133456523D01*
X62060500Y-132460097D01*
X62080185Y-132393058D01*
X62096819Y-132372416D01*
X62147819Y-132321416D01*
X62209142Y-132287931D01*
X62278834Y-132292915D01*
G37*
G04 #@! TD.AperFunction*
G04 #@! TA.AperFunction,NonConductor*
G36*
X59028834Y-133853576D02*
G01*
X59084767Y-133895448D01*
X59109184Y-133960912D01*
X59109500Y-133969758D01*
X59109500Y-134510241D01*
X59089815Y-134577280D01*
X59037011Y-134623035D01*
X58967853Y-134632979D01*
X58904297Y-134603954D01*
X58897819Y-134597923D01*
X58877176Y-134577280D01*
X58771401Y-134471505D01*
X58771397Y-134471502D01*
X58771396Y-134471501D01*
X58585842Y-134341575D01*
X58542217Y-134286998D01*
X58535023Y-134217500D01*
X58566546Y-134155145D01*
X58585842Y-134138425D01*
X58757115Y-134018498D01*
X58771401Y-134008495D01*
X58897819Y-133882077D01*
X58959142Y-133848592D01*
X59028834Y-133853576D01*
G37*
G04 #@! TD.AperFunction*
G04 #@! TA.AperFunction,NonConductor*
G36*
X71747581Y-138826903D02*
G01*
X71750407Y-138829642D01*
X72698584Y-139777819D01*
X72732069Y-139839142D01*
X72727085Y-139908834D01*
X72685213Y-139964767D01*
X72619749Y-139989184D01*
X72610903Y-139989500D01*
X71759091Y-139989500D01*
X71692052Y-139969815D01*
X71646711Y-139917909D01*
X71644037Y-139912175D01*
X71644034Y-139912170D01*
X71644033Y-139912169D01*
X71508495Y-139718599D01*
X71508494Y-139718597D01*
X71341402Y-139551506D01*
X71341396Y-139551501D01*
X71155842Y-139421575D01*
X71112217Y-139366998D01*
X71105023Y-139297500D01*
X71136546Y-139235145D01*
X71155842Y-139218425D01*
X71327115Y-139098498D01*
X71341401Y-139088495D01*
X71508495Y-138921401D01*
X71561151Y-138846199D01*
X71615727Y-138802575D01*
X71685226Y-138795381D01*
X71747581Y-138826903D01*
G37*
G04 #@! TD.AperFunction*
G04 #@! TA.AperFunction,NonConductor*
G36*
X92312151Y-143728131D02*
G01*
X92352680Y-143785044D01*
X92359500Y-143825602D01*
X92359500Y-144749902D01*
X92339815Y-144816941D01*
X92323181Y-144837583D01*
X91807584Y-145353181D01*
X91746261Y-145386666D01*
X91719903Y-145389500D01*
X91009958Y-145389500D01*
X90942919Y-145369815D01*
X90897164Y-145317011D01*
X90887220Y-145247853D01*
X90916245Y-145184297D01*
X90969003Y-145148458D01*
X90985614Y-145142645D01*
X91119522Y-145095789D01*
X91272262Y-144999816D01*
X91399816Y-144872262D01*
X91495789Y-144719522D01*
X91555368Y-144549255D01*
X91574050Y-144383440D01*
X91601116Y-144319028D01*
X91609579Y-144309654D01*
X91968506Y-143950728D01*
X91968511Y-143950724D01*
X91978714Y-143940520D01*
X91978716Y-143940520D01*
X92090520Y-143828716D01*
X92128113Y-143763601D01*
X92178679Y-143715387D01*
X92247286Y-143702163D01*
X92312151Y-143728131D01*
G37*
G04 #@! TD.AperFunction*
M02*
