G04 #@! TF.GenerationSoftware,KiCad,Pcbnew,8.0.3*
G04 #@! TF.CreationDate,2024-08-20T17:09:34+02:00*
G04 #@! TF.ProjectId,MDBT50Q-breakout,4d444254-3530-4512-9d62-7265616b6f75,rev?*
G04 #@! TF.SameCoordinates,Original*
G04 #@! TF.FileFunction,Paste,Top*
G04 #@! TF.FilePolarity,Positive*
%FSLAX46Y46*%
G04 Gerber Fmt 4.6, Leading zero omitted, Abs format (unit mm)*
G04 Created by KiCad (PCBNEW 8.0.3) date 2024-08-20 17:09:34*
%MOMM*%
%LPD*%
G01*
G04 APERTURE LIST*
G04 Aperture macros list*
%AMRoundRect*
0 Rectangle with rounded corners*
0 $1 Rounding radius*
0 $2 $3 $4 $5 $6 $7 $8 $9 X,Y pos of 4 corners*
0 Add a 4 corners polygon primitive as box body*
4,1,4,$2,$3,$4,$5,$6,$7,$8,$9,$2,$3,0*
0 Add four circle primitives for the rounded corners*
1,1,$1+$1,$2,$3*
1,1,$1+$1,$4,$5*
1,1,$1+$1,$6,$7*
1,1,$1+$1,$8,$9*
0 Add four rect primitives between the rounded corners*
20,1,$1+$1,$2,$3,$4,$5,0*
20,1,$1+$1,$4,$5,$6,$7,0*
20,1,$1+$1,$6,$7,$8,$9,0*
20,1,$1+$1,$8,$9,$2,$3,0*%
G04 Aperture macros list end*
%ADD10RoundRect,0.237500X0.250000X0.237500X-0.250000X0.237500X-0.250000X-0.237500X0.250000X-0.237500X0*%
%ADD11R,1.150000X0.600000*%
%ADD12R,1.150000X0.300000*%
%ADD13RoundRect,0.237500X0.237500X-0.300000X0.237500X0.300000X-0.237500X0.300000X-0.237500X-0.300000X0*%
%ADD14RoundRect,0.237500X-0.250000X-0.237500X0.250000X-0.237500X0.250000X0.237500X-0.250000X0.237500X0*%
%ADD15RoundRect,0.237500X-0.237500X0.250000X-0.237500X-0.250000X0.237500X-0.250000X0.237500X0.250000X0*%
%ADD16RoundRect,0.237500X-0.287500X-0.237500X0.287500X-0.237500X0.287500X0.237500X-0.287500X0.237500X0*%
%ADD17RoundRect,0.237500X-0.300000X-0.237500X0.300000X-0.237500X0.300000X0.237500X-0.300000X0.237500X0*%
%ADD18RoundRect,0.237500X-0.237500X0.300000X-0.237500X-0.300000X0.237500X-0.300000X0.237500X0.300000X0*%
%ADD19RoundRect,0.250000X-0.275000X-0.250000X0.275000X-0.250000X0.275000X0.250000X-0.275000X0.250000X0*%
%ADD20RoundRect,0.250000X-0.850000X-0.275000X0.850000X-0.275000X0.850000X0.275000X-0.850000X0.275000X0*%
%ADD21R,1.000000X1.800000*%
%ADD22R,0.600000X0.400000*%
%ADD23R,0.400000X0.600000*%
%ADD24RoundRect,0.093750X0.156250X0.093750X-0.156250X0.093750X-0.156250X-0.093750X0.156250X-0.093750X0*%
%ADD25RoundRect,0.075000X0.250000X0.075000X-0.250000X0.075000X-0.250000X-0.075000X0.250000X-0.075000X0*%
%ADD26RoundRect,0.237500X0.300000X0.237500X-0.300000X0.237500X-0.300000X-0.237500X0.300000X-0.237500X0*%
%ADD27R,1.000000X0.750000*%
%ADD28RoundRect,0.150000X0.512500X0.150000X-0.512500X0.150000X-0.512500X-0.150000X0.512500X-0.150000X0*%
%ADD29RoundRect,0.250001X0.462499X0.624999X-0.462499X0.624999X-0.462499X-0.624999X0.462499X-0.624999X0*%
G04 APERTURE END LIST*
D10*
X97200000Y-101800000D03*
X95375000Y-101800000D03*
D11*
X105220000Y-104300000D03*
X105220000Y-103500000D03*
D12*
X105220000Y-102350000D03*
X105220000Y-101350000D03*
X105220000Y-100850000D03*
X105220000Y-99850000D03*
D11*
X105220000Y-97900000D03*
X105220000Y-98700000D03*
D12*
X105220000Y-99350000D03*
X105220000Y-100350000D03*
X105220000Y-101850000D03*
X105220000Y-102850000D03*
D13*
X100000000Y-106525000D03*
X100000000Y-104800000D03*
X101800000Y-95925000D03*
X101800000Y-94200000D03*
D14*
X97350000Y-90860000D03*
X99175000Y-90860000D03*
D10*
X99162500Y-92325000D03*
X97337500Y-92325000D03*
D14*
X108275000Y-107750000D03*
X110100000Y-107750000D03*
D15*
X59060000Y-94596053D03*
X59060000Y-96421053D03*
D16*
X57602500Y-103400000D03*
X59352500Y-103400000D03*
D17*
X94437500Y-107200000D03*
X96162500Y-107200000D03*
D18*
X79200000Y-106550000D03*
X79200000Y-108275000D03*
D10*
X63202500Y-103390000D03*
X61377500Y-103390000D03*
X97212500Y-99350000D03*
X95387500Y-99350000D03*
D18*
X101800000Y-90900000D03*
X101800000Y-92625000D03*
X103250000Y-90900000D03*
X103250000Y-92625000D03*
D19*
X108550000Y-92750000D03*
D20*
X110075000Y-91275000D03*
X110075000Y-94225000D03*
D21*
X79175000Y-104625000D03*
X76675000Y-104625000D03*
D22*
X76072500Y-90300000D03*
X76072500Y-91400000D03*
X76072500Y-92200000D03*
X76072500Y-93800000D03*
X76972500Y-94200000D03*
X76072500Y-94600000D03*
X76972500Y-95000000D03*
X76072500Y-95400000D03*
X76972500Y-95800000D03*
X76072500Y-96200000D03*
X76972500Y-96600000D03*
X76072500Y-97000000D03*
X76972500Y-97400000D03*
X76072500Y-97800000D03*
D23*
X75922500Y-101200000D03*
X76722500Y-101200000D03*
X77522500Y-101200000D03*
X78322500Y-101200000D03*
X78722500Y-100300000D03*
X79122500Y-101200000D03*
X79522500Y-100300000D03*
X79922500Y-101200000D03*
X80322500Y-100300000D03*
X80722500Y-101200000D03*
X81122500Y-100300000D03*
X81522500Y-101200000D03*
X81922500Y-100300000D03*
X82322500Y-101200000D03*
X82722500Y-100300000D03*
X83122500Y-101200000D03*
X83922500Y-101200000D03*
X84722500Y-101200000D03*
X85522500Y-101200000D03*
D22*
X85372500Y-100200000D03*
X85372500Y-99400000D03*
X84472500Y-99000000D03*
X85372500Y-98600000D03*
X84472500Y-98200000D03*
X85372500Y-97800000D03*
X84472500Y-97400000D03*
X85372500Y-97000000D03*
X84472500Y-96600000D03*
X84472500Y-95800000D03*
X85372500Y-95400000D03*
X84472500Y-95000000D03*
X85372500Y-94600000D03*
X84472500Y-94200000D03*
X85372500Y-93800000D03*
X84472500Y-93400000D03*
X84472500Y-92600000D03*
X85372500Y-92200000D03*
X84472500Y-91800000D03*
X85372500Y-91400000D03*
X84472500Y-91000000D03*
X85372500Y-90300000D03*
D23*
X78722500Y-94600000D03*
X79522500Y-94600000D03*
X80322500Y-94600000D03*
X81122500Y-94600000D03*
X81922500Y-94600000D03*
X82722500Y-94600000D03*
D24*
X102200000Y-100350000D03*
D25*
X102275000Y-100887500D03*
D24*
X102200000Y-101425000D03*
X100500000Y-101425000D03*
D25*
X100425000Y-100887500D03*
D24*
X100500000Y-100350000D03*
D13*
X87500000Y-104775000D03*
X87500000Y-103050000D03*
D26*
X88362500Y-107450000D03*
X86637500Y-107450000D03*
D27*
X66935000Y-96433553D03*
X60935000Y-96433553D03*
X66935000Y-92683553D03*
X60935000Y-92683553D03*
D13*
X103250000Y-95925000D03*
X103250000Y-94200000D03*
D26*
X82800000Y-103675000D03*
X81075000Y-103675000D03*
D28*
X92475000Y-108400000D03*
X92475000Y-106500000D03*
X90200000Y-107450000D03*
D10*
X110112500Y-109275000D03*
X108287500Y-109275000D03*
D13*
X57460000Y-96371053D03*
X57460000Y-94646053D03*
D29*
X97600000Y-105125000D03*
X94625000Y-105125000D03*
D18*
X76650000Y-106550000D03*
X76650000Y-108275000D03*
M02*
