G04 #@! TF.GenerationSoftware,KiCad,Pcbnew,8.0.3*
G04 #@! TF.CreationDate,2024-08-20T17:09:34+02:00*
G04 #@! TF.ProjectId,MDBT50Q-breakout,4d444254-3530-4512-9d62-7265616b6f75,rev?*
G04 #@! TF.SameCoordinates,Original*
G04 #@! TF.FileFunction,Soldermask,Top*
G04 #@! TF.FilePolarity,Negative*
%FSLAX46Y46*%
G04 Gerber Fmt 4.6, Leading zero omitted, Abs format (unit mm)*
G04 Created by KiCad (PCBNEW 8.0.3) date 2024-08-20 17:09:34*
%MOMM*%
%LPD*%
G01*
G04 APERTURE LIST*
G04 Aperture macros list*
%AMRoundRect*
0 Rectangle with rounded corners*
0 $1 Rounding radius*
0 $2 $3 $4 $5 $6 $7 $8 $9 X,Y pos of 4 corners*
0 Add a 4 corners polygon primitive as box body*
4,1,4,$2,$3,$4,$5,$6,$7,$8,$9,$2,$3,0*
0 Add four circle primitives for the rounded corners*
1,1,$1+$1,$2,$3*
1,1,$1+$1,$4,$5*
1,1,$1+$1,$6,$7*
1,1,$1+$1,$8,$9*
0 Add four rect primitives between the rounded corners*
20,1,$1+$1,$2,$3,$4,$5,0*
20,1,$1+$1,$4,$5,$6,$7,0*
20,1,$1+$1,$6,$7,$8,$9,0*
20,1,$1+$1,$8,$9,$2,$3,0*%
G04 Aperture macros list end*
%ADD10C,0.010000*%
%ADD11RoundRect,0.237500X0.250000X0.237500X-0.250000X0.237500X-0.250000X-0.237500X0.250000X-0.237500X0*%
%ADD12C,0.650000*%
%ADD13O,2.304000X1.204000*%
%ADD14O,2.004000X1.204000*%
%ADD15RoundRect,0.237500X0.237500X-0.300000X0.237500X0.300000X-0.237500X0.300000X-0.237500X-0.300000X0*%
%ADD16RoundRect,0.237500X-0.250000X-0.237500X0.250000X-0.237500X0.250000X0.237500X-0.250000X0.237500X0*%
%ADD17C,1.700000*%
%ADD18O,1.700000X1.700000*%
%ADD19RoundRect,0.237500X-0.237500X0.250000X-0.237500X-0.250000X0.237500X-0.250000X0.237500X0.250000X0*%
%ADD20RoundRect,0.237500X-0.287500X-0.237500X0.287500X-0.237500X0.287500X0.237500X-0.287500X0.237500X0*%
%ADD21RoundRect,0.237500X-0.300000X-0.237500X0.300000X-0.237500X0.300000X0.237500X-0.300000X0.237500X0*%
%ADD22RoundRect,0.237500X-0.237500X0.300000X-0.237500X-0.300000X0.237500X-0.300000X0.237500X0.300000X0*%
%ADD23R,1.700000X1.700000*%
%ADD24RoundRect,0.250000X-0.275000X-0.250000X0.275000X-0.250000X0.275000X0.250000X-0.275000X0.250000X0*%
%ADD25RoundRect,0.250000X-0.850000X-0.275000X0.850000X-0.275000X0.850000X0.275000X-0.850000X0.275000X0*%
%ADD26R,1.000000X1.800000*%
%ADD27R,0.600000X0.400000*%
%ADD28R,0.400000X0.600000*%
%ADD29RoundRect,0.093750X0.156250X0.093750X-0.156250X0.093750X-0.156250X-0.093750X0.156250X-0.093750X0*%
%ADD30RoundRect,0.075000X0.250000X0.075000X-0.250000X0.075000X-0.250000X-0.075000X0.250000X-0.075000X0*%
%ADD31RoundRect,0.237500X0.300000X0.237500X-0.300000X0.237500X-0.300000X-0.237500X0.300000X-0.237500X0*%
%ADD32R,1.000000X0.750000*%
%ADD33RoundRect,0.150000X0.512500X0.150000X-0.512500X0.150000X-0.512500X-0.150000X0.512500X-0.150000X0*%
%ADD34RoundRect,0.250001X0.462499X0.624999X-0.462499X0.624999X-0.462499X-0.624999X0.462499X-0.624999X0*%
G04 APERTURE END LIST*
D10*
X105845000Y-98250000D02*
X104595000Y-98250000D01*
X104595000Y-97550000D01*
X105845000Y-97550000D01*
X105845000Y-98250000D01*
G36*
X105845000Y-98250000D02*
G01*
X104595000Y-98250000D01*
X104595000Y-97550000D01*
X105845000Y-97550000D01*
X105845000Y-98250000D01*
G37*
X105845000Y-99050000D02*
X104595000Y-99050000D01*
X104595000Y-98350000D01*
X105845000Y-98350000D01*
X105845000Y-99050000D01*
G36*
X105845000Y-99050000D02*
G01*
X104595000Y-99050000D01*
X104595000Y-98350000D01*
X105845000Y-98350000D01*
X105845000Y-99050000D01*
G37*
X105845000Y-99550000D02*
X104595000Y-99550000D01*
X104595000Y-99150000D01*
X105845000Y-99150000D01*
X105845000Y-99550000D01*
G36*
X105845000Y-99550000D02*
G01*
X104595000Y-99550000D01*
X104595000Y-99150000D01*
X105845000Y-99150000D01*
X105845000Y-99550000D01*
G37*
X105845000Y-100050000D02*
X104595000Y-100050000D01*
X104595000Y-99650000D01*
X105845000Y-99650000D01*
X105845000Y-100050000D01*
G36*
X105845000Y-100050000D02*
G01*
X104595000Y-100050000D01*
X104595000Y-99650000D01*
X105845000Y-99650000D01*
X105845000Y-100050000D01*
G37*
X105845000Y-100550000D02*
X104595000Y-100550000D01*
X104595000Y-100150000D01*
X105845000Y-100150000D01*
X105845000Y-100550000D01*
G36*
X105845000Y-100550000D02*
G01*
X104595000Y-100550000D01*
X104595000Y-100150000D01*
X105845000Y-100150000D01*
X105845000Y-100550000D01*
G37*
X105845000Y-101050000D02*
X104595000Y-101050000D01*
X104595000Y-100650000D01*
X105845000Y-100650000D01*
X105845000Y-101050000D01*
G36*
X105845000Y-101050000D02*
G01*
X104595000Y-101050000D01*
X104595000Y-100650000D01*
X105845000Y-100650000D01*
X105845000Y-101050000D01*
G37*
X105845000Y-101550000D02*
X104595000Y-101550000D01*
X104595000Y-101150000D01*
X105845000Y-101150000D01*
X105845000Y-101550000D01*
G36*
X105845000Y-101550000D02*
G01*
X104595000Y-101550000D01*
X104595000Y-101150000D01*
X105845000Y-101150000D01*
X105845000Y-101550000D01*
G37*
X105845000Y-102050000D02*
X104595000Y-102050000D01*
X104595000Y-101650000D01*
X105845000Y-101650000D01*
X105845000Y-102050000D01*
G36*
X105845000Y-102050000D02*
G01*
X104595000Y-102050000D01*
X104595000Y-101650000D01*
X105845000Y-101650000D01*
X105845000Y-102050000D01*
G37*
X105845000Y-102550000D02*
X104595000Y-102550000D01*
X104595000Y-102150000D01*
X105845000Y-102150000D01*
X105845000Y-102550000D01*
G36*
X105845000Y-102550000D02*
G01*
X104595000Y-102550000D01*
X104595000Y-102150000D01*
X105845000Y-102150000D01*
X105845000Y-102550000D01*
G37*
X105845000Y-103050000D02*
X104595000Y-103050000D01*
X104595000Y-102650000D01*
X105845000Y-102650000D01*
X105845000Y-103050000D01*
G36*
X105845000Y-103050000D02*
G01*
X104595000Y-103050000D01*
X104595000Y-102650000D01*
X105845000Y-102650000D01*
X105845000Y-103050000D01*
G37*
X105845000Y-103850000D02*
X104595000Y-103850000D01*
X104595000Y-103150000D01*
X105845000Y-103150000D01*
X105845000Y-103850000D01*
G36*
X105845000Y-103850000D02*
G01*
X104595000Y-103850000D01*
X104595000Y-103150000D01*
X105845000Y-103150000D01*
X105845000Y-103850000D01*
G37*
X105845000Y-104650000D02*
X104595000Y-104650000D01*
X104595000Y-103950000D01*
X105845000Y-103950000D01*
X105845000Y-104650000D01*
G36*
X105845000Y-104650000D02*
G01*
X104595000Y-104650000D01*
X104595000Y-103950000D01*
X105845000Y-103950000D01*
X105845000Y-104650000D01*
G37*
G36*
X109085000Y-91810000D02*
G01*
X111175000Y-91810000D01*
X111175000Y-93690000D01*
X109085000Y-93690000D01*
X109085000Y-91810000D01*
G37*
D11*
X97200000Y-101800000D03*
X95375000Y-101800000D03*
D12*
X106295000Y-103990000D03*
X106295000Y-98210000D03*
D13*
X105795000Y-105420000D03*
X105795000Y-96780000D03*
D14*
X109975000Y-105420000D03*
X109975000Y-96780000D03*
D15*
X100000000Y-106525000D03*
X100000000Y-104800000D03*
X101800000Y-95925000D03*
X101800000Y-94200000D03*
D16*
X97350000Y-90860000D03*
X99175000Y-90860000D03*
D17*
X83015000Y-125415000D03*
D18*
X83015000Y-122875000D03*
X83015000Y-120335000D03*
X83015000Y-117795000D03*
X83015000Y-115255000D03*
X83015000Y-112715000D03*
D11*
X99162500Y-92325000D03*
X97337500Y-92325000D03*
D17*
X70470000Y-132970000D03*
D18*
X70470000Y-135510000D03*
X70470000Y-138050000D03*
X70470000Y-140590000D03*
X70470000Y-143130000D03*
X70470000Y-145670000D03*
D16*
X108275000Y-107750000D03*
X110100000Y-107750000D03*
D19*
X59060000Y-94596053D03*
X59060000Y-96421053D03*
D20*
X57602500Y-103400000D03*
X59352500Y-103400000D03*
D21*
X94437500Y-107200000D03*
X96162500Y-107200000D03*
D22*
X79200000Y-106550000D03*
X79200000Y-108275000D03*
D11*
X63202500Y-103390000D03*
X61377500Y-103390000D03*
D17*
X106500000Y-114410000D03*
D23*
X106500000Y-111870000D03*
D11*
X97212500Y-99350000D03*
X95387500Y-99350000D03*
D22*
X101800000Y-90900000D03*
X101800000Y-92625000D03*
D17*
X57900000Y-132970000D03*
D18*
X57900000Y-135510000D03*
X57900000Y-138050000D03*
X57900000Y-140590000D03*
X57900000Y-143130000D03*
X57900000Y-145670000D03*
D17*
X101300000Y-114375000D03*
D18*
X101300000Y-111835000D03*
X101300000Y-109295000D03*
D22*
X103250000Y-90900000D03*
X103250000Y-92625000D03*
D24*
X108550000Y-92750000D03*
D25*
X110075000Y-91275000D03*
X110075000Y-94225000D03*
D17*
X83080000Y-132980000D03*
D18*
X83080000Y-135520000D03*
X83080000Y-138060000D03*
X83080000Y-140600000D03*
X83080000Y-143140000D03*
D26*
X79175000Y-104625000D03*
X76675000Y-104625000D03*
D27*
X76072500Y-90300000D03*
X76072500Y-91400000D03*
X76072500Y-92200000D03*
X76072500Y-93800000D03*
X76972500Y-94200000D03*
X76072500Y-94600000D03*
X76972500Y-95000000D03*
X76072500Y-95400000D03*
X76972500Y-95800000D03*
X76072500Y-96200000D03*
X76972500Y-96600000D03*
X76072500Y-97000000D03*
X76972500Y-97400000D03*
X76072500Y-97800000D03*
D28*
X75922500Y-101200000D03*
X76722500Y-101200000D03*
X77522500Y-101200000D03*
X78322500Y-101200000D03*
X78722500Y-100300000D03*
X79122500Y-101200000D03*
X79522500Y-100300000D03*
X79922500Y-101200000D03*
X80322500Y-100300000D03*
X80722500Y-101200000D03*
X81122500Y-100300000D03*
X81522500Y-101200000D03*
X81922500Y-100300000D03*
X82322500Y-101200000D03*
X82722500Y-100300000D03*
X83122500Y-101200000D03*
X83922500Y-101200000D03*
X84722500Y-101200000D03*
X85522500Y-101200000D03*
D27*
X85372500Y-100200000D03*
X85372500Y-99400000D03*
X84472500Y-99000000D03*
X85372500Y-98600000D03*
X84472500Y-98200000D03*
X85372500Y-97800000D03*
X84472500Y-97400000D03*
X85372500Y-97000000D03*
X84472500Y-96600000D03*
X84472500Y-95800000D03*
X85372500Y-95400000D03*
X84472500Y-95000000D03*
X85372500Y-94600000D03*
X84472500Y-94200000D03*
X85372500Y-93800000D03*
X84472500Y-93400000D03*
X84472500Y-92600000D03*
X85372500Y-92200000D03*
X84472500Y-91800000D03*
X85372500Y-91400000D03*
X84472500Y-91000000D03*
X85372500Y-90300000D03*
D28*
X78722500Y-94600000D03*
X79522500Y-94600000D03*
X80322500Y-94600000D03*
X81122500Y-94600000D03*
X81922500Y-94600000D03*
X82722500Y-94600000D03*
D17*
X57910000Y-112740000D03*
D18*
X57910000Y-115280000D03*
X57910000Y-117820000D03*
X57910000Y-120360000D03*
X57910000Y-122900000D03*
X57910000Y-125440000D03*
D17*
X70470000Y-112727500D03*
D18*
X70470000Y-115267500D03*
X70470000Y-117807500D03*
X70470000Y-120347500D03*
X70470000Y-122887500D03*
X70470000Y-125427500D03*
D29*
X102200000Y-100350000D03*
D30*
X102275000Y-100887500D03*
D29*
X102200000Y-101425000D03*
X100500000Y-101425000D03*
D30*
X100425000Y-100887500D03*
D29*
X100500000Y-100350000D03*
D15*
X87500000Y-104775000D03*
X87500000Y-103050000D03*
D31*
X88362500Y-107450000D03*
X86637500Y-107450000D03*
D17*
X96140000Y-132975000D03*
D18*
X98680000Y-132975000D03*
X101220000Y-132975000D03*
X103760000Y-132975000D03*
X106300000Y-132975000D03*
X108840000Y-132975000D03*
D32*
X66935000Y-96433553D03*
X60935000Y-96433553D03*
X66935000Y-92683553D03*
X60935000Y-92683553D03*
D15*
X103250000Y-95925000D03*
X103250000Y-94200000D03*
D31*
X82800000Y-103675000D03*
X81075000Y-103675000D03*
D33*
X92475000Y-108400000D03*
X92475000Y-106500000D03*
X90200000Y-107450000D03*
D11*
X110112500Y-109275000D03*
X108287500Y-109275000D03*
D15*
X57460000Y-96371053D03*
X57460000Y-94646053D03*
D34*
X97600000Y-105125000D03*
X94625000Y-105125000D03*
D17*
X108850000Y-119400000D03*
D23*
X106310000Y-119400000D03*
D18*
X103770000Y-119400000D03*
X101230000Y-119400000D03*
D22*
X76650000Y-106550000D03*
X76650000Y-108275000D03*
M02*
