M48
; DRILL file {KiCad 8.0.3} date 2024-08-20T17:09:36+0200
; FORMAT={-:-/ absolute / metric / decimal}
; #@! TF.CreationDate,2024-08-20T17:09:36+02:00
; #@! TF.GenerationSoftware,Kicad,Pcbnew,8.0.3
; #@! TF.FileFunction,Plated,1,2,PTH
FMAT,2
METRIC
; #@! TA.AperFunction,Plated,PTH,ViaDrill
T1C0.200
; #@! TA.AperFunction,Plated,PTH,ViaDrill
T2C0.300
; #@! TA.AperFunction,Plated,PTH,ComponentDrill
T3C0.600
; #@! TA.AperFunction,Plated,PTH,ComponentDrill
T4C1.000
%
G90
G05
T1
X65.88Y-111.45
X66.494Y-111.45
X67.03Y-109.73
X67.043Y-111.465
X67.58Y-109.73
X67.593Y-111.46
X67.69Y-99.0
X68.13Y-109.73
X68.154Y-111.46
X68.24Y-99.0
X68.69Y-109.73
X68.704Y-111.45
X68.8Y-99.0
X69.24Y-109.73
X69.35Y-99.0
X69.79Y-109.73
X69.9Y-99.0
X71.717Y-109.825
X71.73Y-111.1
X72.18Y-108.78
X72.525Y-109.43
X73.85Y-95.125
X74.03Y-109.58
X74.43Y-96.22
X74.66Y-111.25
X74.76Y-94.61
X75.09Y-97.02
X75.14Y-98.02
X75.36Y-93.81
X76.72Y-101.94
X77.67Y-94.2
X77.67Y-95.01
X77.67Y-95.8
X77.67Y-96.62
X77.67Y-97.42
X78.73Y-95.34
X78.73Y-99.62
X79.05Y-102.74
X79.53Y-95.32
X79.53Y-99.62
X79.93Y-101.89
X80.34Y-99.62
X81.051Y-102.763
X81.13Y-99.61
X81.54Y-101.89
X81.93Y-99.61
X82.72Y-99.61
X83.725Y-91.8
X83.725Y-92.6
X83.725Y-93.4
X83.725Y-94.2
X83.725Y-95.0
X83.725Y-95.8
X83.725Y-96.6
X83.725Y-97.4
X83.725Y-98.2
X86.15Y-92.2
X86.15Y-93.8
X86.15Y-95.4
X86.15Y-97.0
X86.15Y-97.55
X86.15Y-98.6
X86.275Y-90.325
X86.8Y-90.325
X86.975Y-94.625
X92.9Y-117.325
X93.45Y-117.325
X94.0Y-117.325
X94.55Y-117.325
X95.1Y-117.325
X95.65Y-117.325
X102.8Y-130.125
X103.35Y-130.125
T2
X55.07Y-114.4
X55.77Y-110.91
X56.59Y-97.78
X59.05Y-130.32
X59.75Y-139.23
X60.17Y-141.76
X60.36Y-119.1
X60.43Y-113.8
X60.89Y-111.38
X62.19Y-121.66
X62.33Y-116.45
X62.55Y-107.1
X62.96Y-133.96
X63.94Y-94.62
X65.34Y-133.1
X65.51Y-126.36
X66.14Y-103.9
X67.07Y-127.52
X67.23Y-121.97
X68.81Y-125.27
X68.83Y-128.38
X69.53Y-94.69
X71.49Y-106.39
X74.0Y-90.4
X74.0Y-91.4
X74.675Y-101.2
X74.675Y-102.575
X74.875Y-90.4
X74.875Y-91.4
X75.9Y-102.6
X76.78Y-113.08
X76.9Y-119.94
X76.91Y-93.14
X76.925Y-90.425
X76.925Y-91.425
X76.93Y-117.77
X76.95Y-123.18
X76.96Y-115.46
X78.03Y-142.55
X78.16Y-126.01
X78.17Y-134.2
X78.35Y-131.48
X78.42Y-137.93
X78.62Y-112.87
X80.51Y-96.64
X80.57Y-104.51
X80.75Y-131.35
X82.09Y-108.18
X82.53Y-109.56
X82.93Y-98.72
X83.175Y-90.4
X83.63Y-128.85
X84.45Y-104.5
X85.2Y-116.53
X85.27Y-136.5
X85.525Y-102.55
X86.04Y-137.46
X86.05Y-128.61
X86.09Y-141.54
X86.35Y-103.425
X86.375Y-102.425
X86.675Y-101.2
X87.26Y-147.62
X87.56Y-136.24
X87.71Y-130.69
X88.61Y-137.19
X90.77Y-144.37
X90.81Y-114.84
X91.27Y-110.36
X92.21Y-125.071
X92.54Y-125.8
X93.98Y-121.69
X94.04Y-123.86
X94.2Y-128.04
X95.66Y-126.34
X95.87Y-122.75
X96.25Y-92.325
X97.73Y-125.31
X98.175Y-94.95
X98.925Y-104.775
X99.01Y-117.51
X99.025Y-100.575
X99.96Y-132.02
X100.75Y-92.2
X103.225Y-97.45
X103.325Y-101.05
X103.83Y-104.78
X104.05Y-97.95
X104.45Y-93.2
X106.6Y-90.875
T4
X57.9Y-132.97
X57.9Y-135.51
X57.9Y-138.05
X57.9Y-140.59
X57.9Y-143.13
X57.9Y-145.67
X57.91Y-112.74
X57.91Y-115.28
X57.91Y-117.82
X57.91Y-120.36
X57.91Y-122.9
X57.91Y-125.44
X70.47Y-112.727
X70.47Y-115.267
X70.47Y-117.807
X70.47Y-120.347
X70.47Y-122.887
X70.47Y-125.427
X70.47Y-132.97
X70.47Y-135.51
X70.47Y-138.05
X70.47Y-140.59
X70.47Y-143.13
X70.47Y-145.67
X83.015Y-112.715
X83.015Y-115.255
X83.015Y-117.795
X83.015Y-120.335
X83.015Y-122.875
X83.015Y-125.415
X83.08Y-132.98
X83.08Y-135.52
X83.08Y-138.06
X83.08Y-140.6
X83.08Y-143.14
X96.14Y-132.975
X98.68Y-132.975
X101.22Y-132.975
X101.23Y-119.4
X101.3Y-109.295
X101.3Y-111.835
X101.3Y-114.375
X103.76Y-132.975
X103.77Y-119.4
X106.3Y-132.975
X106.31Y-119.4
X106.5Y-111.87
X106.5Y-114.41
X108.84Y-132.975
X108.85Y-119.4
T3
X105.245Y-96.78G85X106.345Y-96.78
G05
X105.245Y-105.42G85X106.345Y-105.42
G05
X109.575Y-96.78G85X110.375Y-96.78
G05
X109.575Y-105.42G85X110.375Y-105.42
G05
M30
